<svg width="40" height="57" viewBox="0 0 40 57" fill="none" xmlns="http://www.w3.org/2000/svg">
<path d="M10.6415 51.1704C10.6415 53.857 8.47318 56.0283 5.80653 56.0283C3.13989 56.0283 0.971591 53.857 0.971591 51.1704C0.971591 48.4838 3.13989 46.3124 5.80653 46.3124C8.47318 46.3124 10.6415 48.4838 10.6415 51.1704Z" stroke="white" stroke-width="1.94318"/>
<path d="M24.5119 32.3865C24.5119 35.9686 21.6208 38.8638 18.0653 38.8638C14.5098 38.8638 11.6187 35.9686 11.6187 32.3865C11.6187 28.8044 14.5098 25.9092 18.0653 25.9092C21.6208 25.9092 24.5119 28.8044 24.5119 32.3865Z" stroke="white" stroke-width="2.59091"/>
<path d="M38.3803 9.71591C38.3803 14.1936 34.7665 17.8125 30.3221 17.8125C25.8777 17.8125 22.2638 14.1936 22.2638 9.71591C22.2638 5.23824 25.8777 1.61932 30.3221 1.61932C34.7665 1.61932 38.3803 5.23824 38.3803 9.71591Z" stroke="white" stroke-width="3.23864"/>
</svg>
