<svg width="282" height="227" viewBox="0 0 282 227" fill="none" xmlns="http://www.w3.org/2000/svg">
<g filter="url(#filter0_d_358_53201)">
<path d="M4 186.479C29.393 173.125 65.1948 165.252 79.9216 162.985C70.914 139.491 242.917 160.821 253.641 162.985C264.364 165.149 264.364 166.695 264.364 167.931C264.364 168.782 258.065 169.487 254.557 169.642C258.648 170.446 266.663 173.141 265.651 174.114C264.364 175.351 260.504 173.496 259.217 174.114C258.187 174.609 259.646 175.763 260.504 176.278C272.171 176.525 275.945 179.472 276.374 180.915C277.729 184.577 262.197 187.536 253.958 188.602C257.732 188.291 268.653 192.707 268.653 194.207C268.653 195.444 258.645 197.196 253.641 197.917C255.699 201.379 244.49 204.718 238.628 205.954C227.99 213.868 207.887 213.167 199.166 211.828C176.003 223.884 147.265 215.847 134.396 218.32C124.102 220.298 112.378 217.495 107.802 215.847C102.998 217.578 95.5063 217.598 92.3607 217.392C85.8409 217.145 80.4935 212.343 78.6348 209.973L52.8987 203.79C40.8885 213.435 23.2914 205.776 17.2863 200.933C14.2837 199.078 34.0255 193.589 32.7387 193.898C31.7092 194.146 28.4189 192.547 27.561 191.722C12.4625 191.475 6.0017 188.128 4 186.479Z" fill="#A5D6D0"/>
</g>
<g filter="url(#filter1_d_358_53201)">
<path d="M7.54199 179.268C32.935 169.26 68.7368 163.36 83.4636 161.661C74.456 144.054 246.459 160.04 257.183 161.661C267.906 163.283 267.906 164.441 267.906 165.368C267.906 166.006 261.607 166.534 258.099 166.65C262.19 167.253 270.205 169.272 269.193 170.001C267.906 170.928 264.046 169.538 262.759 170.001C261.729 170.372 263.188 171.237 264.046 171.623C275.713 171.808 279.487 174.017 279.916 175.098C281.271 177.842 265.739 180.06 257.5 180.859C261.274 180.626 272.195 183.935 272.195 185.06C272.195 185.987 262.187 187.299 257.183 187.84C259.241 190.435 248.032 192.937 242.17 193.863C231.532 199.794 212.369 200.012 203.647 199.008C180.485 208.044 152.387 204.489 139.519 206.342C129.225 207.825 115.92 202.512 111.344 201.277C106.54 202.574 97.4912 204.953 94.3457 204.798C87.8259 204.613 84.0355 198.651 82.1768 196.875L56.4407 192.242C44.4305 199.47 27.1877 194.643 21.1826 191.014C18.18 189.624 37.5675 184.597 36.2807 184.828C35.2512 185.014 33.2781 183.824 32.4203 183.207C17.3217 183.021 9.54369 180.504 7.54199 179.268Z" fill="#6BB8DA"/>
</g>
<path d="M74.7329 162.231C74.5555 164.878 75.3363 171.037 79.8794 174.501C77.5132 175.704 73.1003 179.301 74.378 184.064C74.3188 185.748 75.1943 189.73 79.1695 192.184C85.4991 194.53 101.211 198.21 113.42 194.169H174.113C186.535 195.251 210.919 195.071 209.073 185.688C209.547 185.026 210.209 182.801 209.073 179.192C216.763 175.223 231.611 165.984 229.482 160.788L224.197 158.245" stroke="white" stroke-width="0.70851" stroke-linecap="round"/>
<g filter="url(#filter2_d_358_53201)">
<path d="M214.632 146.772C215.341 132.602 201.7 126.462 194.791 125.163C199.468 119.636 207.959 123.332 211.621 125.871C219.84 131.397 223.076 140.455 223.667 144.292C226.501 155.77 221.423 166.079 218.529 169.799C213.144 176.742 204.83 178.95 201.346 179.186L188.945 177.592L190.185 159.171L201.346 160.234C211.408 161.934 214.396 151.968 214.632 146.772Z" fill="#9B7963"/>
<path d="M106.039 91.4681C111.885 79.9548 112.062 77.1208 111.885 73.0469C132.907 73.165 174.809 73.4011 174.242 73.4011C173.533 73.4011 174.596 83.4974 179.911 91.1139C185.225 98.7304 184.162 98.9075 185.934 103.159C187.705 107.41 184.871 118.746 184.162 118.746C183.454 118.746 184.871 130.79 184.339 133.093C183.914 134.935 185.461 138.23 186.288 139.647C182.462 139.788 178.907 143.366 177.608 145.138C156.409 149.802 113.408 157.501 110.999 150.983C108.59 144.465 99.3663 140.237 95.0557 138.938C98.1853 134.451 103.771 123.705 101.079 116.62C98.3861 109.535 99.7206 103.159 100.724 100.856C101.728 99.0256 104.197 94.5856 106.039 91.4681Z" fill="#9B7963" stroke="#9B7963" stroke-width="0.354255"/>
<path d="M83.0775 176.225C74.348 167.142 76.3396 154.582 78.4265 149.437C83.6057 141.159 89.2714 138.675 94.526 139.224C95.5277 138.292 96.9707 135.828 97.567 134.713C101.145 129.745 101.681 121.762 101.502 118.392H184.504C184.623 123.181 184.862 133.01 184.862 134.003C184.862 134.997 186.293 137.965 187.008 139.325C191.54 138.379 201.498 139.254 205.075 150.324C208.653 161.394 203.585 170.666 200.603 173.919C192.017 169.661 183.788 172.854 180.747 174.983C177.706 177.703 171.481 183.498 170.909 184.918C170.336 186.337 164.469 187.874 161.607 188.466C148.787 188.288 123.649 188.392 123.222 188.534C122.691 188.711 119.57 187.224 117.602 186.337C117.781 186.751 115.92 185.414 107.048 176.757C98.1752 168.1 87.3707 172.795 83.0775 176.225Z" fill="#9B7963"/>
<rect x="114.188" y="188.215" width="47.4763" height="0.354255" fill="#9B7963"/>
<path d="M78.1094 181.971C79.3556 175.263 85.8982 172.397 89.0138 171.802C92.4408 171.374 96.4131 171.623 97.9709 171.802C101.398 171.945 106.798 175.905 109.07 177.868C112.03 181.436 115.626 184.35 117.054 185.361C119.857 187.359 122.635 187.978 123.674 188.037L134.384 188.572H128.737H125.232H114.133C112.575 188.858 111.536 188.929 111.212 188.929L106.539 190C104.591 190.892 100.113 191.07 98.7498 190.892C97.6594 190.749 96.9973 190.238 96.8026 190C95.8679 190.713 95.2448 190.892 95.0501 190.892C92.8692 191.177 91.1557 191.011 90.5715 190.892C89.6369 190.749 88.7541 190.357 88.4296 190.178C88.118 190.606 87.6507 190.832 87.456 190.892C85.2751 191.32 83.0423 190.476 82.1985 190C78.3041 187.573 77.8498 183.636 78.1094 181.971Z" fill="#9B7963"/>
<path d="M96.7249 189.916C94.3041 187.377 90.9505 180.953 96.902 175.568" stroke="#5A4335" stroke-width="0.247978" stroke-linecap="round"/>
<path d="M206.599 181.971C205.33 175.263 198.664 172.396 195.489 171.801C191.998 171.373 187.95 171.623 186.363 171.801C182.871 171.944 177.369 175.905 175.055 177.867C172.039 181.436 168.375 184.35 166.921 185.361C164.064 187.359 161.233 187.977 160.175 188.037L149.263 188.572H155.017H158.588H169.896C171.484 188.857 172.542 188.929 172.872 188.929L177.634 189.999C179.618 190.891 184.181 191.07 185.57 190.891C186.681 190.749 187.355 190.237 187.554 189.999C188.506 190.713 189.141 190.891 189.339 190.891C191.561 191.177 193.307 191.01 193.902 190.891C194.854 190.749 195.754 190.356 196.085 190.178C196.402 190.606 196.878 190.832 197.076 190.891C199.299 191.32 201.573 190.475 202.433 189.999C206.401 187.573 206.864 183.636 206.599 181.971Z" fill="#9B7963"/>
<path d="M196.177 190.092C198.644 187.554 202.061 181.13 195.997 175.745" stroke="#5A4335" stroke-width="0.247978" stroke-linecap="round"/>
<path d="M187.638 189.915C190.105 187.376 193.522 180.953 187.458 175.568" stroke="#5A4335" stroke-width="0.247978" stroke-linecap="round"/>
<path d="M132.764 188.605C102.363 159.746 112.638 104.076 121.576 79.8486H165.437C184.331 127.423 165.023 172.175 153.007 188.605H132.764Z" fill="#F5E8CF"/>
<path d="M101.446 116.266C96.3437 106.772 102.39 95.542 106.051 91.1138C108 91.2909 111.862 91.8577 111.72 92.7079C111.543 93.7707 114.732 101.564 124.121 102.096C133.51 102.627 135.281 104.93 139.356 107.409C142.615 109.393 141.541 114.613 140.596 116.974C141.446 122.076 139.061 124.059 137.761 124.414C137.939 128.133 135.281 129.196 131.738 130.436C128.904 131.428 123.944 129.078 121.818 127.779C117.153 127.897 106.548 125.76 101.446 116.266Z" fill="#9B7963"/>
<path d="M184.583 116.694C189.481 107.172 183.676 95.9095 180.161 91.4683C178.29 91.6459 174.582 92.2144 174.718 93.0671C174.888 94.133 171.827 101.95 162.812 102.482C153.798 103.015 152.097 105.325 148.185 107.812C145.056 109.802 146.087 115.036 146.995 117.405C146.178 122.521 148.469 124.511 149.716 124.866C149.546 128.597 152.097 129.663 155.499 130.906C158.22 131.901 162.982 129.544 165.023 128.242C169.502 128.36 179.684 126.216 184.583 116.694Z" fill="#9B7963"/>
<path d="M88.3264 190.092C85.9057 187.554 82.5521 181.13 88.5036 175.745" stroke="#5A4335" stroke-width="0.247978" stroke-linecap="round"/>
<path d="M132.717 110.669C134.37 110.964 138.244 112.617 140.511 116.868" stroke="#5A4335" stroke-width="0.247978" stroke-linecap="round"/>
<path d="M134.383 118.462C135.505 119.407 137.748 121.899 137.748 124.308" stroke="#5A4335" stroke-width="0.247978" stroke-linecap="round"/>
<path d="M128.006 122.501C129.541 123.623 132.328 126.787 131.194 130.472" stroke="#5A4335" stroke-width="0.247978" stroke-linecap="round"/>
<path d="M147.066 117.329C147.657 115.498 150.149 111.802 155.392 111.661" stroke="#5A4335" stroke-width="0.247978" stroke-linecap="round"/>
<path d="M149.688 124.733C150.043 123.316 151.46 120.198 154.294 119.064" stroke="#5A4335" stroke-width="0.247978" stroke-linecap="round"/>
<path d="M154.324 130.33C154.147 128.618 154.678 124.627 158.22 122.359" stroke="#5A4335" stroke-width="0.247978" stroke-linecap="round"/>
<path d="M164.676 128.346L172.292 122.324" stroke="#5A4335" stroke-width="0.247978" stroke-linecap="round"/>
</g>
<ellipse cx="98.9671" cy="36.2594" rx="11.8968" ry="10.753" fill="#9B7963"/>
<ellipse cx="98.9664" cy="36.2594" rx="8.49768" ry="7.68075" fill="#3B2F1E"/>
<ellipse cx="183.945" cy="36.2594" rx="11.8968" ry="10.753" fill="#9B7963"/>
<ellipse cx="183.944" cy="36.2594" rx="8.49768" ry="7.68075" fill="#3B2F1E"/>
<path d="M111.916 19.3494C102.098 26.6725 97.153 40.2276 95.6504 47.1064C95.4848 47.8647 95.2274 48.5976 94.8498 49.2758L93.3161 52.0297C92.729 53.0838 92.4209 54.2706 92.4209 55.4771V60.8178C93.2207 67.5676 97.0864 73.4438 98.9192 75.5381C105.717 85.0166 123.191 89.4208 131.078 90.438C153.405 92.4127 161.57 89.1814 170.234 86.1296C178.899 83.0778 186.563 75.8972 189.896 69.2551C192.316 64.4303 191.715 56.971 190.96 52.9515C190.821 52.2131 190.53 51.5147 190.14 50.8724L188.833 48.7182C188.218 47.7052 187.894 46.5511 187.701 45.382C186.33 37.0571 178.506 25.4249 174.152 19.8783C173.875 19.5246 173.558 19.1982 173.211 18.9124C153.399 2.60058 124.799 9.74026 111.916 19.3494Z" fill="#9B7963"/>
<path fill-rule="evenodd" clip-rule="evenodd" d="M93.625 65.3452C98.6847 57.4339 108.384 52.0825 119.518 52.0825C126.256 52.0825 132.469 54.0427 137.446 57.3443C141.332 59.9218 147.071 59.9218 150.956 57.3443C155.933 54.0427 162.146 52.0825 168.885 52.0825C179.168 52.0825 188.227 56.6474 193.538 63.5779C187.164 81.7877 167.061 95.0864 143.248 95.0864C120.211 95.0864 100.647 82.6418 93.625 65.3452Z" fill="#F5E8CF"/>
<path d="M139.005 3.15143C138.963 1.44801 140.489 0.0373964 142.413 0.000728986C144.337 -0.0359384 145.93 1.31523 145.971 3.01864L146.03 5.43601L146.955 3.18502C147.614 1.58396 149.613 0.758449 151.421 1.34119C153.229 1.92392 154.162 3.69424 153.503 5.2953L150.326 13.0259C149.668 14.6269 147.668 15.4525 145.86 14.8697C145.281 14.6831 144.792 14.3748 144.416 13.9893C143.928 14.2367 143.365 14.3827 142.763 14.3942C142.27 14.4036 141.798 14.3217 141.369 14.1661C141.048 15.0362 140.295 15.7715 139.248 16.1088C137.44 16.6916 135.44 15.8661 134.782 14.265L131.605 6.53441C130.946 4.93335 131.879 3.16304 133.687 2.5803C135.495 1.99756 137.495 2.82307 138.153 4.42413L139.091 6.70738L139.005 3.15143Z" fill="#9B7963"/>
<path d="M143.806 58.1729V68.1345C143.806 70.5073 145.729 72.4309 148.102 72.4309H149.507C151.88 72.4309 153.804 70.5073 153.804 68.1345V67.873" stroke="#3B2F1E" stroke-width="0.885637" stroke-linecap="round" stroke-linejoin="round"/>
<path d="M143.806 58.1729V68.1345C143.806 70.5073 141.882 72.4309 139.509 72.4309H138.104C135.731 72.4309 133.808 70.5073 133.808 68.1345V67.873" stroke="#3B2F1E" stroke-width="0.885637" stroke-linecap="round" stroke-linejoin="round"/>
<path d="M153.592 58.7831C153.592 61.3237 149.163 63.3832 143.7 63.3832C138.237 63.3832 133.808 61.3237 133.808 58.7831C133.808 56.2426 138.237 53.9971 143.7 53.9971C149.163 53.9971 153.592 56.2426 153.592 58.7831Z" fill="#3B2F1E"/>
<ellipse cx="176.063" cy="67.4383" rx="10.8327" ry="8.83286" fill="#FFCEB9"/>
<ellipse cx="109.409" cy="67.4383" rx="10.8327" ry="8.83286" fill="#FFCEB9"/>
<ellipse cx="114.286" cy="52.077" rx="7.14138" ry="5.76056" fill="#3B2F1E"/>
<ellipse cx="170.467" cy="52.077" rx="7.14138" ry="5.76056" fill="#3B2F1E"/>
<path d="M109.75 63.9405L88.8024 62.4048M110.477 67.3765L88.8022 68.5495M111.471 70.6688L89.7542 74.6942" stroke="#3B2F1E" stroke-width="0.70851" stroke-linecap="round"/>
<path d="M175.743 63.941L196.691 62.4048M175.016 67.3769L196.691 68.5494M174.022 70.6692L195.739 74.6941" stroke="#3B2F1E" stroke-width="0.70851" stroke-linecap="round"/>
<ellipse cx="1.67919" cy="1.51008" rx="1.67919" ry="1.51008" transform="matrix(-0.906513 -0.422179 0.582022 -0.813173 118.762 52.4946)" fill="white"/>
<ellipse cx="0.896007" cy="0.916841" rx="0.896007" ry="0.916841" transform="matrix(-0.831948 -0.554854 0.44707 -0.894499 125.652 61.2407)" fill="black"/>
<ellipse cx="0.896007" cy="0.916841" rx="0.896007" ry="0.916841" transform="matrix(-0.831948 -0.554854 0.44707 -0.894499 122.148 62.9956)" fill="black"/>
<ellipse cx="0.896007" cy="0.916841" rx="0.896007" ry="0.916841" transform="matrix(-0.831948 -0.554854 0.44707 -0.894499 119.11 64.7505)" fill="black"/>
<ellipse cx="0.896007" cy="0.916841" rx="0.896007" ry="0.916841" transform="matrix(-0.831948 -0.554854 0.44707 -0.894499 128.226 62.9956)" fill="black"/>
<ellipse cx="0.896007" cy="0.916841" rx="0.896007" ry="0.916841" transform="matrix(-0.831948 -0.554854 0.44707 -0.894499 125.187 64.7505)" fill="black"/>
<ellipse cx="0.896084" cy="0.917047" rx="0.896084" ry="0.917047" transform="matrix(0.831876 -0.554962 -0.44697 -0.894549 159.233 61.4414)" fill="black"/>
<ellipse cx="0.896084" cy="0.917047" rx="0.896084" ry="0.917047" transform="matrix(0.831876 -0.554962 -0.44697 -0.894549 162.737 63.1968)" fill="black"/>
<ellipse cx="0.896084" cy="0.917047" rx="0.896084" ry="0.917047" transform="matrix(0.831843 -0.555012 -0.446923 -0.894572 165.776 64.9526)" fill="black"/>
<ellipse cx="0.896084" cy="0.917047" rx="0.896084" ry="0.917047" transform="matrix(0.831876 -0.554962 -0.44697 -0.894549 156.659 63.1968)" fill="black"/>
<ellipse cx="0.896084" cy="0.917047" rx="0.896084" ry="0.917047" transform="matrix(0.831876 -0.554962 -0.44697 -0.894549 159.698 64.9526)" fill="black"/>
<path d="M114.792 43.9203C114.808 43.4953 116.363 42.5004 117.918 42.5254C119.473 42.5504 120.438 43.5858 120.423 44.0108C120.407 44.4357 119.134 44.76 117.579 44.7351C116.024 44.7101 114.776 44.3453 114.792 43.9203Z" fill="white"/>
<path d="M164.175 43.9203C164.19 43.4953 165.746 42.5004 167.301 42.5254C168.856 42.5504 169.821 43.5858 169.806 44.0108C169.79 44.4357 168.517 44.76 166.962 44.7351C165.407 44.7101 164.159 44.3453 164.175 43.9203Z" fill="white"/>
<ellipse cx="1.67919" cy="1.51008" rx="1.67919" ry="1.51008" transform="matrix(-0.906513 -0.422179 0.582022 -0.813173 173.987 52.4946)" fill="white"/>
<path d="M204.464 178.261C211.437 176.903 225.159 169.404 224.263 150.275C224.325 146.378 223.002 136.884 215.979 130.082" stroke="#5A4335" stroke-width="0.70851" stroke-linecap="round"/>
<path d="M71.7915 163.613C71.7915 164.318 71.7915 165.023 71.7915 165.728C71.7915 166.142 71.7284 166.636 71.9012 167.024C72.2428 167.793 72.4947 168.555 72.9086 169.323C73.3145 170.077 73.6845 170.857 74.0357 171.647C74.2216 172.066 74.5567 172.379 74.7738 172.77C74.9301 173.051 75.1981 173.53 75.4719 173.667" stroke="#3B92B9" stroke-width="1.06276" stroke-linecap="round"/>
<path d="M76.1825 174.833C76.0799 174.833 75.8802 174.993 75.99 175.102C76.0279 175.14 76.2215 175.122 76.2342 175.065C76.2445 175.019 76.2342 174.958 76.2342 174.91" stroke="#3B92B9" stroke-width="1.06276" stroke-linecap="round"/>
<path d="M97.7988 197.252C98.4263 197.315 99.0281 197.407 99.6644 197.407C100.555 197.407 101.456 197.409 102.346 197.445C103.037 197.474 103.729 197.47 104.421 197.47C104.858 197.47 105.276 197.469 105.707 197.383C105.902 197.344 106.101 197.338 106.297 197.297C106.518 197.25 106.735 197.145 106.962 197.129C107.156 197.116 107.371 197.094 107.54 197.01C107.632 196.964 107.744 196.992 107.834 196.941C107.883 196.913 107.947 196.878 108.007 196.878" stroke="#3B92B9" stroke-width="1.06276" stroke-linecap="round"/>
<path d="M113.521 195.359C115.954 195.359 118.409 195.328 120.831 195.328" stroke="#3B92B9" stroke-width="1.06276" stroke-linecap="round"/>
<path d="M210.568 186.03C210.603 186.452 210.786 186.847 210.831 187.269C210.867 187.607 210.91 188.088 210.778 188.407C210.636 188.751 210.486 189.07 210.293 189.385C210.175 189.577 210.022 189.828 209.843 189.974C209.634 190.145 209.521 190.391 209.28 190.529C209.201 190.574 209.1 190.619 209.032 190.679C208.993 190.714 208.808 190.829 208.769 190.829" stroke="#3B92B9" stroke-width="1.06276" stroke-linecap="round"/>
<path d="M207.443 191.679C207.443 191.869 207.666 191.654 207.519 191.654" stroke="#3B92B9" stroke-width="1.06276" stroke-linecap="round"/>
<path d="M210.618 180.946C210.618 180.778 210.62 180.611 210.618 180.443C210.617 180.371 210.593 180.309 210.581 180.239C210.573 180.187 210.589 180.126 210.566 180.077C210.545 180.031 210.478 179.862 210.536 179.825C210.737 179.694 210.985 179.561 211.216 179.49C211.345 179.45 211.458 179.378 211.581 179.329C211.725 179.271 211.882 179.228 212.03 179.186" stroke="#3B92B9" stroke-width="1.06276" stroke-linecap="round"/>
<path d="M229.937 159.751C229.937 159.929 230.456 160.148 230.585 160.277C230.708 160.4 230.851 160.494 230.932 160.647C231.11 160.986 231.168 161.446 231.172 161.828C231.176 162.143 231.203 162.467 231.111 162.767C231.065 162.916 230.998 163.047 230.949 163.188C230.903 163.323 230.771 163.478 230.771 163.614" stroke="#3B92B9" stroke-width="1.06276" stroke-linecap="round"/>
<path d="M230.274 164.869C230.195 164.896 230.08 165.208 230.061 165.279C230.025 165.414 229.925 165.591 229.849 165.712C229.764 165.846 229.63 166.078 229.494 166.145" stroke="#3B92B9" stroke-width="1.06276" stroke-linecap="round"/>
<path d="M169.151 195.627C169.263 195.546 169.47 195.587 169.597 195.587C169.974 195.587 170.352 195.587 170.729 195.587C171.232 195.587 171.734 195.587 172.237 195.587C172.724 195.587 173.212 195.587 173.7 195.587C174.016 195.587 174.316 195.689 174.626 195.706C174.767 195.714 174.913 195.806 175.053 195.834C175.244 195.872 175.45 195.865 175.637 195.907C176.24 196.041 176.92 195.984 177.544 195.984C178.065 195.984 178.587 195.984 179.108 195.984" stroke="#3B92B9" stroke-width="1.06276" stroke-linecap="round"/>
<path d="M73.4277 187.244C73.484 187.314 73.4888 187.499 73.5152 187.587C73.5687 187.765 73.6211 187.929 73.7013 188.098C73.8056 188.319 73.8741 188.545 74.0413 188.733C74.1792 188.888 74.3156 189.06 74.4282 189.235C74.5717 189.458 74.7443 189.669 74.9009 189.882C75.1284 190.193 75.346 190.536 75.6278 190.799C75.8175 190.976 75.928 191.23 76.1086 191.411C76.1908 191.493 76.2662 191.679 76.3579 191.731C76.6839 191.917 76.7742 192.414 77.0994 192.576" stroke="#3B92B9" stroke-width="1.06276" stroke-linecap="round"/>
<path d="M202.945 197.09C202.087 197.499 201.284 197.951 200.542 198.439C198.399 197.647 195.922 197.196 193.332 197.196C191.211 197.196 189.173 197.485 187.328 198.021C192.283 192.523 201.279 179.454 191.022 165.333C179.722 149.777 188.811 136.02 193.607 130.499C193.886 130.179 194.665 130.38 194.499 130.73C191.984 136.034 191.574 148.48 202.945 163.194C213.174 176.43 208.242 188.977 205.911 195.917C204.879 196.251 203.887 196.641 202.945 197.09Z" fill="#017B4E"/>
<path d="M188.965 196.328C187.982 196.769 187.064 197.257 186.215 197.783C183.762 196.928 180.927 196.442 177.963 196.442C175.535 196.442 173.202 196.754 171.091 197.332C176.762 191.403 187.058 177.309 175.319 162.081C162.386 145.306 172.788 130.47 178.277 124.517C178.597 124.171 179.489 124.388 179.298 124.766C176.42 130.485 175.95 143.907 188.965 159.775C200.672 174.049 195.028 187.578 192.359 195.063C191.179 195.423 190.044 195.844 188.965 196.328Z" fill="#02905D"/>
<path d="M211.069 197.895C211.639 193.26 213.207 187.842 216.708 182.17C225.309 168.237 213.401 149.975 210.161 145.464C209.981 145.214 209.492 145.328 209.518 145.615C209.895 149.769 210.505 164.113 202.93 177.88C199.603 183.929 200.223 190.4 202.247 196.074C205.38 196.186 208.375 196.816 211.069 197.895Z" fill="#09A76D"/>
<defs>
<filter id="filter0_d_358_53201" x="0" y="152.046" width="280.457" height="74.9541" filterUnits="userSpaceOnUse" color-interpolation-filters="sRGB">
<feFlood flood-opacity="0" result="BackgroundImageFix"/>
<feColorMatrix in="SourceAlpha" type="matrix" values="0 0 0 0 0 0 0 0 0 0 0 0 0 0 0 0 0 0 127 0" result="hardAlpha"/>
<feOffset dy="4"/>
<feGaussianBlur stdDeviation="2"/>
<feComposite in2="hardAlpha" operator="out"/>
<feColorMatrix type="matrix" values="0 0 0 0 0.145687 0 0 0 0 0.224068 0 0 0 0 0.23488 0 0 0 1 0"/>
<feBlend mode="normal" in2="BackgroundImageFix" result="effect1_dropShadow_358_53201"/>
<feBlend mode="normal" in="SourceGraphic" in2="effect1_dropShadow_358_53201" result="shape"/>
</filter>
<filter id="filter1_d_358_53201" x="5.54199" y="153.463" width="276.457" height="57.1382" filterUnits="userSpaceOnUse" color-interpolation-filters="sRGB">
<feFlood flood-opacity="0" result="BackgroundImageFix"/>
<feColorMatrix in="SourceAlpha" type="matrix" values="0 0 0 0 0 0 0 0 0 0 0 0 0 0 0 0 0 0 127 0" result="hardAlpha"/>
<feOffset dy="2"/>
<feGaussianBlur stdDeviation="1"/>
<feComposite in2="hardAlpha" operator="out"/>
<feColorMatrix type="matrix" values="0 0 0 0 0.768627 0 0 0 0 0.92549 0 0 0 0 0.996078 0 0 0 0.2 0"/>
<feBlend mode="normal" in2="BackgroundImageFix" result="effect1_dropShadow_358_53201"/>
<feBlend mode="normal" in="SourceGraphic" in2="effect1_dropShadow_358_53201" result="shape"/>
</filter>
<filter id="filter2_d_358_53201" x="72.6318" y="72.8687" width="155.867" height="126.181" filterUnits="userSpaceOnUse" color-interpolation-filters="sRGB">
<feFlood flood-opacity="0" result="BackgroundImageFix"/>
<feColorMatrix in="SourceAlpha" type="matrix" values="0 0 0 0 0 0 0 0 0 0 0 0 0 0 0 0 0 0 127 0" result="hardAlpha"/>
<feOffset dy="4"/>
<feGaussianBlur stdDeviation="2"/>
<feComposite in2="hardAlpha" operator="out"/>
<feColorMatrix type="matrix" values="0 0 0 0 0.160482 0 0 0 0 0.116444 0 0 0 0 0.0879489 0 0 0 0.5 0"/>
<feBlend mode="normal" in2="BackgroundImageFix" result="effect1_dropShadow_358_53201"/>
<feBlend mode="normal" in="SourceGraphic" in2="effect1_dropShadow_358_53201" result="shape"/>
</filter>
</defs>
</svg>
