<svg width="90" height="82" viewBox="0 0 90 82" fill="none" xmlns="http://www.w3.org/2000/svg">
<path d="M20.7349 34.3781C29.2468 35.9291 37.3088 45.9208 37.3088 45.9208C37.3088 45.9208 26.4728 52.4689 17.9609 50.9179C9.44896 49.3669 1.38699 39.3752 1.38699 39.3752C1.38699 39.3752 12.223 32.827 20.7349 34.3781Z" fill="#34876F"/>
<path d="M46.9586 23.8335C44.9504 32.5937 35.4529 40.5082 35.4529 40.5082C35.4529 40.5082 30.4139 28.9733 32.4221 20.2131C34.4302 11.4529 43.9277 3.53846 43.9277 3.53846C43.9277 3.53846 48.9667 15.0733 46.9586 23.8335Z" fill="#34876F"/>
<path d="M74.2501 30.0247C74.4667 29.8342 74.6767 29.6313 74.8792 29.4162C78.3404 25.7383 78.305 19.8519 74.8003 16.2684C71.2955 12.685 65.6485 12.7615 62.1874 16.4393C61.8513 16.7964 61.5483 17.1743 61.2782 17.5688C60.4187 14.0738 57.7049 11.2513 54.1489 10.6048C49.3384 9.73036 44.8085 13.1693 44.0309 18.2859C43.6163 21.0136 44.352 23.6674 45.8581 25.6834C45.4921 25.705 45.1237 25.7495 44.7542 25.8182C39.8614 26.727 36.65 31.5141 37.5814 36.5104C38.5128 41.5067 43.2343 44.8203 48.1272 43.9114C48.3913 43.8624 48.6505 43.802 48.9044 43.7309C48.8411 43.9969 48.7882 44.2682 48.7462 44.5443C47.9687 49.6609 51.2379 54.5176 56.0484 55.3921C60.8588 56.2666 65.3888 52.8276 66.1663 47.7111C66.2354 47.2567 66.2725 46.8043 66.2795 46.3567C68.1383 47.5575 70.4232 48.0782 72.7468 47.6465C77.6397 46.7377 80.8511 41.9506 79.9196 36.9543C79.3111 33.6901 77.0849 31.1442 74.2501 30.0247Z" fill="#FFA787"/>
<g style="mix-blend-mode:multiply">
<ellipse cx="6.84736" cy="6.85093" rx="6.84736" ry="6.85093" transform="matrix(0.349307 0.953634 -0.914425 0.363906 63.8306 23.7646)" fill="#FEB1AA" fill-opacity="0.5"/>
</g>
<path d="M48.8166 50.986C49.0223 50.805 49.2218 50.6123 49.4141 50.4079C52.7019 46.9143 52.6684 41.3227 49.3392 37.9188C46.01 34.5148 40.6459 34.5875 37.3581 38.0812C37.0389 38.4203 36.751 38.7793 36.4944 39.154C35.678 35.8341 33.1001 33.153 29.7223 32.5389C25.1528 31.7083 20.8497 34.9749 20.1111 39.8352C19.7174 42.4262 20.4161 44.9472 21.8468 46.8622C21.4992 46.8827 21.1492 46.925 20.7983 46.9902C16.1505 47.8535 13.0999 52.4008 13.9847 57.1468C14.8695 61.8928 19.3545 65.0404 24.0023 64.1771C24.2531 64.1305 24.4993 64.0731 24.7405 64.0056C24.6804 64.2583 24.6301 64.5159 24.5903 64.7783C23.8516 69.6385 26.9572 74.252 31.5266 75.0826C36.0961 75.9133 40.3991 72.6466 41.1377 67.7864C41.2033 67.3547 41.2386 66.9251 41.2452 66.4998C43.0109 67.6405 45.1813 68.1351 47.3885 67.7251C52.0363 66.8617 55.0868 62.3145 54.2021 57.5684C53.6241 54.4678 51.5094 52.0494 48.8166 50.986Z" fill="#FFCE05"/>
<g style="mix-blend-mode:multiply">
<ellipse cx="6.50435" cy="6.50774" rx="6.50435" ry="6.50774" transform="matrix(0.349307 0.953634 -0.914425 0.363906 38.9204 45.0396)" fill="#FED402"/>
</g>
</svg>
