<svg width="126" height="43" viewBox="0 0 126 43" fill="none" xmlns="http://www.w3.org/2000/svg">
<path d="M0 9.40797V7.35291C0 5.98979 0.934587 4.80444 2.26009 4.48641L9.32287 2.58856C11.922 1.61252 20.8587 0.555165 25.0022 0.148491C29.4094 -0.5022 38.2332 1.1426 42.0942 2.04634C47.6256 3.5906 50.4345 4.60516 51.4171 5.03269C51.5981 5.11142 51.8041 5.11404 51.9821 5.02867C53.5641 4.05264 56.9731 3.44713 58.4798 3.26639C61.8583 2.50349 65.4844 2.80275 67.3988 3.13187C67.858 3.21082 68.3201 3.26989 68.7824 3.32835C70.7877 3.58191 72.9825 4.4589 74.0226 4.96154C74.1053 5.00148 74.2034 4.98622 74.2697 4.92267C74.29 4.90315 74.3131 4.88807 74.3394 4.87779C76.2709 4.12053 79.9143 3.12809 81.5045 2.72414C86.9287 0.663621 95.1592 0.148491 98.5964 0.148491C108.202 0.555173 110.321 1.5041 115.123 2.31746C117.294 2.68513 119.838 3.30093 122.005 3.8812C124.383 4.51774 125.962 6.72352 125.906 9.18422L125.894 9.7261C125.871 10.7176 125.489 11.6671 124.817 12.3972L123.923 13.3694C123.805 13.4978 123.74 13.6658 123.74 13.8401C123.627 16.6598 123.41 18.8107 123.316 19.5337C123.316 23.4378 121.15 28.6614 120.067 30.7852C118.937 33.4964 115.641 36.8854 114.135 38.241C112.891 39.2171 109.379 40.9071 107.778 41.63C104.953 42.6061 101.516 42.8501 100.15 42.8501C97.5511 42.9585 93.3229 42.6242 91.5336 42.4434C87.1265 41.7927 83.2937 40.0937 81.9282 39.3255C79.9128 38.4874 78.097 36.8411 76.7481 35.2925C75.2636 33.5882 73.8806 31.7035 73.0663 29.595C72.0799 27.0408 71.1748 23.448 70.5842 20.7143C70.3174 19.4796 70.2359 18.2131 70.0319 16.9665C70.01 16.8327 69.9869 16.7021 69.9631 16.5756C69.7883 15.6476 69.6383 14.6858 69.1705 13.8655C68.3202 12.3746 66.6108 11.4491 65.6839 11.1289C63.8111 10.3752 62.1509 10.4661 60.8674 10.8589C59.1097 11.3969 57.4713 12.5962 56.6557 14.2435C56.1552 15.2544 55.9636 16.3257 55.9372 16.958C55.9372 18.4763 54.5247 24.0975 53.8184 26.7184C53.4794 28.3451 51.3229 32.186 50.287 33.9031C47.9139 37.4819 43.5538 39.8226 41.6704 40.5456C38.0543 42.2807 30.935 42.8953 27.8274 42.9857C21.0471 43.2025 15.6794 40.9071 13.843 39.7322C10.3186 37.9109 7.52282 33.7719 5.99042 30.8235C5.33442 29.5613 4.63729 28.3073 4.14186 26.9739C2.81762 23.4097 2.34787 17.75 2.26947 14.6009C2.26163 14.2859 2.13208 13.9884 1.90473 13.7702C1.8592 13.7265 1.81726 13.6792 1.77931 13.6288L1.11633 12.7478C0.391809 11.7851 0 10.6129 0 9.40797Z" fill="black"/>
<path d="M8.99043 13.2849C10.3465 7.97089 18.5016 6.55202 22.4097 6.50684C15.6612 15.5738 14.3235 28.5264 14.4968 33.9496C12.6867 34.1056 10.5425 27.8295 9.69671 24.672C7.88863 20.5509 8.47249 15.3635 8.99043 13.2849Z" fill="white"/>
<path d="M77.926 13.2849C79.282 7.97089 87.4372 6.55202 91.3453 6.50684C84.5968 15.5738 83.2591 28.5264 83.4324 33.9496C81.6223 34.1056 79.4781 27.8295 78.6323 24.672C76.8242 20.5509 77.408 15.3635 77.926 13.2849Z" fill="white"/>
</svg>
