<svg width="215" height="165" viewBox="0 0 215 165" fill="none" xmlns="http://www.w3.org/2000/svg">
<path d="M55.3569 58.714C55.5129 58.546 55.7289 58.516 56.0049 58.624C56.1489 58.684 56.2389 58.786 56.2749 58.93C56.3109 59.074 56.3409 59.416 56.3649 59.956C56.3769 60.052 56.3829 60.172 56.3829 60.316C56.3829 60.448 56.3829 60.538 56.3829 60.586C56.3829 60.622 56.3889 60.682 56.4009 60.766C56.4249 60.85 56.4369 60.904 56.4369 60.928C56.4369 60.94 56.4609 60.97 56.5089 61.018C56.5569 61.054 56.5869 61.072 56.5989 61.072C56.6109 61.072 56.6589 61.078 56.7429 61.09C56.8389 61.102 56.9109 61.102 56.9589 61.09C57.0069 61.078 57.1029 61.072 57.2469 61.072C57.3909 61.072 57.5109 61.072 57.6069 61.072C58.3269 61.048 58.7829 61.072 58.9749 61.144C59.1669 61.204 59.2569 61.366 59.2449 61.63C59.2329 61.858 59.1369 62.002 58.9569 62.062C58.7889 62.122 58.3569 62.17 57.6609 62.206C56.9649 62.242 56.5929 62.266 56.5449 62.278C56.4969 62.302 56.4669 62.356 56.4549 62.44C56.4549 62.512 56.4549 62.836 56.4549 63.412C56.4549 64.048 56.4249 64.438 56.3649 64.582C56.3049 64.714 56.1309 64.78 55.8429 64.78C55.5669 64.78 55.3929 64.708 55.3209 64.564C55.2609 64.408 55.2249 64.024 55.2129 63.412C55.2129 63.304 55.2069 63.088 55.1949 62.764C55.1949 62.428 55.1889 62.092 55.1769 61.756C55.1769 61.42 55.1769 61.12 55.1769 60.856C55.1529 59.944 55.1469 59.392 55.1589 59.2C55.1829 58.996 55.2489 58.834 55.3569 58.714ZM50.2629 59.164C50.8869 59.008 51.4869 59.164 52.0629 59.632C52.6509 60.088 52.9449 60.646 52.9449 61.306C52.9449 61.846 52.7529 62.266 52.3689 62.566C51.9849 62.866 51.4329 63.016 50.7129 63.016C50.2569 63.028 49.8609 62.884 49.5249 62.584C49.2009 62.284 49.0029 61.918 48.9309 61.486C48.8709 61.054 48.9429 60.598 49.1469 60.118C49.3989 59.602 49.7709 59.284 50.2629 59.164ZM51.0549 60.496C50.8509 60.4 50.6769 60.394 50.5329 60.478C50.3889 60.55 50.2809 60.706 50.2089 60.946C50.0169 61.57 50.2509 61.882 50.9109 61.882C51.1389 61.882 51.3369 61.816 51.5049 61.684C51.6849 61.54 51.7749 61.384 51.7749 61.216C51.7749 61.144 51.6849 61.024 51.5049 60.856C51.3369 60.688 51.1869 60.568 51.0549 60.496ZM51.9729 66.49C52.0689 66.442 52.2069 66.43 52.3869 66.454C52.5789 66.466 52.6989 66.52 52.7469 66.616C52.8069 66.7 52.8489 66.898 52.8729 67.21C52.9329 68.302 52.9929 68.95 53.0529 69.154C53.1249 69.346 53.3049 69.43 53.5929 69.406C53.8929 69.382 54.3189 69.358 54.8709 69.334C55.4829 69.31 55.9809 69.28 56.3649 69.244C56.7729 69.208 57.0489 69.226 57.1929 69.298C57.3369 69.358 57.4269 69.502 57.4629 69.73C57.5109 69.994 57.4509 70.174 57.2829 70.27C57.1269 70.378 56.8029 70.444 56.3109 70.468C54.0789 70.588 52.8069 70.612 52.4949 70.54C52.2309 70.492 52.0509 70.312 51.9549 70C51.8589 69.7 51.7749 69.088 51.7029 68.164C51.6669 67.576 51.6669 67.174 51.7029 66.958C51.7389 66.73 51.8289 66.574 51.9729 66.49ZM67.3453 57.886C67.4293 57.85 67.5493 57.844 67.7053 57.868C67.8733 57.892 67.9873 57.934 68.0473 57.994C68.1553 58.09 68.2213 58.228 68.2453 58.408C68.2693 58.576 68.2933 59.032 68.3173 59.776C68.3533 61.396 68.3713 62.344 68.3713 62.62C68.4193 63.172 68.4253 63.586 68.3893 63.862C68.3533 64.138 68.3053 64.312 68.2453 64.384C68.1853 64.444 68.0593 64.504 67.8673 64.564C67.7713 64.588 67.6573 64.57 67.5253 64.51C67.3933 64.45 67.3033 64.384 67.2553 64.312C67.2193 64.24 67.1953 63.928 67.1833 63.376L67.1473 62.566H66.5173C66.0973 62.566 65.7373 62.578 65.4373 62.602C65.0053 62.638 64.6873 62.566 64.4833 62.386C64.2793 62.206 64.2613 61.984 64.4293 61.72C64.5133 61.588 64.6273 61.51 64.7713 61.486C64.9153 61.45 65.2873 61.414 65.8873 61.378C65.9233 61.378 65.9773 61.372 66.0493 61.36C66.5893 61.336 66.9013 61.306 66.9853 61.27C67.0813 61.234 67.1233 61.114 67.1113 60.91C67.1113 60.886 67.1113 60.868 67.1113 60.856C67.1113 60.64 67.0753 60.514 67.0033 60.478C66.9433 60.442 66.7573 60.442 66.4453 60.478C65.6293 60.55 65.1013 60.556 64.8613 60.496C64.6213 60.424 64.5313 60.244 64.5913 59.956C64.6273 59.74 64.7533 59.59 64.9693 59.506C65.1853 59.41 65.5453 59.35 66.0493 59.326C66.5653 59.302 66.8653 59.266 66.9493 59.218C67.0333 59.158 67.0753 58.966 67.0753 58.642C67.0753 58.402 67.0933 58.228 67.1293 58.12C67.1653 58.012 67.2373 57.934 67.3453 57.886ZM60.4333 58.948C60.5773 58.888 60.7333 58.888 60.9013 58.948C61.0813 59.008 61.2073 59.11 61.2793 59.254C61.3393 59.374 61.3693 59.626 61.3693 60.01C61.3693 60.418 61.3873 60.934 61.4233 61.558C61.4593 62.17 61.4893 62.494 61.5133 62.53C61.5493 62.566 61.9153 62.584 62.6113 62.584C63.2593 62.584 63.6673 62.62 63.8353 62.692C64.0033 62.752 64.0873 62.902 64.0873 63.142C64.0873 63.382 64.0093 63.544 63.8533 63.628C63.6973 63.7 63.3733 63.748 62.8813 63.772C62.4373 63.808 62.0593 63.814 61.7473 63.79C61.4473 63.754 61.2013 63.73 61.0093 63.718C60.8293 63.694 60.6853 63.628 60.5773 63.52C60.4813 63.4 60.4153 63.274 60.3793 63.142C60.3433 62.998 60.3133 62.794 60.2893 62.53C60.1813 61.09 60.1333 60.16 60.1453 59.74C60.1693 59.308 60.2653 59.044 60.4333 58.948ZM64.1953 66.202C64.3873 66.106 64.5913 66.076 64.8073 66.112C65.0353 66.148 65.3173 66.268 65.6533 66.472C65.8693 66.604 66.1633 66.838 66.5353 67.174C67.0873 67.678 67.3813 68.272 67.4173 68.956C67.4533 69.64 67.2133 70.228 66.6973 70.72C66.2893 71.116 65.8213 71.332 65.2933 71.368C64.7773 71.416 64.2913 71.284 63.8353 70.972C63.3913 70.672 63.0733 70.24 62.8813 69.676C62.6893 69.124 62.7313 68.476 63.0073 67.732C63.2953 66.976 63.6913 66.466 64.1953 66.202ZM64.9693 67.75C64.7413 67.642 64.5793 67.612 64.4833 67.66C64.3993 67.708 64.2913 67.882 64.1593 68.182C64.0153 68.578 63.9673 68.938 64.0153 69.262C64.0753 69.574 64.2313 69.814 64.4833 69.982C64.7353 70.138 65.0173 70.156 65.3293 70.036C65.9653 69.784 66.2473 69.436 66.1753 68.992C66.1033 68.548 65.7013 68.134 64.9693 67.75ZM70.5805 58.696C70.8445 58.648 71.0485 58.69 71.1925 58.822C71.3485 58.954 71.4265 59.164 71.4265 59.452C71.4265 60.136 71.4865 60.994 71.6065 62.026C71.6785 62.758 71.7265 63.484 71.7505 64.204C71.7745 64.912 71.7625 65.356 71.7145 65.536C71.6665 65.716 71.5345 65.842 71.3185 65.914C71.1025 65.986 70.9045 65.968 70.7245 65.86C70.5685 65.776 70.4725 65.638 70.4365 65.446C70.4125 65.254 70.3825 64.72 70.3465 63.844C70.3105 62.764 70.2805 62.086 70.2565 61.81C70.1845 61.138 70.1365 60.622 70.1125 60.262C70.0885 59.89 70.0885 59.584 70.1125 59.344C70.1365 59.104 70.1845 58.942 70.2565 58.858C70.3285 58.774 70.4365 58.72 70.5805 58.696ZM71.4085 68.578C71.8405 68.434 72.1705 68.464 72.3985 68.668C72.6385 68.86 72.7285 69.196 72.6685 69.676C72.6205 70.024 72.4825 70.264 72.2545 70.396C72.0385 70.528 71.7685 70.534 71.4445 70.414C71.2165 70.33 71.0545 70.156 70.9585 69.892C70.8745 69.616 70.8685 69.346 70.9405 69.082C71.0245 68.818 71.1805 68.65 71.4085 68.578ZM81.5451 59.794C81.8331 59.71 82.1751 59.758 82.5711 59.938C82.9671 60.106 83.3571 60.376 83.7411 60.748C83.9691 60.976 84.1011 61.282 84.1371 61.666C84.1851 62.05 84.1251 62.47 83.9571 62.926C83.8611 63.19 83.6571 63.424 83.3451 63.628C83.0451 63.832 82.7151 63.946 82.3551 63.97C82.1631 63.994 81.8691 63.982 81.4731 63.934C81.0891 63.886 80.8311 63.832 80.6991 63.772C80.4111 63.652 80.1891 63.4 80.0331 63.016C79.8771 62.62 79.8471 62.23 79.9431 61.846C80.0871 61.246 80.2851 60.784 80.5371 60.46C80.8011 60.124 81.1371 59.902 81.5451 59.794ZM82.1031 61.108C81.8271 61.024 81.6171 61.072 81.4731 61.252C81.3291 61.42 81.2271 61.744 81.1671 62.224C81.1431 62.476 81.2451 62.656 81.4731 62.764C81.7011 62.86 81.9591 62.86 82.2471 62.764C82.5351 62.668 82.7391 62.494 82.8591 62.242C82.9791 62.002 82.9671 61.78 82.8231 61.576C82.6911 61.372 82.4511 61.216 82.1031 61.108ZM82.1571 64.546C82.2771 64.498 82.3551 64.474 82.3911 64.474C82.4391 64.462 82.5171 64.48 82.6251 64.528C82.7691 64.588 82.8531 64.696 82.8771 64.852C82.9131 65.008 82.9371 65.512 82.9491 66.364C82.9491 67.408 82.9671 67.948 83.0031 67.984C83.0511 68.02 83.5551 67.984 84.5151 67.876C85.4871 67.756 86.1231 67.654 86.4231 67.57C86.7831 67.486 87.0531 67.498 87.2331 67.606C87.3771 67.714 87.4611 67.858 87.4851 68.038C87.5091 68.218 87.4671 68.368 87.3591 68.488C87.2271 68.62 87.0651 68.716 86.8731 68.776C86.6811 68.824 86.1891 68.902 85.3971 69.01C85.1811 69.034 84.7191 69.07 84.0111 69.118C83.2191 69.178 82.7331 69.22 82.5531 69.244C82.2531 69.28 81.6891 69.31 80.8611 69.334C80.0331 69.358 79.5711 69.358 79.4751 69.334C79.2591 69.262 79.1091 69.142 79.0251 68.974C78.9531 68.806 78.9651 68.62 79.0611 68.416C79.1211 68.296 79.2231 68.224 79.3671 68.2C79.5111 68.164 79.8651 68.134 80.4291 68.11C80.5251 68.11 80.6511 68.104 80.8071 68.092C81.2751 68.092 81.5451 68.044 81.6171 67.948C81.7011 67.852 81.7311 67.528 81.7071 66.976C81.7071 66.796 81.7071 66.652 81.7071 66.544C81.6711 66.004 81.6651 65.596 81.6891 65.32C81.7251 65.044 81.7671 64.87 81.8151 64.798C81.8751 64.714 81.9891 64.63 82.1571 64.546ZM90.0489 57.04C90.1449 57.016 90.2589 57.016 90.3909 57.04C90.5229 57.064 90.6309 57.1 90.7149 57.148C90.8349 57.244 90.9069 57.37 90.9309 57.526C90.9669 57.682 90.9849 58.084 90.9849 58.732C90.9849 59.512 91.0029 59.92 91.0389 59.956C91.0749 59.992 91.3449 60.01 91.8489 60.01C92.3649 60.01 92.8509 59.992 93.3069 59.956C93.7989 59.92 94.1409 59.95 94.3329 60.046C94.5249 60.13 94.6209 60.31 94.6209 60.586C94.6089 60.682 94.5969 60.754 94.5849 60.802C94.5849 60.85 94.5549 60.904 94.4949 60.964C94.4349 61.012 94.3689 61.048 94.2969 61.072C94.2369 61.096 94.1169 61.12 93.9369 61.144C93.7689 61.156 93.5889 61.168 93.3969 61.18C93.2169 61.192 92.9529 61.21 92.6049 61.234C91.8729 61.282 91.3089 61.288 90.9129 61.252C90.5169 61.204 90.2529 61.126 90.1209 61.018C89.9889 60.91 89.9109 60.724 89.8869 60.46C89.7669 59.2 89.7189 58.33 89.7429 57.85C89.7669 57.37 89.8689 57.1 90.0489 57.04ZM95.1069 63.106C95.8029 63.01 96.2169 63.112 96.3489 63.412C96.4689 63.7 96.4389 63.916 96.2589 64.06C96.0789 64.204 95.7189 64.294 95.1789 64.33C94.6989 64.354 94.2849 64.39 93.9369 64.438C93.2769 64.51 91.9749 64.594 90.0309 64.69C89.2989 64.726 88.8369 64.702 88.6449 64.618C88.4529 64.534 88.3809 64.33 88.4289 64.006C88.4409 63.898 88.4589 63.82 88.4829 63.772C88.5189 63.712 88.5609 63.658 88.6089 63.61C88.6569 63.562 88.7529 63.532 88.8969 63.52C89.0409 63.496 89.1969 63.484 89.3649 63.484C89.5329 63.472 89.7909 63.46 90.1389 63.448C91.1229 63.424 92.1309 63.37 93.1629 63.286C94.2069 63.202 94.8549 63.142 95.1069 63.106ZM91.1469 66.166C91.4469 66.13 91.8909 66.118 92.4789 66.13C93.0789 66.13 93.4869 66.148 93.7029 66.184C93.9669 66.22 94.1349 66.304 94.2069 66.436C94.2789 66.556 94.2969 66.772 94.2609 67.084C94.2249 67.336 94.2249 67.672 94.2609 68.092C94.3209 68.776 94.2369 69.238 94.0089 69.478C93.7929 69.706 93.3009 69.862 92.5329 69.946C91.7289 70.018 91.2369 70.096 91.0569 70.18C90.8769 70.276 90.8469 70.45 90.9669 70.702C91.0509 70.846 91.2369 70.93 91.5249 70.954C91.8129 70.978 92.2869 70.948 92.9469 70.864C93.6909 70.756 94.1829 70.738 94.4229 70.81C94.6749 70.882 94.7709 71.08 94.7109 71.404C94.6869 71.584 94.5969 71.71 94.4409 71.782C94.2969 71.866 94.0329 71.932 93.6489 71.98C93.2769 72.028 92.6649 72.076 91.8129 72.124C91.2009 72.16 90.7449 72.064 90.4449 71.836C90.1569 71.608 89.8989 71.152 89.6709 70.468C89.4309 69.724 89.6709 69.25 90.3909 69.046C90.4029 69.046 90.5169 69.016 90.7329 68.956C90.8529 68.92 91.0209 68.89 91.2369 68.866C91.4289 68.842 91.7649 68.794 92.2449 68.722C92.6649 68.674 92.9049 68.62 92.9649 68.56C93.0249 68.5 93.0489 68.29 93.0369 67.93C93.0369 67.906 93.0369 67.876 93.0369 67.84C93.0249 67.576 92.9709 67.426 92.8749 67.39C92.7789 67.342 92.4489 67.336 91.8849 67.372C91.8129 67.372 91.7529 67.372 91.7049 67.372C91.0929 67.408 90.6969 67.39 90.5169 67.318C90.3489 67.246 90.2649 67.066 90.2649 66.778C90.2769 66.55 90.3309 66.4 90.4269 66.328C90.5229 66.256 90.7629 66.202 91.1469 66.166ZM100.743 59.776C101.127 59.752 101.439 59.746 101.679 59.758C101.919 59.77 102.105 59.806 102.237 59.866C102.369 59.926 102.435 60.01 102.435 60.118C102.447 60.226 102.417 60.364 102.345 60.532C102.249 60.724 102.105 60.85 101.913 60.91C101.721 60.958 101.361 60.982 100.833 60.982C100.245 60.982 99.819 61.024 99.555 61.108C99.519 61.12 99.495 61.174 99.483 61.27C99.483 61.354 99.483 61.588 99.483 61.972L99.501 62.8L99.987 62.782C100.527 62.77 101.115 62.716 101.751 62.62C102.327 62.548 102.741 62.554 102.993 62.638C103.245 62.722 103.371 62.908 103.371 63.196C103.371 63.604 102.957 63.838 102.129 63.898C101.661 63.934 101.373 63.982 101.265 64.042C101.157 64.09 101.133 64.198 101.193 64.366C101.241 64.498 101.259 64.696 101.247 64.96C101.211 65.404 101.187 65.992 101.175 66.724C101.175 67.444 101.187 67.828 101.211 67.876C101.235 67.924 101.271 67.954 101.319 67.966C101.367 67.966 101.487 67.96 101.679 67.948C102.963 67.852 103.809 67.768 104.217 67.696C104.685 67.6 105.009 67.582 105.189 67.642C105.381 67.702 105.489 67.864 105.513 68.128C105.537 68.392 105.447 68.584 105.243 68.704C105.039 68.812 104.631 68.902 104.019 68.974C102.927 69.118 101.997 69.19 101.229 69.19C100.845 69.19 100.545 69.208 100.329 69.244C100.065 69.268 99.585 69.292 98.889 69.316C98.193 69.34 97.809 69.34 97.737 69.316C97.461 69.244 97.323 69.052 97.323 68.74C97.323 68.44 97.395 68.254 97.539 68.182C97.695 68.11 98.121 68.068 98.817 68.056C99.477 68.044 99.831 68.02 99.879 67.984C99.915 67.948 99.945 67.414 99.969 66.382C99.981 65.662 99.993 65.212 100.005 65.032C100.017 64.84 100.053 64.666 100.113 64.51C100.185 64.282 100.221 64.156 100.221 64.132C100.221 64.096 99.987 64.084 99.519 64.096C99.519 64.096 99.513 64.096 99.501 64.096C99.309 64.108 99.177 64.12 99.105 64.132C99.033 64.132 98.937 64.12 98.817 64.096C98.709 64.072 98.637 64.054 98.601 64.042C98.565 64.03 98.517 63.982 98.457 63.898C98.397 63.802 98.361 63.73 98.349 63.682C98.349 63.622 98.331 63.496 98.295 63.304C98.271 63.112 98.253 62.95 98.241 62.818C98.241 62.686 98.229 62.464 98.205 62.152C98.205 62.128 98.205 62.11 98.205 62.098C98.169 61.462 98.127 61.108 98.079 61.036C97.863 60.724 97.833 60.442 97.989 60.19C98.085 60.034 98.199 59.944 98.331 59.92C98.463 59.884 98.817 59.854 99.393 59.83C99.945 59.818 100.395 59.8 100.743 59.776ZM112.995 60.28C113.427 60.136 113.937 60.196 114.525 60.46C115.125 60.724 115.527 61.072 115.731 61.504C115.959 61.984 115.899 62.536 115.551 63.16C115.203 63.772 114.753 64.12 114.201 64.204C113.997 64.228 113.661 64.186 113.193 64.078C112.737 63.958 112.419 63.838 112.239 63.718C111.963 63.514 111.819 63.16 111.807 62.656C111.795 62.152 111.903 61.66 112.131 61.18C112.359 60.7 112.647 60.4 112.995 60.28ZM113.823 61.504C113.583 61.432 113.415 61.426 113.319 61.486C113.235 61.534 113.145 61.714 113.049 62.026C112.917 62.458 112.977 62.758 113.229 62.926C113.493 63.082 113.829 63.028 114.237 62.764C114.537 62.56 114.645 62.338 114.561 62.098C114.489 61.846 114.243 61.648 113.823 61.504ZM118.629 60.496C118.749 60.436 118.899 60.424 119.079 60.46C119.091 60.46 119.097 60.46 119.097 60.46C119.277 60.484 119.379 60.562 119.403 60.694C119.439 60.814 119.457 61.222 119.457 61.918C119.457 61.942 119.457 61.96 119.457 61.972C119.457 63.076 119.487 63.664 119.547 63.736C119.571 63.748 120.027 63.742 120.915 63.718C121.359 63.706 121.713 63.7 121.977 63.7C122.241 63.688 122.439 63.706 122.571 63.754C122.715 63.79 122.805 63.838 122.841 63.898C122.889 63.946 122.925 64.042 122.949 64.186C122.997 64.474 122.931 64.666 122.751 64.762C122.583 64.846 122.175 64.9 121.527 64.924C120.375 64.972 119.763 65.02 119.691 65.068C119.643 65.092 119.625 65.362 119.637 65.878C119.685 67.546 119.673 68.458 119.601 68.614C119.541 68.746 119.427 68.848 119.259 68.92C119.103 68.992 118.959 69.004 118.827 68.956C118.635 68.872 118.515 68.734 118.467 68.542C118.431 68.35 118.407 67.768 118.395 66.796C118.383 65.8 118.359 65.026 118.323 64.474C118.239 63.07 118.215 62.086 118.251 61.522C118.299 60.946 118.425 60.604 118.629 60.496ZM113.949 64.564C114.057 64.516 114.183 64.498 114.327 64.51C114.471 64.51 114.567 64.54 114.615 64.6C114.687 64.672 114.729 64.774 114.741 64.906C114.753 65.038 114.771 65.386 114.795 65.95C114.819 66.622 114.849 66.964 114.885 66.976C114.921 66.988 115.161 66.97 115.605 66.922C116.229 66.862 116.655 66.88 116.883 66.976C117.123 67.072 117.219 67.27 117.171 67.57C117.147 67.774 117.069 67.906 116.937 67.966C116.805 68.026 116.529 68.068 116.109 68.092C115.689 68.104 115.203 68.134 114.651 68.182C113.583 68.278 112.851 68.29 112.455 68.218C112.059 68.134 111.861 67.942 111.861 67.642C111.861 67.402 111.921 67.252 112.041 67.192C112.161 67.132 112.485 67.084 113.013 67.048C113.337 67.036 113.511 67.012 113.535 66.976C113.559 66.928 113.571 66.718 113.571 66.346C113.571 65.962 113.559 65.68 113.535 65.5C113.463 65.032 113.601 64.72 113.949 64.564ZM125.486 57.562C125.63 57.526 125.978 57.514 126.53 57.526C127.082 57.538 127.4 57.562 127.484 57.598C127.82 57.766 127.892 58.096 127.7 58.588C127.652 58.744 127.64 58.858 127.664 58.93C127.7 58.99 127.82 59.104 128.024 59.272C128.468 59.632 128.792 59.998 128.996 60.37C129.2 60.73 129.23 61.012 129.086 61.216C128.966 61.384 128.816 61.498 128.636 61.558C128.456 61.618 128.324 61.594 128.24 61.486C128.18 61.414 128.06 61.246 127.88 60.982C127.664 60.694 127.454 60.46 127.25 60.28C127.058 60.088 126.926 60.004 126.854 60.028C126.758 60.064 126.62 60.532 126.44 61.432C126.368 61.792 126.206 61.972 125.954 61.972C125.834 61.972 125.696 61.942 125.54 61.882C125.396 61.822 125.3 61.756 125.252 61.684C125.204 61.624 125.174 61.492 125.162 61.288C125.162 61.072 125.18 60.922 125.216 60.838C125.252 60.742 125.288 60.634 125.324 60.514C125.444 60.058 125.606 59.608 125.81 59.164C125.858 59.08 125.888 59.014 125.9 58.966C125.912 58.918 125.918 58.882 125.918 58.858C125.918 58.822 125.906 58.804 125.882 58.804C125.858 58.804 125.822 58.81 125.774 58.822C125.126 58.906 124.694 58.918 124.478 58.858C124.262 58.786 124.154 58.606 124.154 58.318C124.154 58.066 124.214 57.886 124.334 57.778C124.466 57.67 124.676 57.616 124.964 57.616C125.216 57.604 125.39 57.586 125.486 57.562ZM131.894 58.354C132.17 58.294 132.368 58.36 132.488 58.552C132.524 58.624 132.548 58.798 132.56 59.074C132.572 59.338 132.584 60.1 132.596 61.36C132.62 62.968 132.638 64.114 132.65 64.798C132.674 65.242 132.668 65.524 132.632 65.644C132.608 65.752 132.524 65.836 132.38 65.896C132.14 65.992 131.924 65.98 131.732 65.86C131.552 65.728 131.462 65.536 131.462 65.284C131.462 65.128 131.408 65.038 131.3 65.014C131.204 64.99 130.91 64.99 130.418 65.014C129.35 65.098 128.798 65.002 128.762 64.726C128.75 64.618 128.798 64.474 128.906 64.294C128.99 64.138 129.104 64.036 129.248 63.988C129.404 63.928 129.686 63.886 130.094 63.862C130.826 63.802 131.246 63.73 131.354 63.646C131.402 63.61 131.414 62.8 131.39 61.216C131.39 61.18 131.39 61.132 131.39 61.072C131.366 59.776 131.372 59.014 131.408 58.786C131.456 58.558 131.612 58.414 131.876 58.354C131.888 58.354 131.894 58.354 131.894 58.354ZM128.852 62.44C129.356 62.404 129.686 62.434 129.842 62.53C130.01 62.614 130.07 62.794 130.022 63.07C129.986 63.334 129.89 63.508 129.734 63.592C129.578 63.664 129.23 63.718 128.69 63.754C128.63 63.754 128.552 63.76 128.456 63.772C128.048 63.796 127.814 63.844 127.754 63.916C127.694 63.976 127.694 64.198 127.754 64.582C127.766 64.666 127.772 64.732 127.772 64.78C127.904 65.788 127.784 66.352 127.412 66.472C127.28 66.52 127.118 66.49 126.926 66.382C126.794 66.298 126.704 66.19 126.656 66.058C126.62 65.914 126.59 65.608 126.566 65.14C126.542 64.564 126.518 64.222 126.494 64.114L126.458 63.916H125.45C124.742 63.904 124.364 63.898 124.316 63.898C124.136 63.898 124.004 63.79 123.92 63.574C123.836 63.358 123.848 63.16 123.956 62.98C124.04 62.848 124.142 62.77 124.262 62.746C124.394 62.71 124.736 62.686 125.288 62.674C126.044 62.65 127.232 62.572 128.852 62.44ZM128.096 67.192C128.252 67.132 128.408 67.126 128.564 67.174C128.756 67.246 128.858 67.342 128.87 67.462C128.882 67.582 128.804 67.804 128.636 68.128C128.492 68.416 128.432 68.602 128.456 68.686C128.492 68.77 128.678 68.914 129.014 69.118C129.038 69.142 129.17 69.25 129.41 69.442C129.65 69.634 129.806 69.718 129.878 69.694C129.962 69.67 130.082 69.508 130.238 69.208C130.37 68.932 130.532 68.536 130.724 68.02C130.832 67.708 131.006 67.486 131.246 67.354C131.498 67.21 131.744 67.186 131.984 67.282C132.164 67.366 132.272 67.486 132.308 67.642C132.344 67.786 132.302 67.942 132.182 68.11C131.978 68.35 131.876 68.518 131.876 68.614C131.888 68.71 132.002 68.818 132.218 68.938C132.458 69.07 132.728 69.22 133.028 69.388C133.376 69.58 133.586 69.694 133.658 69.73C133.934 69.862 134.078 70.048 134.09 70.288C134.114 70.528 134 70.708 133.748 70.828C133.568 70.912 133.406 70.93 133.262 70.882C133.13 70.834 132.716 70.618 132.02 70.234C131.996 70.222 131.96 70.204 131.912 70.18C131.6 70 131.408 69.916 131.336 69.928C131.276 69.928 131.204 70.024 131.12 70.216C131.108 70.252 131.096 70.276 131.084 70.288C130.916 70.708 130.82 70.942 130.796 70.99C130.652 71.338 130.502 71.524 130.346 71.548C130.19 71.584 129.962 71.47 129.662 71.206C129.578 71.122 129.524 71.062 129.5 71.026C129.488 70.99 129.488 70.912 129.5 70.792C129.524 70.684 129.524 70.618 129.5 70.594C129.476 70.57 129.392 70.54 129.248 70.504C128.936 70.444 128.666 70.318 128.438 70.126C127.994 69.778 127.754 69.742 127.718 70.018C127.706 70.03 127.7 70.042 127.7 70.054C127.7 70.09 127.628 70.21 127.484 70.414C127.34 70.618 127.226 70.762 127.142 70.846C126.938 71.038 126.698 71.062 126.422 70.918C126.278 70.846 126.182 70.774 126.134 70.702C126.086 70.642 126.08 70.528 126.116 70.36C126.164 70.192 126.248 70 126.368 69.784C126.488 69.556 126.692 69.208 126.98 68.74C127.388 68.08 127.616 67.702 127.664 67.606C127.796 67.39 127.94 67.252 128.096 67.192ZM139.131 58.624C140.103 58.48 140.679 58.582 140.859 58.93C140.907 59.038 140.931 59.8 140.931 61.216C140.943 62.632 140.925 63.37 140.877 63.43C140.781 63.55 140.631 63.628 140.427 63.664C140.235 63.7 140.091 63.676 139.995 63.592C139.899 63.508 139.833 63.4 139.797 63.268C139.773 63.124 139.761 62.884 139.761 62.548C139.773 61.948 139.755 61.348 139.707 60.748C139.659 60.148 139.611 59.836 139.563 59.812C139.467 59.764 139.149 59.8 138.609 59.92C138.141 60.016 137.865 60.076 137.781 60.1C137.397 60.196 137.127 60.184 136.971 60.064C136.767 59.92 136.713 59.722 136.809 59.47C136.917 59.206 137.115 59.044 137.403 58.984C137.403 58.984 137.655 58.924 138.159 58.804C138.435 58.744 138.759 58.684 139.131 58.624ZM141.867 65.536C142.239 65.476 142.539 65.512 142.767 65.644C142.995 65.776 143.073 65.956 143.001 66.184C142.953 66.376 142.845 66.514 142.677 66.598C142.509 66.67 142.179 66.73 141.687 66.778C140.847 66.862 140.397 66.94 140.337 67.012C140.301 67.048 140.301 67.276 140.337 67.696C140.373 68.356 140.391 68.86 140.391 69.208C140.403 69.544 140.391 69.82 140.355 70.036C140.319 70.264 140.259 70.408 140.175 70.468C140.091 70.528 139.965 70.558 139.797 70.558C139.689 70.558 139.605 70.552 139.545 70.54C139.497 70.528 139.443 70.498 139.383 70.45C139.335 70.402 139.299 70.342 139.275 70.27C139.263 70.21 139.245 70.102 139.221 69.946C139.197 69.778 139.179 69.604 139.167 69.424C139.167 69.244 139.161 68.992 139.149 68.668C139.137 67.852 139.113 67.378 139.077 67.246C139.053 67.102 138.963 67.036 138.807 67.048C137.751 67.204 136.989 67.246 136.521 67.174C136.053 67.09 135.819 66.886 135.819 66.562C135.819 66.334 135.879 66.184 135.999 66.112C136.119 66.04 136.377 66.004 136.773 66.004C137.229 66.004 137.985 65.956 139.041 65.86C140.373 65.74 141.315 65.632 141.867 65.536ZM150.024 60.082C150.252 59.854 150.504 59.83 150.78 60.01C150.876 60.07 150.936 60.166 150.96 60.298C150.984 60.43 151.008 60.91 151.032 61.738C151.056 62.674 151.08 63.16 151.104 63.196C151.128 63.232 151.62 63.244 152.58 63.232C153.54 63.22 154.116 63.238 154.308 63.286C154.5 63.334 154.596 63.502 154.596 63.79C154.596 64.054 154.518 64.228 154.362 64.312C154.206 64.384 153.846 64.42 153.282 64.42C151.962 64.42 151.266 64.474 151.194 64.582C151.158 64.63 151.128 65.272 151.104 66.508C151.092 67.696 151.056 68.416 150.996 68.668C150.948 68.92 150.798 69.082 150.546 69.154C150.258 69.226 150.054 69.172 149.934 68.992C149.814 68.812 149.772 68.5 149.808 68.056C149.892 67.072 149.91 65.482 149.862 63.286C149.826 61.798 149.814 60.922 149.826 60.658C149.838 60.382 149.904 60.19 150.024 60.082ZM144.102 60.964C144.234 60.796 144.444 60.79 144.732 60.946C144.852 60.994 144.93 61.042 144.966 61.09C145.014 61.126 145.056 61.24 145.092 61.432C145.14 61.612 145.164 61.822 145.164 62.062C145.176 62.29 145.188 62.686 145.2 63.25C145.224 64.186 145.254 64.678 145.29 64.726C145.338 64.762 145.536 64.786 145.884 64.798C146.244 64.798 146.598 64.78 146.946 64.744C147.69 64.672 148.11 64.654 148.206 64.69C148.422 64.774 148.536 64.972 148.548 65.284C148.56 65.596 148.464 65.824 148.26 65.968C148.128 66.052 147.564 66.082 146.568 66.058C145.572 66.034 144.936 65.974 144.66 65.878C144.516 65.818 144.408 65.758 144.336 65.698C144.264 65.638 144.198 65.5 144.138 65.284C144.09 65.056 144.054 64.792 144.03 64.492C144.018 64.18 144 63.694 143.976 63.034C143.94 62.314 143.928 61.816 143.94 61.54C143.964 61.264 144.018 61.072 144.102 60.964ZM155.975 58.696C156.239 58.648 156.443 58.69 156.587 58.822C156.743 58.954 156.821 59.164 156.821 59.452C156.821 60.136 156.881 60.994 157.001 62.026C157.073 62.758 157.121 63.484 157.145 64.204C157.169 64.912 157.157 65.356 157.109 65.536C157.061 65.716 156.929 65.842 156.713 65.914C156.497 65.986 156.299 65.968 156.119 65.86C155.963 65.776 155.867 65.638 155.831 65.446C155.807 65.254 155.777 64.72 155.741 63.844C155.705 62.764 155.675 62.086 155.651 61.81C155.579 61.138 155.531 60.622 155.507 60.262C155.483 59.89 155.483 59.584 155.507 59.344C155.531 59.104 155.579 58.942 155.651 58.858C155.723 58.774 155.831 58.72 155.975 58.696ZM156.803 68.578C157.235 68.434 157.565 68.464 157.793 68.668C158.033 68.86 158.123 69.196 158.063 69.676C158.015 70.024 157.877 70.264 157.649 70.396C157.433 70.528 157.163 70.534 156.839 70.414C156.611 70.33 156.449 70.156 156.353 69.892C156.269 69.616 156.263 69.346 156.335 69.082C156.419 68.818 156.575 68.65 156.803 68.578ZM97.9769 78.226C98.2289 78.094 98.4569 78.142 98.6609 78.37L98.8229 78.532L98.7869 82.582C98.7749 85.27 98.7629 86.638 98.7509 86.686C98.7029 86.806 98.5709 86.884 98.3549 86.92C98.1389 86.944 97.9589 86.914 97.8149 86.83C97.8149 86.83 97.8089 86.83 97.7969 86.83C97.6529 86.746 97.5689 86.524 97.5449 86.164C97.5329 85.792 97.5389 84.556 97.5629 82.456C97.5629 82.348 97.5629 82.264 97.5629 82.204C97.5629 82.036 97.5689 81.802 97.5809 81.502C97.5929 79.954 97.6109 79.048 97.6349 78.784C97.6709 78.508 97.7609 78.334 97.9049 78.262C97.9289 78.25 97.9529 78.238 97.9769 78.226ZM91.9469 80.026C92.3909 79.966 92.8709 79.936 93.3869 79.936C93.9149 79.936 94.2269 79.972 94.3229 80.044C94.5269 80.164 94.6409 80.38 94.6649 80.692C94.6889 81.004 94.6409 81.7 94.5209 82.78C94.4849 83.128 94.4489 83.542 94.4129 84.022C94.3529 84.694 94.2809 85.126 94.1969 85.318C94.1249 85.51 93.9689 85.63 93.7289 85.678C93.4529 85.726 93.2549 85.636 93.1349 85.408C93.0269 85.18 93.0029 84.838 93.0629 84.382C93.1229 83.986 93.1949 83.398 93.2789 82.618C93.2909 82.522 93.3089 82.366 93.3329 82.15C93.3569 81.934 93.3749 81.796 93.3869 81.736C93.3869 81.712 93.3869 81.676 93.3869 81.628C93.4229 81.364 93.3809 81.22 93.2609 81.196C93.1409 81.16 92.6969 81.184 91.9289 81.268C91.7969 81.28 91.6949 81.286 91.6229 81.286C91.2629 81.322 91.0109 81.298 90.8669 81.214C90.7349 81.13 90.6809 80.962 90.7049 80.71C90.7409 80.47 90.8249 80.314 90.9569 80.242C91.1009 80.158 91.4309 80.086 91.9469 80.026ZM111.169 78.46C111.277 78.4 111.409 78.4 111.565 78.46C111.733 78.508 111.853 78.58 111.925 78.676C111.997 78.772 112.009 79.984 111.961 82.312C111.925 84.64 111.871 85.948 111.799 86.236C111.739 86.488 111.583 86.632 111.331 86.668C111.079 86.692 110.887 86.584 110.755 86.344C110.719 86.26 110.701 85.732 110.701 84.76C110.701 83.776 110.719 83.152 110.755 82.888C110.779 82.72 110.743 82.624 110.647 82.6C110.563 82.576 110.275 82.576 109.783 82.6C109.159 82.636 108.769 82.624 108.613 82.564C108.457 82.504 108.379 82.33 108.379 82.042C108.379 81.886 108.421 81.76 108.505 81.664C108.589 81.568 108.691 81.52 108.811 81.52C108.895 81.52 108.985 81.508 109.081 81.484C109.213 81.448 109.513 81.418 109.981 81.394C110.461 81.358 110.719 81.322 110.755 81.286C110.791 81.25 110.815 80.824 110.827 80.008C110.839 79.324 110.857 78.91 110.881 78.766C110.917 78.622 111.013 78.52 111.169 78.46ZM106.975 79.054C107.095 78.946 107.245 78.91 107.425 78.946C107.617 78.982 107.767 79.072 107.875 79.216C107.911 79.288 107.935 79.378 107.947 79.486C107.959 79.582 107.965 79.84 107.965 80.26C107.965 80.92 107.977 81.334 108.001 81.502C108.025 81.742 108.031 82.234 108.019 82.978C108.007 83.314 107.995 83.566 107.983 83.734C107.983 83.902 107.959 84.07 107.911 84.238C107.875 84.394 107.833 84.496 107.785 84.544C107.749 84.592 107.665 84.634 107.533 84.67C107.413 84.694 107.293 84.7 107.173 84.688C107.053 84.676 106.873 84.652 106.633 84.616C106.429 84.58 106.177 84.556 105.877 84.544C105.481 84.532 105.229 84.448 105.121 84.292C105.013 84.124 104.941 83.74 104.905 83.14C104.869 82.408 104.845 81.892 104.833 81.592C104.761 80.56 104.731 79.954 104.743 79.774C104.767 79.594 104.875 79.474 105.067 79.414C105.331 79.354 105.535 79.408 105.679 79.576C105.823 79.732 105.919 80.02 105.967 80.44L106.003 80.962L106.273 80.944C106.489 80.908 106.609 80.86 106.633 80.8C106.669 80.74 106.693 80.506 106.705 80.098C106.717 79.726 106.735 79.48 106.759 79.36C106.795 79.24 106.867 79.138 106.975 79.054ZM106.705 82.276C106.681 82.216 106.567 82.21 106.363 82.258C106.171 82.306 106.051 82.372 106.003 82.456C105.979 82.528 105.961 82.69 105.949 82.942C105.949 83.194 105.961 83.344 105.985 83.392C106.009 83.428 106.105 83.44 106.273 83.428C106.453 83.416 106.573 83.392 106.633 83.356C106.657 83.332 106.681 83.164 106.705 82.852C106.729 82.54 106.729 82.348 106.705 82.276ZM102.925 79.324C103.081 79.252 103.255 79.258 103.447 79.342C103.615 79.426 103.723 79.558 103.771 79.738C103.819 79.906 103.855 80.296 103.879 80.908C103.915 81.532 103.951 82.186 103.987 82.87C103.999 83.182 104.005 83.398 104.005 83.518C104.017 83.638 104.005 83.776 103.969 83.932C103.945 84.088 103.921 84.184 103.897 84.22C103.873 84.244 103.801 84.286 103.681 84.346C103.561 84.394 103.447 84.418 103.339 84.418C103.243 84.418 103.069 84.424 102.817 84.436C102.325 84.448 101.989 84.466 101.809 84.49C101.533 84.55 101.323 84.484 101.179 84.292C101.035 84.1 100.915 83.716 100.819 83.14C100.459 81.088 100.453 79.948 100.801 79.72C100.897 79.66 101.017 79.642 101.161 79.666C101.329 79.702 101.437 79.774 101.485 79.882C101.545 79.99 101.593 80.218 101.629 80.566C101.665 80.914 101.701 81.118 101.737 81.178C101.785 81.238 101.887 81.244 102.043 81.196C102.163 81.16 102.277 81.142 102.385 81.142C102.517 81.142 102.595 81.106 102.619 81.034C102.655 80.95 102.673 80.71 102.673 80.314C102.673 79.93 102.685 79.678 102.709 79.558C102.745 79.438 102.817 79.36 102.925 79.324ZM102.745 82.816C102.745 82.624 102.715 82.504 102.655 82.456C102.595 82.396 102.499 82.39 102.367 82.438C102.355 82.438 102.283 82.45 102.151 82.474C102.055 82.498 102.001 82.522 101.989 82.546C101.977 82.558 101.971 82.63 101.971 82.762C101.971 82.99 101.995 83.14 102.043 83.212C102.091 83.284 102.187 83.32 102.331 83.32C102.535 83.308 102.655 83.278 102.691 83.23C102.739 83.182 102.757 83.044 102.745 82.816ZM114.183 76.696C114.447 76.648 114.651 76.69 114.795 76.822C114.951 76.954 115.029 77.164 115.029 77.452C115.029 78.136 115.089 78.994 115.209 80.026C115.281 80.758 115.329 81.484 115.353 82.204C115.377 82.912 115.365 83.356 115.317 83.536C115.269 83.716 115.137 83.842 114.921 83.914C114.705 83.986 114.507 83.968 114.327 83.86C114.171 83.776 114.075 83.638 114.039 83.446C114.015 83.254 113.985 82.72 113.949 81.844C113.913 80.764 113.883 80.086 113.859 79.81C113.787 79.138 113.739 78.622 113.715 78.262C113.691 77.89 113.691 77.584 113.715 77.344C113.739 77.104 113.787 76.942 113.859 76.858C113.931 76.774 114.039 76.72 114.183 76.696ZM115.011 86.578C115.443 86.434 115.773 86.464 116.001 86.668C116.241 86.86 116.331 87.196 116.271 87.676C116.223 88.024 116.085 88.264 115.857 88.396C115.641 88.528 115.371 88.534 115.047 88.414C114.819 88.33 114.657 88.156 114.561 87.892C114.477 87.616 114.471 87.346 114.543 87.082C114.627 86.818 114.783 86.65 115.011 86.578Z" fill="black"/>
<g filter="url(#filter0_d_788_18528)">
<path d="M144.434 156.193C144.434 158.021 142.954 159.5 141.132 159.5C139.31 159.5 137.83 158.021 137.83 156.193C137.83 154.365 139.31 152.886 141.132 152.886C142.954 152.886 144.434 154.365 144.434 156.193Z" stroke="#477183" stroke-width="3"/>
<path d="M156.174 140.705C156.174 143.418 153.978 145.614 151.271 145.614C148.565 145.614 146.368 143.418 146.368 140.705C146.368 137.992 148.565 135.796 151.271 135.796C153.978 135.796 156.174 137.992 156.174 140.705Z" stroke="#477183" stroke-width="3"/>
<path d="M167.91 122.011C167.91 125.609 164.997 128.523 161.406 128.523C157.816 128.523 154.903 125.609 154.903 122.011C154.903 118.414 157.816 115.5 161.406 115.5C164.997 115.5 167.91 118.414 167.91 122.011Z" stroke="#477183" stroke-width="3"/>
</g>
<path d="M102.434 12.1661C132.184 8.96262 160.723 12.0354 184.222 22.5095C207.748 33.1993 213.148 48.0773 202.686 66.2098C199.752 71.3837 194.421 76.4133 190.654 81.2516C189.978 82.2097 188.548 83.479 188.68 84.5571C188.482 89.3962 184.661 93.8033 179.224 97.9704C169.079 105.778 155.827 110.902 141.217 114.659C99.2888 125.263 46.4106 121.01 20.4394 100.115C-4.67071 79.7704 4.30629 49.5636 41.1341 29.7362C58.2599 20.6367 78.2076 15.1312 102.434 12.1661ZM148.415 105.462C148.389 105.246 148.362 105.031 147.972 105.078C146.018 105.318 144.481 105.724 142.528 105.964C139.011 106.394 135.468 106.609 132.547 105.434C131.686 104.883 130.772 103.901 131.083 103.206C131.421 102.727 132.931 102.104 134.467 101.698C137.149 100.932 140.639 100.286 143.295 99.3039C158.083 93.7734 169.454 86.2537 178.739 77.895C179.414 76.9369 179.308 76.0745 179.202 75.212C178.85 69.1271 177.353 63.4012 170.438 58.7761C170.02 58.6083 169.577 58.2249 169.524 57.7937C169.444 57.1469 170.04 55.5419 172.855 55.854C174.053 55.9261 174.914 56.4773 175.749 56.8129C180.756 58.8264 183.134 62.037 185.122 65.2955C185.618 66.1101 186.115 66.9248 186.665 68.1706C197.889 53.0088 195.172 37.3648 171.805 27.9688C152.61 20.2506 130.039 17.3228 104.197 20.0481C83.434 22.1515 63.771 26.7467 47.0094 35.5828C9.76431 55.2425 7.21788 82.9113 27.8371 98.9906C49.7347 115.789 92.0096 120.901 133.521 110.13C138.521 108.861 143.442 106.946 148.415 105.462Z" fill="#477183"/>
<defs>
<filter id="filter0_d_788_18528" x="134.33" y="114" width="37.0801" height="51" filterUnits="userSpaceOnUse" color-interpolation-filters="sRGB">
<feFlood flood-opacity="0" result="BackgroundImageFix"/>
<feColorMatrix in="SourceAlpha" type="matrix" values="0 0 0 0 0 0 0 0 0 0 0 0 0 0 0 0 0 0 127 0" result="hardAlpha"/>
<feOffset dy="2"/>
<feGaussianBlur stdDeviation="1"/>
<feComposite in2="hardAlpha" operator="out"/>
<feColorMatrix type="matrix" values="0 0 0 0 0 0 0 0 0 0 0 0 0 0 0 0 0 0 0.1 0"/>
<feBlend mode="normal" in2="BackgroundImageFix" result="effect1_dropShadow_788_18528"/>
<feBlend mode="normal" in="SourceGraphic" in2="effect1_dropShadow_788_18528" result="shape"/>
</filter>
</defs>
</svg>
