<svg width="70" height="83" viewBox="0 0 70 83" fill="none" xmlns="http://www.w3.org/2000/svg">
<g filter="url(#filter0_dddd_828_3752)">
<rect x="8" y="3" width="54" height="54" rx="27" stroke="#3B92B9" stroke-width="2"/>
</g>
<ellipse cx="20.2883" cy="26.2028" rx="3.99724" ry="3.61879" fill="#9B7963"/>
<ellipse cx="20.2888" cy="26.2025" rx="2.85517" ry="2.58485" fill="#3B2F1E"/>
<ellipse cx="48.841" cy="26.2028" rx="3.99724" ry="3.61879" fill="#9B7963"/>
<ellipse cx="48.8415" cy="26.203" rx="2.85517" ry="2.58485" fill="#3B2F1E"/>
<path d="M24.64 20.5117C21.3421 22.9756 19.6807 27.5357 19.1753 29.8512C19.1194 30.1076 19.0325 30.3554 18.905 30.5847L18.392 31.5073C18.1938 31.8638 18.0898 32.2649 18.0898 32.6727V34.4674C18.3586 36.7389 19.6574 38.7165 20.2732 39.4213C22.5574 42.6112 28.4283 44.0933 31.0782 44.4357C38.5802 45.1002 41.3234 44.0128 44.2346 42.9857C47.1458 41.9587 49.7211 39.5421 50.8408 37.3068C51.6537 35.6838 51.4522 33.175 51.1987 31.8219C51.1519 31.5722 51.0536 31.336 50.922 31.1187L50.4852 30.3979C50.2777 30.0554 50.1683 29.6652 50.1031 29.2701C49.6411 26.4692 47.0146 22.5574 45.5521 20.6909C45.4582 20.5711 45.3511 20.4605 45.2337 20.3637C38.5771 14.8754 28.9684 17.2781 24.64 20.5117Z" fill="#9B7963"/>
<path fill-rule="evenodd" clip-rule="evenodd" d="M18.1426 35.9906C19.8427 33.3285 23.1014 31.5278 26.842 31.5278C29.0963 31.5278 31.1756 32.1818 32.8442 33.2843C34.162 34.1549 36.1072 34.1549 37.4249 33.2843C39.0935 32.1818 41.1728 31.5278 43.4272 31.5278C46.8834 31.5278 49.9281 33.0651 51.7122 35.3987C49.5699 41.5258 42.816 46.0002 34.8157 46.0002C27.0754 46.0002 20.5018 41.8118 18.1426 35.9906Z" fill="#F5E8CF"/>
<path d="M33.7429 15.0606C33.7289 14.4873 34.2417 14.0126 34.888 14.0002C35.5344 13.9879 36.0697 14.4426 36.0836 15.0159L36.1033 15.8294L36.4142 15.0719C36.6354 14.5331 37.3071 14.2552 37.9147 14.4514C38.5222 14.6475 38.8355 15.2432 38.6143 15.7821L37.5466 18.3837C37.3255 18.9225 36.6537 19.2003 36.0462 19.0042C35.8517 18.9414 35.6874 18.8377 35.561 18.7079C35.397 18.7912 35.2079 18.8403 35.0056 18.8442C34.8399 18.8473 34.6814 18.8198 34.5372 18.7674C34.4294 19.0602 34.1763 19.3077 33.8246 19.4212C33.217 19.6173 32.5453 19.3395 32.3242 18.8007L31.2565 16.1991C31.0353 15.6603 31.3486 15.0645 31.9561 14.8684C32.5637 14.6723 33.2354 14.9501 33.4566 15.4889L33.7719 16.2573L33.7429 15.0606Z" fill="#9B7963"/>
<path d="M35.3517 33.5771V36.9213C35.3517 37.7244 36.0028 38.3755 36.8059 38.3755H37.2567C38.0599 38.3755 38.7109 37.7244 38.7109 36.9213V36.8416" stroke="#3B2F1E" stroke-width="0.299759" stroke-linecap="round" stroke-linejoin="round"/>
<path d="M35.3514 33.5771V36.9213C35.3514 37.7244 34.7004 38.3755 33.8972 38.3755H33.4464C32.6433 38.3755 31.9922 37.7244 31.9922 36.9213V36.8416" stroke="#3B2F1E" stroke-width="0.299759" stroke-linecap="round" stroke-linejoin="round"/>
<path d="M38.6397 33.7826C38.6397 34.6375 37.1516 35.3306 35.3159 35.3306C33.4803 35.3306 31.9922 34.6375 31.9922 33.7826C31.9922 32.9276 33.4803 32.1719 35.3159 32.1719C37.1516 32.1719 38.6397 32.9276 38.6397 33.7826Z" fill="#3B2F1E"/>
<ellipse cx="46.1944" cy="36.6957" rx="3.63973" ry="2.97258" fill="#FFCEB9"/>
<ellipse cx="23.7999" cy="36.6957" rx="3.63973" ry="2.97258" fill="#FFCEB9"/>
<ellipse cx="25.4366" cy="31.526" rx="2.39946" ry="1.93864" fill="#3B2F1E"/>
<ellipse cx="44.3135" cy="31.526" rx="2.39946" ry="1.93864" fill="#3B2F1E"/>
<path d="M23.9134 35.5186L16.875 35.0016M24.1575 36.6749L16.875 37.0695M24.4916 37.7829L17.1949 39.1374" stroke="#3B2F1E" stroke-width="0.239807" stroke-linecap="round"/>
<path d="M46.0866 35.5186L53.125 35.0016M45.8425 36.6749L53.125 37.0695M45.5084 37.7829L52.8051 39.1374" stroke="#3B2F1E" stroke-width="0.239807" stroke-linecap="round"/>
<ellipse cx="0.564419" cy="0.507942" rx="0.564419" ry="0.507942" transform="matrix(-0.906252 -0.422739 0.581401 -0.813617 26.9395 31.6665)" fill="white"/>
<ellipse cx="0.30123" cy="0.308459" rx="0.30123" ry="0.308459" transform="matrix(-0.831534 -0.555474 0.446493 -0.894787 29.2559 34.6099)" fill="black"/>
<ellipse cx="0.30123" cy="0.308459" rx="0.30123" ry="0.308459" transform="matrix(-0.831534 -0.555474 0.446493 -0.894787 28.0801 35.2002)" fill="black"/>
<ellipse cx="0.30123" cy="0.308459" rx="0.30123" ry="0.308459" transform="matrix(-0.831534 -0.555474 0.446493 -0.894787 27.0547 35.791)" fill="black"/>
<ellipse cx="0.30123" cy="0.308459" rx="0.30123" ry="0.308459" transform="matrix(-0.831534 -0.555474 0.446493 -0.894787 30.123 35.2002)" fill="black"/>
<ellipse cx="0.30123" cy="0.308459" rx="0.30123" ry="0.308459" transform="matrix(-0.831534 -0.555474 0.446493 -0.894787 29.1016 35.791)" fill="black"/>
<ellipse cx="0.301256" cy="0.308529" rx="0.301256" ry="0.308529" transform="matrix(0.831462 -0.555582 -0.446392 -0.894837 40.541 34.6772)" fill="black"/>
<ellipse cx="0.301256" cy="0.308529" rx="0.301256" ry="0.308529" transform="matrix(0.831462 -0.555582 -0.446392 -0.894837 41.7168 35.2681)" fill="black"/>
<ellipse cx="0.301256" cy="0.308529" rx="0.301256" ry="0.308529" transform="matrix(0.831462 -0.555582 -0.446392 -0.894837 42.7422 35.8589)" fill="black"/>
<ellipse cx="0.301256" cy="0.308529" rx="0.301256" ry="0.308529" transform="matrix(0.831462 -0.555582 -0.446392 -0.894837 39.6738 35.2681)" fill="black"/>
<ellipse cx="0.301256" cy="0.308529" rx="0.301256" ry="0.308529" transform="matrix(0.831462 -0.555582 -0.446392 -0.894837 40.6953 35.8589)" fill="black"/>
<path d="M25.6095 28.7809C25.6147 28.6379 26.1375 28.3031 26.6601 28.3115C27.1826 28.3199 27.5069 28.6683 27.5017 28.8113C27.4964 28.9544 27.0686 29.0635 26.5461 29.0551C26.0236 29.0467 25.6042 28.9239 25.6095 28.7809Z" fill="white"/>
<path d="M42.1993 28.7809C42.2046 28.6379 42.7274 28.3031 43.2499 28.3115C43.7724 28.3199 44.0968 28.6683 44.0915 28.8113C44.0863 28.9544 43.6584 29.0635 43.1359 29.0551C42.6134 29.0467 42.1941 28.9239 42.1993 28.7809Z" fill="white"/>
<ellipse cx="0.564419" cy="0.507942" rx="0.564419" ry="0.507942" transform="matrix(-0.906252 -0.422739 0.581401 -0.813617 45.498 31.6665)" fill="white"/>
<defs>
<filter id="filter0_dddd_828_3752" x="0" y="0" width="70" height="83" filterUnits="userSpaceOnUse" color-interpolation-filters="sRGB">
<feFlood flood-opacity="0" result="BackgroundImageFix"/>
<feColorMatrix in="SourceAlpha" type="matrix" values="0 0 0 0 0 0 0 0 0 0 0 0 0 0 0 0 0 0 127 0" result="hardAlpha"/>
<feOffset dy="1"/>
<feGaussianBlur stdDeviation="1.5"/>
<feColorMatrix type="matrix" values="0 0 0 0 0.231373 0 0 0 0 0.572549 0 0 0 0 0.72549 0 0 0 0.08 0"/>
<feBlend mode="normal" in2="BackgroundImageFix" result="effect1_dropShadow_828_3752"/>
<feColorMatrix in="SourceAlpha" type="matrix" values="0 0 0 0 0 0 0 0 0 0 0 0 0 0 0 0 0 0 127 0" result="hardAlpha"/>
<feOffset dy="5"/>
<feGaussianBlur stdDeviation="2.5"/>
<feColorMatrix type="matrix" values="0 0 0 0 0.231373 0 0 0 0 0.572549 0 0 0 0 0.72549 0 0 0 0.07 0"/>
<feBlend mode="normal" in2="effect1_dropShadow_828_3752" result="effect2_dropShadow_828_3752"/>
<feColorMatrix in="SourceAlpha" type="matrix" values="0 0 0 0 0 0 0 0 0 0 0 0 0 0 0 0 0 0 127 0" result="hardAlpha"/>
<feOffset dy="10"/>
<feGaussianBlur stdDeviation="3"/>
<feColorMatrix type="matrix" values="0 0 0 0 0.231373 0 0 0 0 0.572549 0 0 0 0 0.72549 0 0 0 0.04 0"/>
<feBlend mode="normal" in2="effect2_dropShadow_828_3752" result="effect3_dropShadow_828_3752"/>
<feColorMatrix in="SourceAlpha" type="matrix" values="0 0 0 0 0 0 0 0 0 0 0 0 0 0 0 0 0 0 127 0" result="hardAlpha"/>
<feOffset dy="18"/>
<feGaussianBlur stdDeviation="3.5"/>
<feColorMatrix type="matrix" values="0 0 0 0 0.231373 0 0 0 0 0.572549 0 0 0 0 0.72549 0 0 0 0.01 0"/>
<feBlend mode="normal" in2="effect3_dropShadow_828_3752" result="effect4_dropShadow_828_3752"/>
<feBlend mode="normal" in="SourceGraphic" in2="effect4_dropShadow_828_3752" result="shape"/>
</filter>
</defs>
</svg>
