<svg width="126" height="43" viewBox="0 0 126 43" fill="none" xmlns="http://www.w3.org/2000/svg">
<path d="M53.0696 21.5C53.0696 32.6744 41.6063 42.0704 26.9996 42.0704C12.3929 42.0704 0.929589 32.6744 0.929589 21.5C0.929589 10.3256 12.3929 0.929589 26.9996 0.929589C41.6063 0.929589 53.0696 10.3256 53.0696 21.5Z" stroke="#323232" stroke-width="1.85918"/>
<path d="M125.07 21.5C125.07 32.6744 113.607 42.0704 99.0001 42.0704C84.3934 42.0704 72.9301 32.6744 72.9301 21.5C72.9301 10.3256 84.3934 0.929589 99.0001 0.929589C113.607 0.929589 125.07 10.3256 125.07 21.5Z" stroke="#323232" stroke-width="1.85918"/>
<path d="M52.7994 19.9207C60.4833 18.8318 64.9927 18.8514 73.2 19.9207V23.8891C65.3626 22.8966 60.8937 22.8827 52.7994 23.8891V19.9207Z" fill="#242424"/>
</svg>
