<svg width="36" height="34" viewBox="0 0 36 34" fill="none" xmlns="http://www.w3.org/2000/svg">
<g filter="url(#filter0_d_828_2108)">
<ellipse cx="18" cy="15" rx="16" ry="15" fill="white"/>
<path d="M33.625 15C33.625 23.0547 26.6526 29.625 18 29.625C9.34739 29.625 2.375 23.0547 2.375 15C2.375 6.94527 9.34739 0.375 18 0.375C26.6526 0.375 33.625 6.94527 33.625 15Z" stroke="#DB8181" stroke-width="0.75"/>
</g>
<rect x="13.9754" y="21.1321" width="8.04684" height="2.60543" rx="1.30272" fill="#FF9999" stroke="black" stroke-width="0.525"/>
<path d="M9.16413 19.0902L14.0048 22.2213H21.871L26.7117 19.0902C28.89 17.6986 27.821 15.0313 27.0142 13.8716C27.7404 7.47018 23.4846 7.49338 21.2659 8.30515C18.6035 4.1303 15.5175 6.56563 14.3074 8.30515C8.74053 6.35689 8.35733 11.6682 8.86158 14.5674C7.16733 16.2374 8.35734 18.2784 9.16413 19.0902Z" fill="#FF9999" stroke="black" stroke-width="0.525" stroke-linecap="round"/>
<path d="M9.02539 14.6958L12.9587 17.4784" stroke="black" stroke-width="0.525" stroke-linecap="round"/>
<path d="M14.4199 8.50439L15.8662 15.0437" stroke="black" stroke-width="0.525" stroke-linecap="round"/>
<path d="M21.293 8.36523L19.498 14.3478" stroke="black" stroke-width="0.525" stroke-linecap="round"/>
<path d="M26.8828 14.0127L22.523 17.1304" stroke="black" stroke-width="0.525" stroke-linecap="round"/>
<defs>
<filter id="filter0_d_828_2108" x="0" y="0" width="36" height="34" filterUnits="userSpaceOnUse" color-interpolation-filters="sRGB">
<feFlood flood-opacity="0" result="BackgroundImageFix"/>
<feColorMatrix in="SourceAlpha" type="matrix" values="0 0 0 0 0 0 0 0 0 0 0 0 0 0 0 0 0 0 127 0" result="hardAlpha"/>
<feOffset dy="2"/>
<feGaussianBlur stdDeviation="1"/>
<feComposite in2="hardAlpha" operator="out"/>
<feColorMatrix type="matrix" values="0 0 0 0 0.721569 0 0 0 0 0.427451 0 0 0 0 0.427451 0 0 0 0.2 0"/>
<feBlend mode="normal" in2="BackgroundImageFix" result="effect1_dropShadow_828_2108"/>
<feBlend mode="normal" in="SourceGraphic" in2="effect1_dropShadow_828_2108" result="shape"/>
</filter>
</defs>
</svg>
