<svg width="36" height="34" viewBox="0 0 36 34" fill="none" xmlns="http://www.w3.org/2000/svg">
<g filter="url(#filter0_d_832_28470)">
<ellipse cx="18" cy="15" rx="16" ry="15" fill="white"/>
<path d="M33.625 15C33.625 23.0547 26.6526 29.625 18 29.625C9.34738 29.625 2.375 23.0547 2.375 15C2.375 6.94527 9.34738 0.375 18 0.375C26.6526 0.375 33.625 6.94527 33.625 15Z" stroke="#776BA8" stroke-width="0.75"/>
</g>
<path d="M11.9793 13.4808C12.2483 12.7419 12.6749 11.7537 13.2245 10.7917C13.8975 9.61349 14.7351 8.51023 15.6658 7.93218L15.6775 7.92487L15.6885 7.91638C16.0141 7.66353 16.527 7.28435 17.0053 6.96962C17.2449 6.81196 17.4712 6.67355 17.6586 6.57556C17.7524 6.52649 17.832 6.48994 17.8956 6.46625C17.9273 6.45447 17.9522 6.4469 17.9711 6.44246C17.9885 6.43835 17.9961 6.43798 17.9961 6.43795C17.9961 6.43795 17.9961 6.43795 17.9961 6.43794H18.0341L18.0709 6.42706C18.6117 6.26711 19.4729 6.17205 20.2819 6.40226C21.0757 6.62815 21.8243 7.16643 22.1892 8.29966C22.2703 8.55165 22.3923 8.9558 22.4937 9.34621C22.5984 9.74948 22.6704 10.0994 22.6704 10.264V11.0748L11.9793 13.4808Z" fill="#AC98FF" stroke="black" stroke-width="0.53"/>
<path d="M17.7813 19.8326C18.1125 20.7939 18.1749 22.0733 17.1114 22.9721C17.0943 22.9866 17.0775 23.0008 17.061 23.0149C16.9689 23.093 16.8853 23.1639 16.7966 23.2286C16.4162 23.5058 15.566 23.8681 14.3384 23.6857C14.2802 23.677 14.2142 23.6702 14.1552 23.6641C14.1321 23.6617 14.1101 23.6594 14.09 23.6571C14.0249 23.6499 13.9721 23.6424 13.9297 23.633C13.9432 23.6137 13.9593 23.5925 13.9774 23.5706C14.0048 23.5375 14.0338 23.5061 14.06 23.4806C14.073 23.4679 14.0845 23.4575 14.0939 23.4495C14.0986 23.4456 14.1024 23.4425 14.1053 23.4403L14.1088 23.4378L14.1097 23.4371C14.1099 23.437 14.11 23.4369 14.11 23.4369C14.5682 23.1371 15.3022 22.4229 15.7095 21.2238C15.8318 20.9237 16.0211 20.5327 16.2502 20.1681C16.4842 19.7955 16.7448 19.4745 17.0001 19.2956C17.1247 19.2082 17.2542 19.2138 17.4001 19.3094C17.557 19.4122 17.7041 19.6084 17.7813 19.8326Z" fill="#AC98FF" stroke="black" stroke-width="0.53"/>
<path d="M11.4392 20.0267L11.4291 20.0406L11.4208 20.0557C10.7622 21.2612 9.94023 21.792 9.27707 21.9948C8.90984 22.107 8.53331 21.9455 8.39696 21.6274C8.29278 21.3843 8.25191 21.1482 8.26861 20.9856C8.27524 20.9211 8.32041 20.8498 8.43075 20.7217C10.6036 18.1993 10.18 15.7985 9.57894 14.726L9.57514 14.7192C9.52261 14.6255 9.4777 14.5454 9.44069 14.4622L8.79946 13.0219C8.75161 12.9144 8.68905 12.8116 8.63717 12.7263C8.62725 12.71 8.61772 12.6944 8.60876 12.6794C8.54793 12.5781 8.50482 12.4979 8.48071 12.4178C8.43079 12.2519 8.47413 12.0476 8.56928 11.8543C8.65614 11.6779 8.83811 11.5649 9.03504 11.5653C9.52258 11.5662 9.9774 11.8741 10.3999 12.337C10.7574 12.7287 11.0565 13.1909 11.3066 13.5775C11.3498 13.6442 11.3915 13.7087 11.4318 13.7702L11.4315 13.7704L11.4392 13.7809C13.2546 16.2728 12.2005 18.9818 11.4392 20.0267Z" fill="#AC98FF" stroke="black" stroke-width="0.53"/>
<path d="M15.6697 10.201L15.6698 10.2011L15.6763 10.1966C17.093 9.21887 20.919 7.92419 24.7556 10.7045L24.7555 10.7045L24.7606 10.708C25.1972 11.0094 25.8444 11.5612 26.4128 12.2624C26.9828 12.9658 27.4557 13.7975 27.5787 14.6601C27.5993 14.8048 27.6204 14.9427 27.6413 15.0792C27.6671 15.2475 27.6925 15.4135 27.7162 15.587L27.9788 15.5511L27.7162 15.587C27.7225 15.6329 27.7274 15.6791 27.7305 15.7248C27.7499 16.004 27.5967 16.2424 27.3 16.5136C27.1748 16.628 27.0363 16.7376 26.8891 16.854C26.8637 16.8741 26.838 16.8944 26.8121 16.915C26.6408 17.051 26.4605 17.1978 26.3058 17.358L26.2024 17.465C26.1079 17.5628 26.008 17.6879 25.9325 17.8247C25.8596 17.9568 25.7937 18.1281 25.8077 18.3088C25.8233 18.5114 25.9362 18.684 26.1369 18.7929C26.2947 18.8785 26.5017 18.9231 26.7557 18.9341C26.739 18.9536 26.7194 18.9753 26.6963 18.9991L26.6849 19.0109L26.6751 19.0241C25.5631 20.5041 22.1736 23.1854 17.5709 21.9957C16.6993 21.7491 15.3276 21.1273 14.0795 20.0679C12.8426 19.018 11.7389 17.5488 11.3495 15.6004C11.5273 14.6263 12.6136 12.1784 15.6697 10.201Z" fill="#AC98FF" stroke="black" stroke-width="0.53"/>
<path d="M24.8775 14.14C24.7039 14.14 24.4875 14.3249 24.4875 14.6562V15.6155C24.4875 15.9462 24.704 16.1317 24.8775 16.1317C25.0518 16.1317 25.2682 15.946 25.2682 15.6155V14.6562C25.2682 14.3251 25.0519 14.14 24.8775 14.14Z" fill="black" stroke="black" stroke-width="0.53"/>
<defs>
<filter id="filter0_d_832_28470" x="0" y="0" width="36" height="34" filterUnits="userSpaceOnUse" color-interpolation-filters="sRGB">
<feFlood flood-opacity="0" result="BackgroundImageFix"/>
<feColorMatrix in="SourceAlpha" type="matrix" values="0 0 0 0 0 0 0 0 0 0 0 0 0 0 0 0 0 0 127 0" result="hardAlpha"/>
<feOffset dy="2"/>
<feGaussianBlur stdDeviation="1"/>
<feComposite in2="hardAlpha" operator="out"/>
<feColorMatrix type="matrix" values="0 0 0 0 0.458457 0 0 0 0 0.400946 0 0 0 0 0.693294 0 0 0 0.2 0"/>
<feBlend mode="normal" in2="BackgroundImageFix" result="effect1_dropShadow_832_28470"/>
<feBlend mode="normal" in="SourceGraphic" in2="effect1_dropShadow_832_28470" result="shape"/>
</filter>
</defs>
</svg>
