<svg width="134" height="58" viewBox="0 0 134 58" fill="none" xmlns="http://www.w3.org/2000/svg">
<path d="M70.1523 0.695369C52.6971 -3.62634 40.3067 13.2095 35.7364 23.2364C35.396 23.9833 34.6754 24.4853 33.8552 24.5169L22.2076 24.9655C9.73419 25.3659 4.01723 27.8012 2.71793 28.9689C-6.53317 36.4751 10.0374 45.6911 19.4791 49.3608C37.6694 59.0688 70.6287 58.6602 84.8345 57.2423C121.916 50.5239 132.566 38.3599 133.492 32.4451C133.565 31.9764 133.782 31.5341 133.933 31.0844C135.392 26.7356 112.816 24.9313 99.4603 24.5109C98.497 24.4805 97.6861 23.8031 97.4207 22.8766C93.03 7.55019 77.5673 1.70377 70.1523 0.695369Z" fill="#F8CBA5"/>
<path d="M99.0072 31.4677L98.0959 23.3886C72.2673 35.8179 45.6749 27.9875 35.6073 22.5186L32.2225 30.5976C59.6134 46.8055 88.1585 37.9309 99.0072 31.4677Z" fill="#DF6767"/>
<path d="M36.4618 24.5846L38.0252 18.0642C38.4907 16.1228 36.958 14.2695 34.887 14.2695C32.816 14.2695 31.2834 16.1228 31.7489 18.0642L33.3122 24.5846L34.0755 27.9152L35.9385 27.7988L36.4618 24.5846Z" fill="white"/>
<path d="M38.0592 29.1514L44.8367 30.6554C46.8547 31.1032 48.7811 29.6287 48.7811 27.6363C48.7811 25.6439 46.8547 24.1694 44.8367 24.6171L38.0592 26.1211L34.7576 26.7737V28.2742L38.0592 29.1514Z" fill="white"/>
<path d="M31.7149 29.1514L24.9374 30.6555C22.9194 31.1033 20.993 29.6288 20.993 27.6364C20.993 25.644 22.9194 24.1695 24.9374 24.6172L31.7149 26.1212L33.9348 26.6372L34.3583 28.5697L31.7149 29.1514Z" fill="white"/>
<path d="M32.9844 23.2173L30.0705 18.733C28.9728 17.0435 26.5269 16.7757 25.0625 18.1845C23.5981 19.5933 23.8765 21.9464 25.6326 23.0025L30.2938 25.8059L33.5912 27.9152L34.8871 26.6132L32.9844 23.2173Z" fill="white"/>
<path d="M39.4803 25.8059L44.1415 23.0026C45.8976 21.9465 46.176 19.5934 44.7116 18.1846C43.2472 16.7758 40.8013 17.0436 39.7036 18.7331L36.7897 23.2174L34.3584 26.9728L35.588 28.6241L39.4803 25.8059Z" fill="white"/>
<path d="M39.4803 29.4668L44.1415 32.2701C45.8976 33.3262 46.176 35.6793 44.7116 37.0881C43.2472 38.497 40.8013 38.2291 39.7036 36.5396L36.7897 32.0553L34.5018 29.0736L36.3646 27.4205L39.4803 29.4668Z" fill="white"/>
<path d="M32.9844 32.0554L30.0705 36.5397C28.9728 38.2292 26.5269 38.4971 25.0625 37.0882C23.5981 35.6794 23.8765 33.3263 25.6326 32.2702L30.2938 29.4669L34.3583 27.0787L35.4008 27.9204L32.9844 32.0554Z" fill="white"/>
<path d="M36.6713 30.8746L38.2097 37.2909C38.6678 39.2013 37.1595 41.0251 35.1216 41.0251C33.0837 41.0251 31.5755 39.2013 32.0335 37.2909L33.5719 30.8746L34.1635 27.3977L35.6636 27.24L36.6713 30.8746Z" fill="white"/>
<path d="M34.8868 30.7838C36.6936 30.7838 38.1582 29.3747 38.1582 27.6365C38.1582 25.8983 36.6936 24.4893 34.8868 24.4893C33.0801 24.4893 31.6155 25.8983 31.6155 27.6365C31.6155 29.3747 33.0801 30.7838 34.8868 30.7838Z" fill="#FED402"/>
<g style="mix-blend-mode:multiply">
<path fill-rule="evenodd" clip-rule="evenodd" d="M34.0589 30.6825C34.3234 30.7489 34.6009 30.7843 34.887 30.7843C36.6938 30.7843 38.1584 29.3752 38.1584 27.637C38.1584 25.8988 36.6938 24.4897 34.887 24.4897C34.6985 24.4897 34.5137 24.5051 34.3339 24.5346C35.7396 24.8874 36.7771 26.1172 36.7771 27.5801C36.7771 29.1369 35.6022 30.4297 34.0589 30.6825Z" fill="#FED402" fill-opacity="0.5"/>
</g>
</svg>
