<svg width="215" height="165" viewBox="0 0 215 165" fill="none" xmlns="http://www.w3.org/2000/svg">
<g filter="url(#filter0_d_362_15281)">
<path d="M144.434 156.193C144.434 158.021 142.954 159.5 141.132 159.5C139.31 159.5 137.83 158.021 137.83 156.193C137.83 154.365 139.31 152.886 141.132 152.886C142.954 152.886 144.434 154.365 144.434 156.193Z" stroke="#477183" stroke-width="3"/>
<path d="M156.174 140.705C156.174 143.418 153.978 145.614 151.271 145.614C148.565 145.614 146.368 143.418 146.368 140.705C146.368 137.992 148.565 135.796 151.271 135.796C153.978 135.796 156.174 137.992 156.174 140.705Z" stroke="#477183" stroke-width="3"/>
<path d="M167.91 122.011C167.91 125.609 164.997 128.523 161.406 128.523C157.816 128.523 154.903 125.609 154.903 122.011C154.903 118.414 157.816 115.5 161.406 115.5C164.997 115.5 167.91 118.414 167.91 122.011Z" stroke="#477183" stroke-width="3"/>
</g>
<path d="M102.434 12.1661C132.184 8.96262 160.723 12.0354 184.222 22.5095C207.748 33.1993 213.148 48.0773 202.686 66.2098C199.752 71.3837 194.421 76.4133 190.654 81.2516C189.978 82.2097 188.548 83.479 188.68 84.5571C188.482 89.3962 184.661 93.8033 179.224 97.9704C169.079 105.778 155.827 110.902 141.217 114.659C99.2888 125.263 46.4106 121.01 20.4394 100.115C-4.67071 79.7704 4.30629 49.5636 41.1341 29.7362C58.2599 20.6367 78.2076 15.1312 102.434 12.1661ZM148.415 105.462C148.389 105.246 148.362 105.031 147.972 105.078C146.018 105.318 144.481 105.724 142.528 105.964C139.011 106.394 135.468 106.609 132.547 105.434C131.686 104.883 130.772 103.901 131.083 103.206C131.421 102.727 132.931 102.104 134.467 101.698C137.149 100.932 140.639 100.286 143.295 99.3039C158.083 93.7734 169.454 86.2537 178.739 77.895C179.414 76.9369 179.308 76.0745 179.202 75.212C178.85 69.1271 177.353 63.4012 170.438 58.7761C170.02 58.6083 169.577 58.2249 169.524 57.7937C169.444 57.1469 170.04 55.5419 172.855 55.854C174.053 55.9261 174.914 56.4773 175.749 56.8129C180.756 58.8264 183.134 62.037 185.122 65.2955C185.618 66.1101 186.115 66.9248 186.665 68.1706C197.889 53.0088 195.172 37.3648 171.805 27.9688C152.61 20.2506 130.039 17.3228 104.197 20.0481C83.434 22.1515 63.771 26.7467 47.0094 35.5828C9.76431 55.2425 7.21788 82.9113 27.8371 98.9906C49.7347 115.789 92.0096 120.901 133.521 110.13C138.521 108.861 143.442 106.946 148.415 105.462Z" fill="#477183"/>
<defs>
<filter id="filter0_d_362_15281" x="134.33" y="114" width="37.0801" height="51" filterUnits="userSpaceOnUse" color-interpolation-filters="sRGB">
<feFlood flood-opacity="0" result="BackgroundImageFix"/>
<feColorMatrix in="SourceAlpha" type="matrix" values="0 0 0 0 0 0 0 0 0 0 0 0 0 0 0 0 0 0 127 0" result="hardAlpha"/>
<feOffset dy="2"/>
<feGaussianBlur stdDeviation="1"/>
<feComposite in2="hardAlpha" operator="out"/>
<feColorMatrix type="matrix" values="0 0 0 0 0 0 0 0 0 0 0 0 0 0 0 0 0 0 0.1 0"/>
<feBlend mode="normal" in2="BackgroundImageFix" result="effect1_dropShadow_362_15281"/>
<feBlend mode="normal" in="SourceGraphic" in2="effect1_dropShadow_362_15281" result="shape"/>
</filter>
</defs>
</svg>
