<svg width="20" height="20" viewBox="0 0 20 20" fill="none" xmlns="http://www.w3.org/2000/svg">
<g clip-path="url(#clip0_1006_17055)">
<path fill-rule="evenodd" clip-rule="evenodd" d="M15.4444 0H4.55556C2.03959 0 0 2.03959 0 4.55556V15.4444C0 17.9604 2.03959 20 4.55556 20H15.4444C17.9604 20 20 17.9604 20 15.4444V4.55556C20 2.03959 17.9604 0 15.4444 0Z" fill="#DFEDF5"/>
<path fill-rule="evenodd" clip-rule="evenodd" d="M15.4444 0H4.55556C2.03959 0 0 2.03959 0 4.55556V15.4444C0 17.9604 2.03959 20 4.55556 20H15.4444C17.9604 20 20 17.9604 20 15.4444V4.55556C20 2.03959 17.9604 0 15.4444 0Z" fill="white"/>
<ellipse cx="4.57999" cy="8.57547" rx="1.47257" ry="1.35696" fill="#9B7963"/>
<ellipse cx="4.57918" cy="8.57546" rx="1.05184" ry="0.969261" fill="#3B2F1E"/>
<ellipse cx="15.0978" cy="8.57572" rx="1.47257" ry="1.35696" fill="#9B7963"/>
<ellipse cx="15.098" cy="8.57571" rx="1.05184" ry="0.969261" fill="#3B2F1E"/>
<path d="M6.18358 6.44158C5.01854 7.32751 4.40787 8.93622 4.19551 9.8325C4.1555 10.0014 4.09933 10.1665 4.01613 10.3188L3.96729 10.4082C3.83817 10.6446 3.77051 10.9096 3.77051 11.179V11.6746C3.86951 12.5264 4.34799 13.2679 4.57486 13.5322C5.41634 14.7284 7.57917 15.2841 8.55539 15.4125C11.3191 15.6617 12.3297 15.2539 13.4022 14.8688C14.4746 14.4837 15.4234 13.5775 15.8358 12.7394C16.1151 12.1719 16.0694 11.3156 15.9863 10.7911C15.9599 10.6251 15.8952 10.4683 15.8091 10.3238L15.7946 10.2994C15.6592 10.0719 15.5898 9.81277 15.5304 9.55483C15.2984 8.54879 14.4442 7.24219 13.9285 6.56242C13.8669 6.48119 13.7964 6.40685 13.7174 6.34235C11.2674 4.341 7.76672 5.23771 6.18358 6.44158Z" fill="#9B7963"/>
<path fill-rule="evenodd" clip-rule="evenodd" d="M3.78906 12.2469C4.41527 11.2483 5.61599 10.5728 6.99436 10.5728C7.46745 10.5728 7.9196 10.6523 8.33478 10.7972C9.34499 11.1498 10.753 11.1498 11.7632 10.7972C12.1784 10.6523 12.6305 10.5728 13.1036 10.5728C14.3767 10.5728 15.4983 11.1491 16.1556 12.0239C15.3663 14.3215 12.8782 15.9992 9.93097 15.9992C7.07993 15.9992 4.65855 14.4292 3.78906 12.2469Z" fill="#F5E8CF"/>
<path d="M9.53708 4.3972C9.53195 4.18224 9.72083 4.00423 9.95896 3.9996C10.1971 3.99498 10.3943 4.16549 10.3994 4.38045L10.4067 4.6855L10.5212 4.40144C10.6027 4.1994 10.8501 4.09522 11.074 4.16876C11.2978 4.2423 11.4132 4.4657 11.3317 4.66774L10.9384 5.64329C10.8569 5.84534 10.6094 5.94951 10.3856 5.87597C10.314 5.85243 10.2534 5.81352 10.2069 5.76487C10.1465 5.79609 10.0768 5.81451 10.0023 5.81596C9.94121 5.81715 9.88285 5.80682 9.82972 5.78718C9.78998 5.89698 9.69675 5.98977 9.56718 6.03234C9.34337 6.10588 9.09589 6.00171 9.01443 5.79966L8.6211 4.82411C8.53963 4.62207 8.65503 4.39867 8.87885 4.32513C9.10267 4.25159 9.35014 4.35577 9.4316 4.55781L9.54778 4.84594L9.53708 4.3972Z" fill="#9B7963"/>
<path d="M10.1297 11.3401V12.5206C10.1297 12.8623 10.4067 13.1394 10.7484 13.1394H10.792C11.1097 13.1394 11.3672 12.8818 11.3672 12.5642V12.5642" stroke="#3B2F1E" stroke-width="0.200963" stroke-linecap="round" stroke-linejoin="round"/>
<path d="M10.1291 11.3403V12.5208C10.1291 12.8626 9.85211 13.1396 9.51037 13.1396H9.46678C9.14912 13.1396 8.8916 12.8821 8.8916 12.5644V12.5644" stroke="#3B2F1E" stroke-width="0.200963" stroke-linecap="round" stroke-linejoin="round"/>
<path d="M11.3405 11.4172C11.3405 11.7378 10.7923 11.9977 10.1161 11.9977C9.43981 11.9977 8.8916 11.7378 8.8916 11.4172C8.8916 11.0966 9.43981 10.8132 10.1161 10.8132C10.7923 10.8132 11.3405 11.0966 11.3405 11.4172Z" fill="#3B2F1E"/>
<ellipse cx="14.1221" cy="12.5094" rx="1.34086" ry="1.11465" fill="#FFCEB9"/>
<ellipse cx="5.87309" cy="12.5094" rx="1.34086" ry="1.11465" fill="#FFCEB9"/>
<ellipse cx="6.47575" cy="10.5724" rx="0.883953" ry="0.726945" fill="#3B2F1E"/>
<ellipse cx="13.4299" cy="10.5722" rx="0.883953" ry="0.726945" fill="#3B2F1E"/>
<path d="M5.91527 12.0697L3.32235 11.8759M6.00521 12.5033L3.32234 12.6513M6.12827 12.9188L3.4402 13.4267" stroke="#3B2F1E" stroke-width="0.16077" stroke-linecap="round"/>
<path d="M14.0847 12.0697L16.6777 11.8759M13.9948 12.5033L16.6777 12.6513M13.8717 12.9188L16.5598 13.4267" stroke="#3B2F1E" stroke-width="0.16077" stroke-linecap="round"/>
<ellipse cx="0.208599" cy="0.189343" rx="0.208599" ry="0.189343" transform="matrix(-0.903347 -0.428911 0.574587 -0.818444 7.03125 10.6243)" fill="white"/>
<ellipse cx="0.111587" cy="0.115263" rx="0.111587" ry="0.115263" transform="matrix(-0.826948 -0.562278 0.440187 -0.897906 7.88281 11.7278)" fill="black"/>
<ellipse cx="0.111587" cy="0.115263" rx="0.111587" ry="0.115263" transform="matrix(-0.826948 -0.562278 0.440187 -0.897906 7.4502 11.9492)" fill="black"/>
<ellipse cx="0.111587" cy="0.115263" rx="0.111587" ry="0.115263" transform="matrix(-0.826948 -0.562278 0.440187 -0.897906 7.07227 12.1709)" fill="black"/>
<ellipse cx="0.111587" cy="0.115263" rx="0.111587" ry="0.115263" transform="matrix(-0.826948 -0.562278 0.440187 -0.897906 8.20312 11.9492)" fill="black"/>
<ellipse cx="0.111587" cy="0.115263" rx="0.111587" ry="0.115263" transform="matrix(-0.826948 -0.562278 0.440187 -0.897906 7.82617 12.1709)" fill="black"/>
<ellipse cx="0.111597" cy="0.115289" rx="0.111597" ry="0.115289" transform="matrix(0.826875 -0.562386 -0.440087 -0.897955 12.041 11.7527)" fill="black"/>
<ellipse cx="0.111597" cy="0.115289" rx="0.111597" ry="0.115289" transform="matrix(0.826875 -0.562386 -0.440087 -0.897955 12.4736 11.9744)" fill="black"/>
<ellipse cx="0.111597" cy="0.115289" rx="0.111597" ry="0.115289" transform="matrix(0.826875 -0.562386 -0.440087 -0.897955 12.8516 12.1958)" fill="black"/>
<ellipse cx="0.111597" cy="0.115289" rx="0.111597" ry="0.115289" transform="matrix(0.826875 -0.562386 -0.440087 -0.897955 11.7207 11.9744)" fill="black"/>
<ellipse cx="0.111597" cy="0.115289" rx="0.111597" ry="0.115289" transform="matrix(0.826875 -0.562386 -0.440087 -0.897955 12.0977 12.1958)" fill="black"/>
<path d="M6.54079 9.54138C6.54273 9.48775 6.73533 9.3622 6.92782 9.36535C7.12032 9.3685 7.23981 9.49916 7.23788 9.55279C7.23594 9.60643 7.07833 9.64735 6.88583 9.6442C6.69334 9.64105 6.53886 9.59501 6.54079 9.54138Z" fill="white"/>
<path d="M12.6531 9.54138C12.655 9.48775 12.8476 9.3622 13.0401 9.36535C13.2326 9.3685 13.3521 9.49916 13.3502 9.55279C13.3482 9.60643 13.1906 9.64735 12.9981 9.6442C12.8056 9.64105 12.6512 9.59501 12.6531 9.54138Z" fill="white"/>
<ellipse cx="0.208599" cy="0.189343" rx="0.208599" ry="0.189343" transform="matrix(-0.903347 -0.428911 0.574587 -0.818444 13.8672 10.6243)" fill="white"/>
</g>
<defs>
<clipPath id="clip0_1006_17055">
<rect width="20" height="20" fill="white"/>
</clipPath>
</defs>
</svg>
