<svg width="94" height="82" viewBox="0 0 94 82" fill="none" xmlns="http://www.w3.org/2000/svg">
<path d="M31.0175 26.4528C-19.1737 20.4234 2.63552 39.4412 19.814 49.7039C-6.70693 99.7813 20.5049 80.6492 37.4261 64.8233C79.5584 102.355 71.1327 69.7277 61.6533 48.7222C122.046 17.7309 84.2242 20.3375 57.7644 25.5145C54.8921 -21.1401 38.7364 6.70053 31.0175 26.4528Z" fill="#CD74B9"/>
<path d="M5.38423 30.7217C6.03004 29.6771 5.73465 28.4323 4.72446 27.9413C3.71426 27.4503 2.3718 27.899 1.72599 28.9436C1.08018 29.9882 1.37557 31.233 2.38576 31.724C3.39595 32.215 4.73841 31.7662 5.38423 30.7217Z" fill="#F0BFE5"/>
<path d="M10.5053 33.2104C11.1511 32.1659 10.8557 30.9211 9.84555 30.4301C8.83535 29.9391 7.49289 30.3878 6.84708 31.4324C6.20127 32.4769 6.49666 33.7218 7.50685 34.2128C8.51705 34.7038 9.85951 34.255 10.5053 33.2104Z" fill="#F0BFE5"/>
<path d="M15.1401 35.4619C15.7859 34.4173 15.4905 33.1725 14.4803 32.6815C13.4701 32.1905 12.1277 32.6393 11.4818 33.6838C10.836 34.7284 11.1314 35.9732 12.1416 36.4642C13.1518 36.9552 14.4943 36.5065 15.1401 35.4619Z" fill="#F0BFE5"/>
<path d="M20.4975 37.5727C21.1433 36.5282 20.8479 35.2834 19.8377 34.7924C18.8275 34.3014 17.4851 34.7501 16.8393 35.7947C16.1935 36.8392 16.4888 38.0841 17.499 38.5751C18.5092 39.0661 19.8517 38.6173 20.4975 37.5727Z" fill="#F0BFE5"/>
<path d="M26.0151 39.9282C26.6609 38.8837 26.3655 37.6388 25.3553 37.1478C24.3451 36.6568 23.0027 37.1056 22.3568 38.1502C21.711 39.1947 22.0064 40.4395 23.0166 40.9305C24.0268 41.4215 25.3693 40.9728 26.0151 39.9282Z" fill="#F0BFE5"/>
<path d="M31.6186 42.1567C32.2644 41.1122 31.969 39.8673 30.9588 39.3763C29.9486 38.8853 28.6062 39.3341 27.9604 40.3787C27.3145 41.4232 27.6099 42.6681 28.6201 43.1591C29.6303 43.6501 30.9728 43.2013 31.6186 42.1567Z" fill="#F0BFE5"/>
<path d="M36.728 44.1494C37.3738 43.1048 37.0784 41.86 36.0682 41.369C35.058 40.878 33.7156 41.3268 33.0697 42.3713C32.4239 43.4159 32.7193 44.6607 33.7295 45.1517C34.7397 45.6427 36.0822 45.194 36.728 44.1494Z" fill="#F0BFE5"/>
<path d="M42.1967 45.8232C42.8425 44.7787 42.5471 43.5339 41.537 43.0429C40.5268 42.5519 39.1843 43.0006 38.5385 44.0452C37.8927 45.0897 38.1881 46.3346 39.1983 46.8256C40.2085 47.3166 41.5509 46.8678 42.1967 45.8232Z" fill="#F0BFE5"/>
<path d="M37.9682 49.8379C38.614 48.7933 38.3186 47.5485 37.3084 47.0575C36.2982 46.5665 34.9558 47.0153 34.31 48.0598C33.6642 49.1044 33.9595 50.3492 34.9697 50.8402C35.9799 51.3312 37.3224 50.8825 37.9682 49.8379Z" fill="#F0BFE5"/>
<path d="M34.4838 54.7056C35.1296 53.661 34.8343 52.4162 33.8241 51.9252C32.8139 51.4342 31.4714 51.8829 30.8256 52.9275C30.1798 53.9721 30.4752 55.2169 31.4854 55.7079C32.4956 56.1989 33.838 55.7501 34.4838 54.7056Z" fill="#F0BFE5"/>
<path d="M29.8959 60.8374C30.5418 59.7928 30.2464 58.548 29.2362 58.057C28.226 57.566 26.8835 58.0148 26.2377 59.0593C25.5919 60.1039 25.8873 61.3487 26.8975 61.8397C27.9077 62.3307 29.2501 61.882 29.8959 60.8374Z" fill="#F0BFE5"/>
<path d="M25.0151 66.1709C25.6609 65.1263 25.3655 63.8815 24.3553 63.3905C23.3451 62.8995 22.0027 63.3483 21.3568 64.3928C20.711 65.4374 21.0064 66.6822 22.0166 67.1732C23.0268 67.6642 24.3693 67.2155 25.0151 66.1709Z" fill="#F0BFE5"/>
<path d="M20.5776 71.5552C21.2234 70.5106 20.928 69.2658 19.9178 68.7748C18.9076 68.2838 17.5652 68.7325 16.9193 69.7771C16.2735 70.8217 16.5689 72.0665 17.5791 72.5575C18.5893 73.0485 19.9318 72.5997 20.5776 71.5552Z" fill="#F0BFE5"/>
<path d="M16.5346 76.8086C17.1804 75.764 16.885 74.5192 15.8749 74.0282C14.8647 73.5372 13.5222 73.986 12.8764 75.0305C12.2306 76.0751 12.526 77.3199 13.5362 77.8109C14.5463 78.3019 15.8888 77.8532 16.5346 76.8086Z" fill="#F0BFE5"/>
<path d="M43.5268 40.0767C44.1726 39.0321 43.8772 37.7873 42.867 37.2963C41.8568 36.8053 40.5144 37.254 39.8686 38.2986C39.2228 39.3432 39.5181 40.588 40.5283 41.079C41.5385 41.57 42.881 41.1212 43.5268 40.0767Z" fill="#F0BFE5"/>
<path d="M49.6791 43.7231C50.325 42.6786 50.0296 41.4338 49.0194 40.9428C48.0092 40.4518 46.6667 40.9005 46.0209 41.9451C45.3751 42.9896 45.6705 44.2345 46.6807 44.7255C47.6909 45.2165 49.0333 44.7677 49.6791 43.7231Z" fill="#F0BFE5"/>
<path d="M55.6577 40.7251C56.3035 39.6805 56.0081 38.4357 54.9979 37.9447C53.9877 37.4537 52.6452 37.9025 51.9994 38.947C51.3536 39.9916 51.649 41.2364 52.6592 41.7274C53.6694 42.2184 55.0118 41.7697 55.6577 40.7251Z" fill="#F0BFE5"/>
<path d="M60.9565 38.0532C61.6023 37.0087 61.3069 35.7638 60.2967 35.2728C59.2865 34.7818 57.9441 35.2306 57.2983 36.2752C56.6524 37.3197 56.9478 38.5645 57.958 39.0555C58.9682 39.5465 60.3107 39.0978 60.9565 38.0532Z" fill="#F0BFE5"/>
<path d="M66.8627 35.6772C67.5086 34.6327 67.2132 33.3879 66.203 32.8969C65.1928 32.4059 63.8503 32.8546 63.2045 33.8992C62.5587 34.9437 62.8541 36.1886 63.8643 36.6796C64.8745 37.1706 66.2169 36.7218 66.8627 35.6772Z" fill="#F0BFE5"/>
<path d="M72.7377 33.6133C73.3836 32.5687 73.0882 31.3239 72.078 30.8329C71.0678 30.3419 69.7253 30.7906 69.0795 31.8352C68.4337 32.8798 68.7291 34.1246 69.7393 34.6156C70.7495 35.1066 72.0919 34.6578 72.7377 33.6133Z" fill="#F0BFE5"/>
<path d="M79.2202 31.8462C79.866 30.8016 79.5706 29.5568 78.5604 29.0658C77.5502 28.5748 76.2077 29.0236 75.5619 30.0681C74.9161 31.1127 75.2115 32.3575 76.2217 32.8485C77.2319 33.3395 78.5744 32.8908 79.2202 31.8462Z" fill="#F0BFE5"/>
<path d="M85.2202 29.8418C85.866 28.7972 85.5706 27.5524 84.5604 27.0614C83.5502 26.5704 82.2077 27.0192 81.5619 28.0637C80.9161 29.1083 81.2115 30.3531 82.2217 30.8441C83.2319 31.3351 84.5744 30.8864 85.2202 29.8418Z" fill="#F0BFE5"/>
<path d="M91.2163 27.8369C91.8621 26.7923 91.5667 25.5475 90.5565 25.0565C89.5463 24.5655 88.2038 25.0143 87.558 26.0588C86.9122 27.1034 87.2076 28.3482 88.2178 28.8392C89.228 29.3302 90.5704 28.8815 91.2163 27.8369Z" fill="#F0BFE5"/>
<path d="M44.8159 34.145C45.4617 33.1004 45.1663 31.8556 44.1561 31.3646C43.1459 30.8736 41.8034 31.3224 41.1576 32.3669C40.5118 33.4115 40.8072 34.6563 41.8174 35.1473C42.8276 35.6383 44.1701 35.1896 44.8159 34.145Z" fill="#F0BFE5"/>
<path d="M47.4624 21.6567C48.1082 20.6122 47.8128 19.3673 46.8026 18.8763C45.7924 18.3853 44.4499 18.8341 43.8041 19.8787C43.1583 20.9232 43.4537 22.1681 44.4639 22.6591C45.4741 23.1501 46.8165 22.7013 47.4624 21.6567Z" fill="#F0BFE5"/>
<path d="M45.9409 27.9673C46.5867 26.9227 46.2913 25.6779 45.2811 25.1869C44.2709 24.6959 42.9284 25.1446 42.2826 26.1892C41.6368 27.2338 41.9322 28.4786 42.9424 28.9696C43.9526 29.4606 45.2951 29.0118 45.9409 27.9673Z" fill="#F0BFE5"/>
<path d="M48.4526 14.9243C49.0984 13.8797 48.803 12.6349 47.7928 12.1439C46.7826 11.6529 45.4402 12.1017 44.7943 13.1462C44.1485 14.1908 44.4439 15.4356 45.4541 15.9266C46.4643 16.4176 47.8068 15.9689 48.4526 14.9243Z" fill="#F0BFE5"/>
<path d="M49.6889 8.31054C50.3347 7.26598 50.0393 6.02115 49.0291 5.53015C48.019 5.03915 46.6765 5.48791 46.0307 6.53248C45.3849 7.57704 45.6803 8.82186 46.6904 9.31286C47.7006 9.80386 49.0431 9.35511 49.6889 8.31054Z" fill="#F0BFE5"/>
<path d="M45.6088 51.5845C46.2546 50.5399 45.9593 49.2951 44.9491 48.8041C43.9389 48.3131 42.5964 48.7618 41.9506 49.8064C41.3048 50.851 41.6002 52.0958 42.6104 52.5868C43.6206 53.0778 44.963 52.629 45.6088 51.5845Z" fill="#F0BFE5"/>
<path d="M49.0815 56.2266C49.7273 55.182 49.4319 53.9372 48.4217 53.4462C47.4115 52.9552 46.0691 53.4039 45.4233 54.4485C44.7774 55.4931 45.0728 56.7379 46.083 57.2289C47.0932 57.7199 48.4357 57.2711 49.0815 56.2266Z" fill="#F0BFE5"/>
<path d="M53.2495 61.0347C53.8953 59.9901 53.5999 58.7453 52.5897 58.2543C51.5795 57.7633 50.237 58.212 49.5912 59.2566C48.9454 60.3012 49.2408 61.546 50.251 62.037C51.2612 62.528 52.6036 62.0792 53.2495 61.0347Z" fill="#F0BFE5"/>
<path d="M56.2319 65.4385C56.8777 64.3939 56.5823 63.1491 55.5721 62.6581C54.5619 62.1671 53.2195 62.6158 52.5736 63.6604C51.9278 64.705 52.2232 65.9498 53.2334 66.4408C54.2436 66.9318 55.5861 66.483 56.2319 65.4385Z" fill="#F0BFE5"/>
<path d="M59.2143 69.3428C59.8601 68.2982 59.5647 67.0534 58.5545 66.5624C57.5443 66.0714 56.2019 66.5201 55.5561 67.5647C54.9103 68.6093 55.2056 69.8541 56.2158 70.3451C57.226 70.8361 58.5685 70.3873 59.2143 69.3428Z" fill="#F0BFE5"/>
<path d="M62.3198 73.8086C62.9656 72.764 62.6702 71.5192 61.66 71.0282C60.6498 70.5372 59.3073 70.986 58.6615 72.0305C58.0157 73.0751 58.3111 74.3199 59.3213 74.8109C60.3315 75.3019 61.674 74.8532 62.3198 73.8086Z" fill="#F0BFE5"/>
<path d="M65.4741 78.4556C66.1199 77.411 65.8245 76.1662 64.8143 75.6752C63.8041 75.1842 62.4616 75.6329 61.8158 76.6775C61.17 77.7221 61.4654 78.9669 62.4756 79.4579C63.4858 79.9489 64.8282 79.5001 65.4741 78.4556Z" fill="#F0BFE5"/>
</svg>
