<svg width="24" height="22" viewBox="0 0 24 22" fill="none" xmlns="http://www.w3.org/2000/svg">
<g filter="url(#filter0_d_832_34866)">
<ellipse cx="12" cy="9" rx="10" ry="9" fill="white"/>
<path d="M21.73 9C21.73 13.7954 17.4012 17.73 12 17.73C6.59881 17.73 2.27 13.7954 2.27 9C2.27 4.20461 6.59881 0.27 12 0.27C17.4012 0.27 21.73 4.20461 21.73 9Z" stroke="#776BA8" stroke-width="0.54"/>
</g>
<path d="M8.2796 8.04797C8.44787 7.61284 8.70601 7.04588 9.03476 6.49342C9.45434 5.78831 9.9748 5.13113 10.551 4.78753L10.5594 4.78252L10.5673 4.77668C10.7704 4.62523 11.0905 4.3981 11.3887 4.20968C11.5382 4.11527 11.6789 4.03267 11.7951 3.97434C11.8533 3.94513 11.9022 3.92359 11.9409 3.90975C11.9765 3.89704 11.9936 3.89448 11.9969 3.89398C11.9976 3.89388 11.9977 3.89386 11.9973 3.89386H12.0238L12.0492 3.88664C12.3848 3.79135 12.9198 3.73475 13.4215 3.87181C13.9133 4.00616 14.372 4.32457 14.5958 4.99158C14.5958 4.99158 14.5958 4.99158 14.5958 4.99158L8.2796 8.04797ZM8.2796 8.04797L14.8946 6.61884L8.2796 8.04797Z" fill="#AC98FF" stroke="black" stroke-width="0.38"/>
<path d="M11.3374 13.8288L11.3265 13.8366L11.3167 13.8458C11.1548 13.9991 10.5914 14.3074 9.70767 14.1794C9.6706 14.1741 9.62835 14.1699 9.59137 14.1663C9.578 14.165 9.56532 14.1638 9.55383 14.1625C9.53729 14.1608 9.5222 14.1591 9.50845 14.1572C9.52269 14.1411 9.53734 14.126 9.5506 14.1136C9.55815 14.1065 9.56462 14.1009 9.56972 14.0968C9.5744 14.093 9.57668 14.0915 9.57668 14.0915C9.57668 14.0915 9.57667 14.0915 9.57666 14.0915C9.86663 13.9103 10.3322 13.4768 10.5906 12.7473C10.7102 12.4658 10.9279 12.0619 11.1766 11.7909C11.2456 11.7158 11.3143 11.6848 11.3757 11.6765C11.4391 11.6679 11.5105 11.6814 11.5848 11.7214C11.7371 11.8034 11.8793 11.9862 11.928 12.2151C12.0432 12.7563 11.9679 13.3811 11.3374 13.8288Z" fill="#AC98FF" stroke="black" stroke-width="0.38"/>
<path d="M7.88202 11.9949L7.87444 12.0049L7.86824 12.0158C7.53276 12.6052 7.12966 12.9219 6.77093 13.0825C6.5974 13.1602 6.40135 13.1583 6.24379 13.0923C6.08893 13.0275 5.97856 12.9052 5.94959 12.7388C5.94493 12.712 5.94203 12.6867 5.94076 12.6633C5.93681 12.5909 5.98544 12.5152 6.10116 12.3813C7.35236 10.9327 7.14842 9.55548 6.79294 8.88333C6.77196 8.84366 6.75235 8.80821 6.73379 8.77466C6.70081 8.71505 6.67116 8.66145 6.64306 8.60086L6.33293 7.9321C6.30296 7.86746 6.26748 7.8066 6.23461 7.75214C6.22515 7.73647 6.21605 7.72155 6.20725 7.70712C6.18389 7.66882 6.16262 7.63395 6.14234 7.59763C6.08704 7.49862 6.06054 7.42458 6.06175 7.35499C6.06232 7.32188 6.06797 7.28638 6.07833 7.2494C6.12892 7.06898 6.32587 6.9471 6.52446 6.9814C6.79627 7.02834 7.05203 7.22148 7.28939 7.48531C7.48756 7.70557 7.6548 7.95374 7.79776 8.16588C7.82485 8.20609 7.85108 8.245 7.87647 8.28218L7.87628 8.28232L7.88202 8.28988C9.00322 9.76733 8.35363 11.3734 7.88202 11.9949Z" fill="#AC98FF" stroke="black" stroke-width="0.38"/>
<path d="M10.5536 6.1486L10.5537 6.14867L10.5583 6.14559C11.4384 5.56249 13.8215 4.78788 16.2107 6.45L16.2107 6.45004L16.2142 6.45242C16.4819 6.62973 16.8775 6.95296 17.2274 7.3637C17.5788 7.77615 17.8707 8.26104 17.9561 8.76206C17.9587 8.7774 17.9614 8.7927 17.964 8.80795C17.9979 9.0065 18.0305 9.19721 18.0527 9.39109C18.0719 9.55912 17.9847 9.70638 17.7941 9.88097C17.7086 9.95933 17.6121 10.0345 17.5085 10.1151C17.4983 10.1231 17.488 10.1311 17.4776 10.1391C17.3656 10.2265 17.2461 10.321 17.1431 10.4234L17.1114 10.4548C17.0511 10.5148 16.9868 10.5919 16.9379 10.677C16.891 10.7586 16.8457 10.869 16.8553 10.9883C16.8663 11.1246 16.9454 11.2363 17.0765 11.3046C17.1651 11.3507 17.2763 11.3772 17.4085 11.3878L17.4045 11.3929C16.715 12.274 14.6046 13.8788 11.736 13.1671C11.1936 13.0197 10.3392 12.6479 9.5623 12.0148C8.79376 11.3885 8.1109 10.5152 7.86832 9.36004C7.98145 8.78235 8.65586 7.32738 10.5536 6.1486Z" fill="#AC98FF" stroke="black" stroke-width="0.38"/>
<path d="M16.2987 8.5152C16.2008 8.5152 16.0793 8.61471 16.0793 8.79392V9.36948C16.0793 9.54836 16.2009 9.6482 16.2987 9.6482C16.397 9.6482 16.5185 9.54824 16.5185 9.36948V8.79392C16.5185 8.61483 16.3971 8.5152 16.2987 8.5152Z" fill="black" stroke="black" stroke-width="0.38"/>
<defs>
<filter id="filter0_d_832_34866" x="0" y="0" width="24" height="22" filterUnits="userSpaceOnUse" color-interpolation-filters="sRGB">
<feFlood flood-opacity="0" result="BackgroundImageFix"/>
<feColorMatrix in="SourceAlpha" type="matrix" values="0 0 0 0 0 0 0 0 0 0 0 0 0 0 0 0 0 0 127 0" result="hardAlpha"/>
<feOffset dy="2"/>
<feGaussianBlur stdDeviation="1"/>
<feComposite in2="hardAlpha" operator="out"/>
<feColorMatrix type="matrix" values="0 0 0 0 0.458457 0 0 0 0 0.400946 0 0 0 0 0.693294 0 0 0 0.2 0"/>
<feBlend mode="normal" in2="BackgroundImageFix" result="effect1_dropShadow_832_34866"/>
<feBlend mode="normal" in="SourceGraphic" in2="effect1_dropShadow_832_34866" result="shape"/>
</filter>
</defs>
</svg>
