<svg width="392" height="56" viewBox="0 0 392 56" fill="none" xmlns="http://www.w3.org/2000/svg">
<path d="M57.7666 21.7231C60.3232 21.7231 62.5479 23.541 62.5479 27.8574V27.874C62.5479 31.9082 60.73 34.2988 57.7168 34.2988C55.5171 34.2988 53.8735 32.9956 53.4917 31.1611L53.4751 31.0698H55.5835L55.6084 31.1528C55.9238 31.9912 56.6626 32.5391 57.7168 32.5391C59.6177 32.5391 60.4229 30.6797 60.5142 28.3887C60.5142 28.2974 60.5225 28.2061 60.5225 28.1147H60.3564C59.9165 29.061 58.8706 29.8994 57.2271 29.8994C54.9277 29.8994 53.3174 28.2227 53.3174 25.9482V25.9316C53.3174 23.4995 55.1685 21.7231 57.7666 21.7231ZM57.7583 28.2559C59.1113 28.2559 60.1489 27.2764 60.1489 25.9233V25.9067C60.1489 24.5371 59.1113 23.4663 57.7832 23.4663C56.4634 23.4663 55.4092 24.5205 55.4092 25.8569V25.8735C55.4092 27.2598 56.397 28.2559 57.7583 28.2559ZM66.3164 26.2388C65.561 26.2388 64.9966 25.6577 64.9966 24.9272C64.9966 24.1885 65.561 23.6157 66.3164 23.6157C67.0801 23.6157 67.6362 24.1885 67.6362 24.9272C67.6362 25.6577 67.0801 26.2388 66.3164 26.2388ZM66.3164 32.3979C65.561 32.3979 64.9966 31.8252 64.9966 31.0864C64.9966 30.3477 65.561 29.7749 66.3164 29.7749C67.0801 29.7749 67.6362 30.3477 67.6362 31.0864C67.6362 31.8252 67.0801 32.3979 66.3164 32.3979ZM75.8955 34V31.7007H70.0352V29.9492C71.5874 27.2515 73.2891 24.4956 74.916 22.022H77.9458V29.9326H79.5562V31.7007H77.9458V34H75.8955ZM72.0273 29.9824H75.9287V23.7319H75.8042C74.5757 25.6079 73.1895 27.8242 72.0273 29.8579V29.9824ZM84.52 34V24.1304H84.3789L81.3989 26.2388V24.2217L84.5283 22.022H86.6616V34H84.52Z" fill="black"/>
<path fill-rule="evenodd" clip-rule="evenodd" d="M299.2 23.0329C299.2 22.3999 298.722 21.8867 298.133 21.8867H297.067C296.478 21.8867 296 22.3999 296 23.0329V32.9669C296 33.5999 296.478 34.1131 297.067 34.1131H298.133C298.722 34.1131 299.2 33.5999 299.2 32.9669V23.0329ZM291.766 24.332H292.833C293.422 24.332 293.899 24.8575 293.899 25.5057V32.9394C293.899 33.5876 293.422 34.1131 292.833 34.1131H291.766C291.177 34.1131 290.699 33.5876 290.699 32.9394V25.5057C290.699 24.8575 291.177 24.332 291.766 24.332ZM287.434 26.981H286.367C285.778 26.981 285.301 27.5132 285.301 28.1697V32.9244C285.301 33.5809 285.778 34.1131 286.367 34.1131H287.434C288.023 34.1131 288.501 33.5809 288.501 32.9244V28.1697C288.501 27.5132 288.023 26.981 287.434 26.981ZM282.133 29.4263H281.067C280.478 29.4263 280 29.9509 280 30.598V32.9414C280 33.5885 280.478 34.1131 281.067 34.1131H282.133C282.722 34.1131 283.2 33.5885 283.2 32.9414V30.598C283.2 29.9509 282.722 29.4263 282.133 29.4263Z" fill="black"/>
<path fill-rule="evenodd" clip-rule="evenodd" d="M315.771 24.3022C318.259 24.3023 320.651 25.2244 322.453 26.8779C322.589 27.0055 322.806 27.0039 322.939 26.8743L324.237 25.6108C324.305 25.545 324.342 25.456 324.342 25.3633C324.341 25.2706 324.302 25.182 324.234 25.117C319.503 20.7423 312.039 20.7423 307.308 25.117C307.24 25.1819 307.201 25.2705 307.2 25.3632C307.2 25.4559 307.237 25.545 307.305 25.6108L308.603 26.8743C308.736 27.0041 308.953 27.0057 309.089 26.8779C310.892 25.2243 313.284 24.3022 315.771 24.3022ZM315.768 28.5225C317.125 28.5224 318.434 29.0342 319.44 29.9583C319.577 30.0894 319.791 30.0866 319.924 29.9519L321.211 28.6326C321.279 28.5634 321.316 28.4695 321.315 28.3719C321.314 28.2744 321.275 28.1813 321.206 28.1135C318.142 25.2227 313.397 25.2227 310.333 28.1135C310.264 28.1813 310.225 28.2744 310.224 28.372C310.223 28.4696 310.26 28.5635 310.328 28.6326L311.615 29.9519C311.748 30.0866 311.962 30.0894 312.098 29.9583C313.104 29.0348 314.412 28.5231 315.768 28.5225ZM318.293 31.316C318.294 31.4214 318.257 31.523 318.19 31.5968L316.013 34.0515C315.95 34.1236 315.863 34.1642 315.772 34.1642C315.681 34.1642 315.594 34.1236 315.53 34.0515L313.353 31.5968C313.286 31.5229 313.249 31.4213 313.251 31.316C313.253 31.2106 313.294 31.1108 313.364 31.0402C314.754 29.7263 316.79 29.7263 318.18 31.0402C318.25 31.1109 318.291 31.2107 318.293 31.316Z" fill="black"/>
<rect opacity="0.35" x="332.842" y="22.5" width="23" height="11" rx="3.5" stroke="black"/>
<path opacity="0.4" d="M359.323 26.4136V30.1755C360.148 29.8569 360.684 29.1157 360.684 28.2946C360.684 27.4734 360.148 26.7322 359.323 26.4136Z" fill="black"/>
<rect x="335" y="24" width="20" height="8" rx="4" fill="black"/>
</svg>
