<svg width="264" height="176" viewBox="0 0 264 176" fill="none" xmlns="http://www.w3.org/2000/svg">
<g filter="url(#filter0_d_358_52750)">
<path d="M4 140.032C27.8592 128.548 61.4985 121.778 75.3357 119.828C66.8721 99.6238 228.486 117.967 238.561 119.828C248.637 121.689 248.637 123.018 248.637 124.082C248.637 124.814 242.718 125.42 239.423 125.553C243.266 126.244 250.797 128.562 249.846 129.399C248.637 130.462 245.01 128.867 243.801 129.399C242.834 129.824 244.204 130.816 245.01 131.259C255.972 131.472 259.519 134.007 259.922 135.247C261.195 138.396 246.601 140.941 238.86 141.858C242.406 141.59 252.667 145.388 252.667 146.679C252.667 147.742 243.263 149.248 238.561 149.869C240.496 152.846 229.964 155.717 224.456 156.781C214.46 163.586 195.572 162.984 187.377 161.832C165.614 172.2 138.611 165.288 126.52 167.414C116.847 169.116 105.831 166.706 101.532 165.288C97.0185 166.776 89.979 166.794 87.0235 166.617C80.8975 166.404 75.8731 162.275 74.1266 160.237L49.945 154.92C38.6603 163.214 22.1261 156.627 16.4837 152.462C13.6626 150.867 32.2119 146.147 31.0028 146.413C30.0355 146.625 26.9439 145.25 26.1378 144.541C11.9513 144.329 5.88079 141.45 4 140.032Z" fill="#A5D6D0"/>
</g>
<g filter="url(#filter1_d_358_52750)">
<path d="M7.32227 129.812C29.9211 119.668 61.7834 113.688 74.8897 111.966C66.8732 94.1213 219.95 110.323 229.493 111.966C239.037 113.61 239.037 114.784 239.037 115.723C239.037 116.37 233.431 116.905 230.309 117.023C233.95 117.633 241.083 119.68 240.182 120.419C239.037 121.359 235.601 119.95 234.456 120.419C233.539 120.795 234.837 121.672 235.601 122.063C245.984 122.251 249.343 124.489 249.725 125.585C250.931 128.367 237.108 130.614 229.776 131.424C233.135 131.187 242.854 134.542 242.854 135.682C242.854 136.621 233.947 137.951 229.493 138.499C231.325 141.129 221.349 143.665 216.132 144.604C206.665 150.615 189.611 150.836 181.849 149.819C161.235 158.976 136.229 155.373 124.777 157.252C115.615 158.754 103.774 153.37 99.7026 152.118C95.4271 153.433 87.3737 155.843 84.5743 155.687C78.7719 155.499 75.3987 149.457 73.7445 147.657L50.8403 142.961C40.1516 150.286 24.8062 145.395 19.4619 141.716C16.7897 140.307 34.0438 135.212 32.8986 135.447C31.9825 135.635 30.2265 134.429 29.463 133.803C16.0259 133.615 9.1037 131.064 7.32227 129.812Z" fill="#6BB8DA"/>
</g>
<path d="M67.375 119.331C68.0796 120.13 68.4474 120.979 69.417 121.474C70.8862 122.224 72.3227 122.933 73.7563 123.703C76.3578 125.101 78.5991 127.16 81.102 128.712C82.6921 129.697 84.415 130.563 86.0085 131.52C87.2895 132.289 88.5143 133.15 89.8373 133.865C92.6587 135.39 95.5097 137.195 98.4025 138.758C101.19 140.265 104.475 140.994 107.592 141.682C108.85 141.96 110.122 142.254 111.392 142.522C112.53 142.762 113.992 143.501 115.107 143.564C116.246 143.629 117.349 144.059 118.511 144.085C124.703 144.223 131.777 144.842 137.797 143.188C143.121 141.724 148.898 141.62 154.232 140.032C156.81 139.264 159.391 139.179 161.748 137.918C163.208 137.138 164.625 136.39 166.059 135.602C168.522 134.248 170.93 133.008 173.178 131.317C174.198 130.55 174.88 129.565 175.971 128.856C176.631 128.428 177.728 127.584 178.283 127.018C179.662 125.61 181.225 123.432 183.147 122.719C184.274 122.3 185.53 121.155 186.323 120.243C187.184 119.255 188.11 118.052 188.11 116.61C188.11 114.895 188.621 113.291 188.621 111.514" stroke="white" stroke-width="0.668076" stroke-linecap="round"/>
<path d="M65.1543 120.159C65.1922 120.863 66.4054 121.883 66.9498 122.12C67.227 122.242 67.4606 122.584 67.7644 122.731C68.0191 122.855 68.4483 123.129 68.6621 123.342C68.9104 123.588 69.2474 123.608 69.4886 123.9C69.7504 124.218 70.2053 124.474 70.529 124.719C71.2118 125.235 71.9031 125.704 72.5981 126.187C73.254 126.643 74.0547 126.882 74.7682 127.233C75.3798 127.533 76.01 127.915 76.6529 128.116C76.7648 128.151 76.8854 128.425 76.9799 128.512C77.1297 128.651 77.3226 128.695 77.4853 128.811C77.7293 128.986 78.0063 129.271 78.2641 129.396C78.7032 129.609 79.0841 130.032 79.4949 130.331" stroke="#3B92B9" stroke-width="0.668076" stroke-linecap="round"/>
<path d="M80.5645 131.267C80.5645 132.115 81.1217 131.513 80.6717 131.267" stroke="#3B92B9" stroke-width="0.668076" stroke-linecap="round"/>
<path d="M92.4453 137.113C92.8818 137.2 93.6224 137.867 93.8603 138.283C94.0546 138.622 94.822 138.989 95.1386 139.179C96.6862 140.109 98.3441 140.681 99.9366 141.414C100.157 141.515 100.416 141.367 100.632 141.498C100.866 141.64 101.099 141.682 101.352 141.764C102.121 142.013 102.965 142.116 103.736 142.375C105.185 142.862 106.278 143.778 107.856 143.778" stroke="#3B92B9" stroke-width="0.668076" stroke-linecap="round"/>
<path d="M119.414 146.116C124.744 146.116 130.417 148.126 135.52 145.648C135.844 145.491 136.018 145.196 136.329 145.005C136.778 144.729 137.098 144.727 137.607 144.596C138.482 144.371 139.461 144.438 140.307 144.154C141.09 143.891 141.924 143.824 142.744 143.686C143.1 143.626 143.533 143.543 143.868 143.543C144.233 143.543 144.891 143.482 145.206 143.31" stroke="#3B92B9" stroke-width="0.668076" stroke-linecap="round"/>
<path d="M190.046 112.442C189.651 112.496 189.404 114.109 189.404 114.43C189.404 115.17 189.404 115.911 189.404 116.651C189.404 117.204 189.569 118.452 189.244 118.879C189.07 119.107 188.914 119.686 188.863 119.99C188.81 120.307 188.503 120.692 188.358 120.977C187.978 121.725 187.699 122.261 186.943 122.497C186.21 122.726 185.59 123.076 184.909 123.407C184.665 123.526 184.389 123.545 184.137 123.641C183.834 123.755 183.513 124.044 183.245 124.128C182.983 124.21 182.246 124.927 182.127 125.187" stroke="#3B92B9" stroke-width="0.668076" stroke-linecap="round"/>
<path d="M181.378 126.707C181.148 126.988 181.467 127.136 181.378 126.941" stroke="#3B92B9" stroke-width="0.668076" stroke-linecap="round"/>
<path d="M179.022 128.812C178.79 129.065 178.565 129.311 178.333 129.565C178.106 129.812 178.015 130.154 177.738 130.332C177.012 130.798 176.505 131.755 175.764 132.196C175.337 132.45 174.903 132.745 174.504 133.047C173.996 133.432 173.411 133.596 172.899 133.956C172.53 134.215 172.138 134.304 171.799 134.593C171.593 134.768 171.285 135.011 171.05 135.125C170.795 135.249 170.569 135.478 170.306 135.619C169.836 135.871 169.224 136.034 168.802 136.353C168.094 136.889 167.249 136.934 166.501 137.321C166.055 137.552 165.574 137.765 165.116 137.932C164.83 138.036 163.857 138.448 163.719 138.75" stroke="#3B92B9" stroke-width="0.668076" stroke-linecap="round"/>
<path d="M82.2402 132.488C82.4046 132.508 82.7371 132.889 82.8401 133.033C83.0119 133.271 83.2568 133.409 83.5023 133.543C83.911 133.767 84.2952 133.96 84.7604 134.02C85.2289 134.08 85.6061 134.158 86.0224 134.403C86.3885 134.618 86.4564 134.873 86.743 135.186C87.029 135.498 87.4213 135.552 87.7713 135.743C88.1423 135.946 88.5119 135.934 88.8853 136.088C89.357 136.283 89.8015 136.426 90.3031 136.548" stroke="#3B92B9" stroke-width="0.668076" stroke-linecap="round"/>
<path d="M147.143 143.13C147.725 142.689 148.768 142.794 149.415 142.794C150.253 142.794 151.088 142.85 151.924 142.85C152.646 142.85 153.353 142.42 154.032 142.191C154.488 142.038 154.915 141.91 155.386 141.8C156.158 141.618 156.941 141.405 157.707 141.203C158.255 141.059 158.742 140.712 159.279 140.529C159.503 140.452 159.653 140.389 159.891 140.389C160.165 140.389 160.433 140.445 160.71 140.445C161.09 140.445 161.33 140.35 161.683 140.221" stroke="#3B92B9" stroke-width="0.668076" stroke-linecap="round"/>
<path d="M109.658 144.528C110.046 144.51 110.428 144.472 110.817 144.488C111.116 144.5 111.407 144.555 111.7 144.613C112.088 144.69 112.482 144.708 112.872 144.774C113.477 144.875 114.022 145.114 114.617 145.272C115.055 145.389 115.505 145.445 115.94 145.551C116.175 145.608 116.404 145.719 116.665 145.719" stroke="#3B92B9" stroke-width="0.668076" stroke-linecap="round"/>
<path d="M117.96 145.865C117.859 145.983 117.929 146.08 118.061 146C118.111 145.97 118.134 145.92 118.116 145.854C118.113 145.842 118.043 145.824 118.028 145.815" stroke="#3B92B9" stroke-width="0.668076" stroke-linecap="round"/>
<path d="M162.51 139.28C162.431 139.29 162.466 139.474 162.538 139.489C162.599 139.501 162.813 139.517 162.817 139.427C162.82 139.351 162.825 139.263 162.749 139.239C162.681 139.218 162.644 139.28 162.587 139.28" stroke="#3B92B9" stroke-width="0.668076" stroke-linecap="round"/>
<path d="M179.578 128.224C179.642 128.07 179.748 127.942 179.811 127.784C179.843 127.706 179.925 127.698 179.982 127.642C180.077 127.549 180.248 127.637 180.32 127.519" stroke="#3B92B9" stroke-width="0.668076" stroke-linecap="round"/>
<path d="M103.282 85.6072C106.253 83.0106 113.947 82.7391 115.927 83.2801L122.983 103.566L102.188 104.784C100.331 104.784 95.6517 103.891 91.7897 100.321C87.9276 96.7502 89.5415 92.5046 89.5417 91.6931C89.9131 85.2015 90.1805 80.1696 91.7897 78.0057C94.4634 74.7599 96.9688 74.7879 98.8255 75.4641C102.688 76.4379 103.034 83.0377 103.282 85.6072Z" fill="#9B7963"/>
<path d="M98.8429 107.841C97.0604 90.3139 121.371 74.8423 133.75 69.2974L189.081 73.3546C190.863 84.3903 189.824 93.0999 189.081 96.0752C181.357 127.235 155.164 137.189 143.034 138.271C124.615 143.139 106.641 134.889 99.957 130.156L98.8429 107.841Z" fill="#9B7963"/>
<path d="M123.448 66.94C119.883 66.94 116.021 69.1039 114.535 70.1858L142.015 83.9805L141.272 67.7515C137.113 66.4532 127.656 66.6696 123.448 66.94Z" fill="#9B7963"/>
<path d="M101.945 102.022C101.35 88.0652 122.988 74.5682 133.881 69.5642C143.164 66.1832 163.44 64.1275 165.817 82.9531C168.193 101.779 157.4 110.001 151.706 111.76C107.143 128.962 99.9641 112.436 101.945 102.022Z" fill="#F5E8CF"/>
<path d="M82.3484 92.0167C88.7972 96.8644 93.9328 99.6004 97.7461 101.047C101.999 102.66 106.898 105.067 109.212 108.982L120.132 127.459C123.214 132.674 118.988 139.157 113.272 137.155C111.804 136.641 110.895 136.592 109.378 136.246C103.688 134.947 94.3893 129.129 88.9544 125.323C87.9898 124.648 86.9104 124.163 85.8628 123.625C79.9891 120.607 71.5224 110.357 67.7222 105.169C63.5904 98.8015 61.1806 93.7238 60.0112 90.7331C59.4424 89.2785 58.6503 87.8888 58.0309 86.455C56.0487 81.8662 55.3184 73.0242 55.2045 68.5497C55.3868 66.5297 54.5494 64.0694 53.519 61.9432C52.2412 59.3063 50.4439 56.4341 48.1768 54.5775C46.2641 53.011 43.8015 51.2611 41.9251 49.9955C41.3583 49.6132 40.6963 49.2226 40.5515 48.5544C40.4468 48.0715 40.6475 47.6367 40.9516 47.2874C41.4639 46.6988 42.2616 46.473 43.0328 46.3541C52.3707 44.9148 61.9545 52.3053 65.7033 56.3432C69.3331 60.0009 72.42 68.7858 73.9729 74.3424C74.4021 75.8781 74.3053 77.5289 74.6067 79.0948C75.3094 82.7466 78.51 87.5875 80.752 90.463C81.2099 91.0504 81.7531 91.5692 82.3484 92.0167Z" fill="#9B7963"/>
<path d="M120.572 90.9217C113.473 87.0233 111.362 81.3894 111.415 76.5558C111.465 72.0385 115.765 67.6245 120.275 67.8806C122.418 68.0023 123.511 68.8282 125.276 70.0515C132.987 75.3979 136.185 80.0949 137.21 83.3293C137.946 85.6525 136.349 88.6896 134.504 90.2813C130.471 93.7593 125.24 93.4849 120.572 90.9217Z" fill="#9B7963"/>
<path d="M131.892 104.887C138.762 107.492 140.904 114.113 141.116 117.098L156.384 129.716C155.621 131.995 143.555 136.635 137.617 138.67C124.385 140.624 116.2 138.942 113.761 137.856C107.145 134.6 104.643 126.731 104.218 123.203C102.946 114.737 104.112 102.851 104.855 97.9671C106.89 91.7802 110.368 91.3189 111.852 91.8616C114.397 91.536 116.518 94.1681 117.26 95.5249C118.278 95.5249 118.108 103.937 117.896 108.143C122.731 102.933 129.241 103.801 131.892 104.887Z" fill="#9B7963"/>
<path d="M115.663 81.3139C113.435 77.6624 116.435 81.7086 119.748 79.691C120.934 80.3088 122.637 82.9794 124.204 74.9865C124.754 72.1816 123.332 72.2252 129.12 74.9865C134.908 77.7477 135.498 79.7389 137.498 82.4386C139.097 84.5984 137.232 87.807 136.1 89.1414C135.473 92.7646 133.52 93.4775 132.622 93.381C131.886 95.9094 129.972 95.9377 127.459 95.8573C125.45 95.7929 122.863 92.9529 121.821 91.5409C118.858 90.4241 119.588 87.7463 115.663 81.3139Z" fill="#9B7963"/>
<path d="M132.578 82.9121C133.551 83.533 135.613 85.6294 136.072 89.0484" stroke="#5A4335" stroke-width="0.224063" stroke-linecap="round"/>
<path d="M131.852 88.542C132.343 89.4602 133.187 91.6986 132.639 93.3066" stroke="#5A4335" stroke-width="0.224063" stroke-linecap="round"/>
<path d="M126.918 89.6035C127.629 90.7459 128.662 93.5728 127.109 95.7416" stroke="#5A4335" stroke-width="0.224063" stroke-linecap="round"/>
<path d="M170.273 81.1444C169.82 80.2369 168.81 78.7189 167.755 77.3374C166.44 75.6154 165.102 76.4319 165.491 78.5633C165.693 79.6719 166.459 80.6065 167.488 81.0658C169.21 81.8343 170.999 82.5957 170.273 81.1444Z" fill="#9B7963"/>
<path d="M108.852 92.3428L108.48 98.8344" stroke="#5A4335" stroke-width="0.228094" stroke-linecap="round"/>
<path d="M111.823 91.9365L111.451 98.4281" stroke="#5A4335" stroke-width="0.228094" stroke-linecap="round"/>
<path d="M114.793 92.8291L114.422 99.3207" stroke="#5A4335" stroke-width="0.228094" stroke-linecap="round"/>
<path d="M92.7346 77.1685L92.3633 83.66" stroke="#5A4335" stroke-width="0.228094" stroke-linecap="round"/>
<path d="M95.8538 75.3018L95.4824 81.7933" stroke="#5A4335" stroke-width="0.228094" stroke-linecap="round"/>
<path d="M98.9729 75.6265L98.6016 82.1181" stroke="#5A4335" stroke-width="0.228094" stroke-linecap="round"/>
<path d="M106.084 134.091C108.193 135.629 113.008 138.514 115.836 138.06C118.689 137.602 110.523 135.223 106.084 134.091Z" fill="#9B7963"/>
<ellipse cx="8.47194" cy="8.32555" rx="8.47194" ry="8.32555" transform="matrix(0.983136 0.182875 -0.15397 0.988075 133.354 19.6265)" fill="#9B7963"/>
<ellipse cx="6.05138" cy="5.94682" rx="6.05138" ry="5.94682" transform="matrix(0.983136 0.182875 -0.15397 0.988075 135.367 22.4189)" fill="#3B2F1E"/>
<ellipse cx="8.47194" cy="8.32555" rx="8.47194" ry="8.32555" transform="matrix(0.983136 0.182875 -0.15397 0.988075 192.846 30.6929)" fill="#9B7963"/>
<ellipse cx="6.05138" cy="5.94682" rx="6.05138" ry="5.94682" transform="matrix(0.983136 0.182875 -0.15397 0.988075 194.859 33.4863)" fill="#3B2F1E"/>
<path d="M151.481 18.1517C143.8 22.439 138.742 32.0378 136.832 37.139C136.592 37.7813 136.281 38.3937 135.877 38.9428L134.693 40.5534C134.07 41.4014 133.659 42.3929 133.495 43.4455L132.889 47.337C132.644 52.6049 134.65 57.6037 135.684 59.4446C139.313 67.5811 151.021 73.2259 156.422 75.0312C171.818 79.4496 177.919 78.0408 184.349 76.8345C190.779 75.6282 197.001 71.1331 200.126 66.4857C202.364 63.1574 202.851 57.4873 202.817 54.2872C202.81 53.6134 202.668 52.9483 202.437 52.3099L201.909 50.8528C201.547 49.8537 201.444 48.792 201.436 47.7376C201.386 41.2426 197.418 31.5804 195.048 26.7775C194.858 26.3921 194.627 26.0249 194.358 25.6889C182.418 10.7495 161.621 12.4923 151.481 18.1517Z" fill="#9B7963"/>
<path fill-rule="evenodd" clip-rule="evenodd" d="M132.448 50.8179C136.934 45.4249 144.362 42.5944 152.157 44.0443C155.915 44.7433 159.291 46.3503 162.071 48.5793C165.74 51.5211 171.636 52.6178 175.99 51.1685C179.289 50.0703 182.961 49.7745 186.719 50.4735C193.919 51.8127 199.717 56.4851 202.609 62.479C195.976 75.5792 180.316 83.1345 163.644 80.0333C147.516 77.0333 135.303 64.9648 132.448 50.8179Z" fill="#F5E8CF"/>
<path d="M172.379 9.28784C172.553 7.9793 173.789 7.09888 175.141 7.32136C176.492 7.54385 177.446 8.78498 177.272 10.0935L177.025 11.9505L177.941 10.349C178.593 9.20982 180.091 8.83866 181.287 9.51994C182.484 10.2012 182.926 11.677 182.274 12.8161L179.128 18.3163C178.476 19.4554 176.978 19.8266 175.781 19.1453C175.398 18.9272 175.093 18.6276 174.875 18.2838C174.504 18.4094 174.093 18.4478 173.67 18.3782C173.323 18.3211 173.003 18.1971 172.721 18.0222C172.392 18.646 171.777 19.1104 171.004 19.2322C169.669 19.4425 168.368 18.5506 168.098 17.24L166.795 10.9122C166.525 9.60163 167.388 8.36872 168.724 8.15839C170.059 7.94806 171.361 8.83997 171.63 10.1505L172.015 12.0195L172.379 9.28784Z" fill="#9B7963"/>
<path d="M169.18 52.0051L168.028 59.3953C167.726 61.338 169.062 63.2071 170.995 63.5666V63.5666C172.912 63.9231 174.723 62.6537 175.023 60.7279V60.7279" stroke="#3B2F1E" stroke-width="0.839958" stroke-linecap="round" stroke-linejoin="round"/>
<path d="M169.179 52.0052L168.028 59.3954C167.725 61.338 165.897 62.6185 163.965 62.259V62.259C162.048 61.9026 160.723 60.0497 161.023 58.1239V58.1239" stroke="#3B2F1E" stroke-width="0.839958" stroke-linecap="round" stroke-linejoin="round"/>
<path d="M175.959 53.7463C175.656 55.6898 172.309 56.6886 168.485 55.9771C164.66 55.2656 161.804 53.1133 162.107 51.1697C162.41 49.2262 165.778 48.0851 169.603 48.7966C173.428 49.5081 176.261 51.8027 175.959 53.7463Z" fill="#3B2F1E"/>
<ellipse cx="7.71421" cy="6.83885" rx="7.71421" ry="6.83885" transform="matrix(0.983136 0.182875 -0.15397 0.988075 184.127 55.126)" fill="#FFCEB9"/>
<ellipse cx="7.71421" cy="6.83885" rx="7.71421" ry="6.83885" transform="matrix(0.983136 0.182875 -0.15397 0.988075 137.463 46.4468)" fill="#FFCEB9"/>
<ellipse cx="5.08553" cy="4.46012" rx="5.08553" ry="4.46012" transform="matrix(0.983136 0.182875 -0.15397 0.988075 144.928 38.1602)" fill="#3B2F1E"/>
<ellipse cx="5.08553" cy="4.46012" rx="5.08553" ry="4.46012" transform="matrix(0.983136 0.182875 -0.15397 0.988075 184.26 45.4766)" fill="#3B2F1E"/>
<path d="M144.65 51.9833L130.167 48.0801M144.749 54.7065L129.435 52.7808M145.053 57.3546L129.369 57.6055" stroke="#3B2F1E" stroke-width="0.671966" stroke-linecap="round"/>
<path d="M190.854 60.5764L205.703 62.1293M189.935 63.1104L204.97 66.83M188.847 65.4996L203.571 71.4068" stroke="#3B2F1E" stroke-width="0.671966" stroke-linecap="round"/>
<ellipse cx="1.21517" cy="1.13832" rx="1.21517" ry="1.13832" transform="matrix(-0.807551 -0.609504 0.66919 -0.724743 152.322 44.3999)" fill="white"/>
<ellipse cx="0.655767" cy="0.698869" rx="0.655767" ry="0.698869" transform="matrix(-0.705526 -0.728081 0.550529 -0.821379 156.105 51.9883)" fill="black"/>
<ellipse cx="0.655767" cy="0.698869" rx="0.655767" ry="0.698869" transform="matrix(-0.705526 -0.728081 0.550529 -0.821379 153.443 52.8745)" fill="black"/>
<ellipse cx="0.655767" cy="0.698869" rx="0.655767" ry="0.698869" transform="matrix(-0.705526 -0.728081 0.550529 -0.821379 151.105 53.8213)" fill="black"/>
<ellipse cx="0.655767" cy="0.698869" rx="0.655767" ry="0.698869" transform="matrix(-0.705526 -0.728081 0.550529 -0.821379 157.697 53.666)" fill="black"/>
<ellipse cx="0.655767" cy="0.698869" rx="0.655767" ry="0.698869" transform="matrix(-0.705526 -0.728081 0.550529 -0.821379 155.361 54.6128)" fill="black"/>
<ellipse cx="0.65583" cy="0.699031" rx="0.65583" ry="0.699031" transform="matrix(0.886237 -0.432103 -0.270634 -0.97417 179.59 56.5146)" fill="black"/>
<ellipse cx="0.65583" cy="0.699031" rx="0.65583" ry="0.699031" transform="matrix(0.886237 -0.432103 -0.270634 -0.97417 181.834 58.314)" fill="black"/>
<ellipse cx="0.65583" cy="0.699031" rx="0.65583" ry="0.699031" transform="matrix(0.886237 -0.432103 -0.270634 -0.97417 183.752 60.0527)" fill="black"/>
<ellipse cx="0.65583" cy="0.699031" rx="0.65583" ry="0.699031" transform="matrix(0.886237 -0.432103 -0.270634 -0.97417 177.58 57.5229)" fill="black"/>
<ellipse cx="0.65583" cy="0.699031" rx="0.65583" ry="0.699031" transform="matrix(0.886237 -0.432103 -0.270634 -0.97417 179.498 59.2612)" fill="black"/>
<path d="M150.566 37.3229C150.628 36.9998 151.836 36.4413 152.922 36.6629C154.007 36.8845 154.56 37.8023 154.498 38.1254C154.437 38.4485 153.507 38.5308 152.421 38.3092C151.335 38.0875 150.505 37.6459 150.566 37.3229Z" fill="white"/>
<path d="M185.139 43.7535C185.2 43.4304 186.408 42.8719 187.494 43.0936C188.58 43.3152 189.132 44.233 189.071 44.5561C189.009 44.8792 188.079 44.9614 186.993 44.7398C185.907 44.5182 185.077 44.0766 185.139 43.7535Z" fill="white"/>
<ellipse cx="1.21517" cy="1.13832" rx="1.21517" ry="1.13832" transform="matrix(-0.807551 -0.609504 0.66919 -0.724743 190.986 51.5918)" fill="white"/>
<path d="M152.714 61.1864C161.007 58.5119 166.786 72.836 168.272 80.8171C176.072 78.1568 191.886 78.8211 188.628 85.8416C185.37 92.862 182.087 95.7315 180.853 96.2887C175.817 103.309 163.204 95.035 157.527 90.0204C147.16 77.9853 146.79 70.2405 147.901 67.8725C147.308 63.5265 150.862 61.6043 152.714 61.1864Z" fill="#9B7963"/>
<path d="M166.62 77.3087C168.157 81.2435 165.943 76.7433 162.424 77.7197C161.386 76.8407 160.191 73.9435 157.361 80.8579C156.368 83.2843 157.742 83.6191 152.635 79.5621C147.528 75.505 147.29 73.5239 145.815 70.5219C144.635 68.1203 146.959 65.6704 148.269 64.7457C149.471 61.5893 151.467 61.4507 152.314 61.7759C153.44 59.6519 155.285 60.1306 157.687 60.8666C159.608 61.4553 161.35 64.6614 162.118 66.2305C163.579 68.3014 163.911 70.3772 166.62 77.3087Z" fill="#9B7963"/>
<path d="M150.623 71.3838C149.79 70.558 148.155 68.0927 148.28 64.8375" stroke="#5A4335" stroke-width="0.224063" stroke-linecap="round"/>
<path d="M152.254 66.415C151.934 65.4439 151.492 63.1692 152.286 61.8396" stroke="#5A4335" stroke-width="0.224063" stroke-linecap="round"/>
<path d="M157.174 66.7427C156.68 65.5081 156.154 62.6441 158.006 61.0651" stroke="#5A4335" stroke-width="0.224063" stroke-linecap="round"/>
<path d="M127.246 72.217C130.479 70.4526 137.773 67.0778 141.088 67.6937C136.592 69.811 127.528 73.6798 127.246 72.217Z" fill="#9B7963"/>
<defs>
<filter id="filter0_d_358_52750" x="0" y="110.42" width="264" height="65.5791" filterUnits="userSpaceOnUse" color-interpolation-filters="sRGB">
<feFlood flood-opacity="0" result="BackgroundImageFix"/>
<feColorMatrix in="SourceAlpha" type="matrix" values="0 0 0 0 0 0 0 0 0 0 0 0 0 0 0 0 0 0 127 0" result="hardAlpha"/>
<feOffset dy="4"/>
<feGaussianBlur stdDeviation="2"/>
<feComposite in2="hardAlpha" operator="out"/>
<feColorMatrix type="matrix" values="0 0 0 0 0.145098 0 0 0 0 0.223529 0 0 0 0 0.235294 0 0 0 0.2 0"/>
<feBlend mode="normal" in2="BackgroundImageFix" result="effect1_dropShadow_358_52750"/>
<feBlend mode="normal" in="SourceGraphic" in2="effect1_dropShadow_358_52750" result="shape"/>
</filter>
<filter id="filter1_d_358_52750" x="5.32227" y="103.657" width="246.477" height="57.8569" filterUnits="userSpaceOnUse" color-interpolation-filters="sRGB">
<feFlood flood-opacity="0" result="BackgroundImageFix"/>
<feColorMatrix in="SourceAlpha" type="matrix" values="0 0 0 0 0 0 0 0 0 0 0 0 0 0 0 0 0 0 127 0" result="hardAlpha"/>
<feOffset dy="2"/>
<feGaussianBlur stdDeviation="1"/>
<feComposite in2="hardAlpha" operator="out"/>
<feColorMatrix type="matrix" values="0 0 0 0 0.768627 0 0 0 0 0.92549 0 0 0 0 0.996078 0 0 0 0.2 0"/>
<feBlend mode="normal" in2="BackgroundImageFix" result="effect1_dropShadow_358_52750"/>
<feBlend mode="normal" in="SourceGraphic" in2="effect1_dropShadow_358_52750" result="shape"/>
</filter>
</defs>
</svg>
