<svg width="82" height="80" viewBox="0 0 82 80" fill="none" xmlns="http://www.w3.org/2000/svg">
<path fill-rule="evenodd" clip-rule="evenodd" d="M22.2324 32.1528C27.1582 32.1528 31.634 29.886 35.194 27.2277C34.2696 33.9413 34.3465 39.9731 34.4193 45.6701L34.4349 46.9295C34.5416 55.9827 34.4622 64.3666 30.5995 74.7551C29.9298 76.5565 30.4883 78.7365 31.8471 79.6245C33.2059 80.5124 34.8504 79.7719 35.5201 77.9706C39.9863 65.9592 40.0297 56.1111 39.9202 46.8159L39.9071 45.7444C39.8153 38.3302 39.7282 31.2954 41.5613 23.1499C44.9321 30.3232 46.4944 37.3722 48.0627 44.4792L48.1046 44.6687C49.9278 52.9316 51.8215 61.514 56.9982 69.2132C58.0062 70.7123 59.7401 70.8444 60.8709 69.5081C62.0018 68.1718 62.1014 65.8732 61.0934 64.374C56.8095 58.0026 55.1959 50.9017 53.328 42.4372L53.2808 42.2236C52.3841 38.1595 51.4304 33.8372 50.0561 29.3583C52.9492 30.9923 56.2432 32.1528 59.7676 32.1528C65.4689 32.1528 70.7653 30.6853 74.7387 28.1492C78.517 25.7375 82 21.7034 82 16.0764C82 10.4494 78.517 6.41531 74.7387 4.0036C70.7653 1.46744 65.4689 0 59.7676 0C51.523 0 44.539 6.35028 41 10.2579C37.461 6.35028 30.477 0 22.2324 0C16.5311 0 11.2347 1.46744 7.26135 4.0036C3.483 6.41531 0 10.4494 0 16.0764C0 21.7034 3.483 25.7375 7.26135 28.1492C11.2347 30.6853 16.5311 32.1528 22.2324 32.1528ZM9.64123 10.5563C6.36579 12.647 5.48592 14.8329 5.48592 16.0764C5.48592 17.3198 6.36579 19.5058 9.64123 21.5965C12.7217 23.5628 17.17 24.8801 22.2324 24.8801C28.6552 24.8801 34.4532 19.6767 37.5714 16.2148L37.6334 16.007C34.5304 12.5456 28.698 7.27265 22.2324 7.27265C17.17 7.27265 12.7217 8.59001 9.64123 10.5563ZM44.9873 16.8222C44.8231 16.5072 44.6554 16.1919 44.4842 15.8764C47.6154 12.4147 53.3828 7.27265 59.7676 7.27265C64.83 7.27265 69.2783 8.59001 72.3588 10.5563C75.6342 12.647 76.5141 14.8329 76.5141 16.0764C76.5141 17.3198 75.6342 19.5058 72.3588 21.5965C69.2783 23.5628 64.83 24.8801 59.7676 24.8801C53.7108 24.8801 48.2095 20.2527 44.9873 16.8222Z" fill="#ED653B"/>
</svg>
