<svg width="160" height="235" viewBox="0 0 160 235" fill="none" xmlns="http://www.w3.org/2000/svg">
<path d="M49.8048 74.2305C50.1478 73.5232 50.5888 72.6587 51.0413 71.7904C52.0202 69.912 53.9613 68.7423 56.0792 68.7073L104.101 67.9142C105.302 67.8944 106.428 68.4984 107.075 69.5102C107.257 69.7948 107.395 70.1044 107.524 70.4168C107.782 71.0428 108.244 71.9918 108.704 72.8973C109.328 74.1256 110.246 75.3031 110.972 76.4739C111.659 77.5827 112.464 79.031 113.075 80.1713C113.355 80.6925 113.677 81.2005 113.898 81.7487C114.156 82.3866 114.453 83.284 114.69 84.0474C114.87 84.6245 115.145 85.0582 115.377 85.6162C116.393 88.0653 113.079 89.6594 110.655 88.5826C87.5514 78.3154 61.2109 84.3711 47.6008 90.0596C45.5091 90.9339 43.2355 90.2402 43.5564 87.9961C43.9408 85.3079 45.986 80.8897 47.4074 78.5758C47.6801 78.1319 47.9545 77.6908 48.2174 77.2719C48.816 76.3183 49.3134 75.2436 49.8048 74.2305Z" fill="#9B7963"/>
<ellipse cx="43.3061" cy="30.0781" rx="9.82176" ry="8.9199" fill="#9B7963"/>
<ellipse cx="43.3046" cy="30.0779" rx="7.01554" ry="6.37136" fill="#3B2F1E"/>
<ellipse cx="113.462" cy="30.0781" rx="9.82176" ry="8.9199" fill="#9B7963"/>
<ellipse cx="113.461" cy="30.0779" rx="7.01554" ry="6.37136" fill="#3B2F1E"/>
<path d="M53.9931 16.0511C45.8855 22.1273 41.8032 33.3756 40.5638 39.0804C40.4277 39.7068 40.216 40.3122 39.9053 40.8728L38.6346 43.1654C38.1518 44.0365 37.8984 45.0163 37.8984 46.0122V50.4501C38.5587 56.0492 41.7502 60.9237 43.2633 62.661C48.8758 70.5236 63.3015 74.1769 69.8127 75.0208C88.2459 76.6588 94.9865 73.9784 102.14 71.4469C109.293 68.9153 115.621 62.9588 118.372 57.449C120.371 53.4452 119.873 47.2543 119.25 43.921C119.136 43.311 118.896 42.7338 118.575 42.2026L117.492 40.4086C116.986 39.5713 116.719 38.6182 116.562 37.6527C115.432 30.7467 108.97 21.0929 105.375 16.4902C105.145 16.1965 104.884 15.9254 104.597 15.6879C88.2404 2.15778 64.629 8.08024 53.9931 16.0511Z" fill="#9B7963"/>
<path fill-rule="evenodd" clip-rule="evenodd" d="M38.0156 54.205C42.1929 47.6426 50.2002 43.2036 59.3921 43.2036C64.9368 43.2036 70.0505 44.8188 74.1525 47.541C77.3815 49.6839 82.1585 49.6839 85.3876 47.541C89.4896 44.8188 94.6033 43.2036 100.148 43.2036C108.638 43.2036 116.118 46.9906 120.502 52.74C115.24 67.8451 98.643 78.8763 78.9833 78.8763C59.9649 78.8763 43.813 68.5531 38.0156 54.205Z" fill="#F5E8CF"/>
<path d="M76.3579 2.61418C76.3237 1.20116 77.5835 0.0310212 79.1717 0.000604711C80.76 -0.0298117 82.0752 1.09101 82.1094 2.50403L82.1579 4.5093L82.9218 2.64205C83.4652 1.31393 85.1158 0.629151 86.6086 1.11255C88.1014 1.59594 88.8711 3.06446 88.3278 4.39257L85.7043 10.8053C85.161 12.1334 83.5103 12.8182 82.0175 12.3348C81.5396 12.18 81.1358 11.9243 80.8254 11.6045C80.4224 11.8097 79.9576 11.9308 79.4606 11.9403C79.0534 11.9481 78.6641 11.8802 78.3098 11.7511C78.0447 12.4729 77.4229 13.0828 76.5587 13.3626C75.0659 13.846 73.4153 13.1613 72.8719 11.8331L70.2485 5.42044C69.7051 4.09233 70.4748 2.62381 71.9676 2.14042C73.4604 1.65702 75.1111 2.3418 75.6544 3.66992L76.4292 5.56392L76.3579 2.61418Z" fill="#9B7963"/>
<path d="M80.3201 48.2559V56.5224C80.3201 58.489 81.9143 60.0832 83.8809 60.0832H85.0134C86.98 60.0832 88.5742 58.489 88.5742 56.5224V56.3024" stroke="#3B2F1E" stroke-width="0.734003" stroke-linecap="round" stroke-linejoin="round"/>
<path d="M80.3205 48.2559V56.5224C80.3205 58.489 78.7263 60.0832 76.7597 60.0832H75.6272C73.6606 60.0832 72.0664 58.489 72.0664 56.5224V56.3024" stroke="#3B2F1E" stroke-width="0.734003" stroke-linecap="round" stroke-linejoin="round"/>
<path d="M88.4002 48.7621C88.4002 50.8696 84.7438 52.578 80.2333 52.578C75.7229 52.578 72.0664 50.8696 72.0664 48.7621C72.0664 46.6547 75.7229 44.792 80.2333 44.792C84.7438 44.792 88.4002 46.6547 88.4002 48.7621Z" fill="#3B2F1E"/>
<ellipse cx="106.951" cy="55.9418" rx="8.9433" ry="7.32706" fill="#FFCEB9"/>
<ellipse cx="51.9238" cy="55.9418" rx="8.9433" ry="7.32706" fill="#FFCEB9"/>
<ellipse cx="55.9505" cy="43.1989" rx="5.8958" ry="4.77852" fill="#3B2F1E"/>
<ellipse cx="102.329" cy="43.1989" rx="5.8958" ry="4.77852" fill="#3B2F1E"/>
<path d="M52.206 53.0407L34.9117 51.7665M52.8059 55.891L34.9117 56.8636M53.6266 58.622L35.6978 61.9607" stroke="#3B2F1E" stroke-width="0.587202" stroke-linecap="round"/>
<path d="M106.689 53.0407L123.983 51.7665M106.089 55.8909L123.983 56.8636M105.268 58.622L123.197 61.9607" stroke="#3B2F1E" stroke-width="0.587202" stroke-linecap="round"/>
<ellipse cx="1.38764" cy="1.25069" rx="1.38764" ry="1.25069" transform="matrix(-0.905741 -0.423832 0.58019 -0.814482 59.6445 43.5454)" fill="white"/>
<ellipse cx="0.740883" cy="0.75984" rx="0.740883" ry="0.75984" transform="matrix(-0.830725 -0.556683 0.445368 -0.895347 65.3359 50.8003)" fill="black"/>
<ellipse cx="0.740883" cy="0.75984" rx="0.740883" ry="0.75984" transform="matrix(-0.830725 -0.556683 0.445368 -0.895347 62.4434 52.2559)" fill="black"/>
<ellipse cx="0.740883" cy="0.75984" rx="0.740883" ry="0.75984" transform="matrix(-0.830725 -0.556683 0.445368 -0.895347 59.9336 53.7119)" fill="black"/>
<ellipse cx="0.740883" cy="0.75984" rx="0.740883" ry="0.75984" transform="matrix(-0.830725 -0.556683 0.445368 -0.895347 67.4609 52.2559)" fill="black"/>
<ellipse cx="0.740883" cy="0.75984" rx="0.740883" ry="0.75984" transform="matrix(-0.830725 -0.556683 0.445368 -0.895347 64.9512 53.7119)" fill="black"/>
<ellipse cx="0.740947" cy="0.760011" rx="0.740947" ry="0.760011" transform="matrix(0.830653 -0.556791 -0.445268 -0.895397 93.0586 50.9673)" fill="black"/>
<ellipse cx="0.740947" cy="0.760011" rx="0.740947" ry="0.760011" transform="matrix(0.830653 -0.556791 -0.445268 -0.895397 95.9512 52.4238)" fill="black"/>
<ellipse cx="0.740947" cy="0.760011" rx="0.740947" ry="0.760011" transform="matrix(0.830653 -0.556791 -0.445268 -0.895397 98.4609 53.8799)" fill="black"/>
<ellipse cx="0.740947" cy="0.760011" rx="0.740947" ry="0.760011" transform="matrix(0.830653 -0.556791 -0.445268 -0.895397 90.9336 52.4238)" fill="black"/>
<ellipse cx="0.740947" cy="0.760011" rx="0.740947" ry="0.760011" transform="matrix(0.830653 -0.556791 -0.445268 -0.895397 93.4434 53.8799)" fill="black"/>
<path d="M56.3661 36.4331C56.379 36.0806 57.6637 35.2553 58.9476 35.276C60.2315 35.2967 61.0285 36.1556 61.0156 36.5082C61.0026 36.8607 59.9514 37.1297 58.6675 37.109C57.3836 37.0883 56.3532 36.7857 56.3661 36.4331Z" fill="white"/>
<path d="M97.1357 36.4331C97.1486 36.0806 98.4332 35.2553 99.7171 35.276C101.001 35.2967 101.798 36.1556 101.785 36.5082C101.772 36.8607 100.721 37.1297 99.437 37.109C98.1531 37.0883 97.1228 36.7857 97.1357 36.4331Z" fill="white"/>
<ellipse cx="1.38764" cy="1.25069" rx="1.38764" ry="1.25069" transform="matrix(-0.905741 -0.423832 0.58019 -0.814482 105.238 43.5454)" fill="white"/>
<path d="M56.934 86.6892C55.9979 82.6927 58.7865 75.9143 60.2978 73.0246L100.225 71.9961C102.331 75.7575 103.345 83.3588 103.588 86.6892H103.003C83.1131 80.1067 64.0028 83.9465 56.934 86.6892Z" fill="#F5E8CF"/>
<path d="M80.1445 214.52V233.327" stroke="#3B92B9" stroke-width="1.46801" stroke-linecap="round"/>
<path d="M127.824 193.068L140.035 207.323" stroke="#3B92B9" stroke-width="1.46801" stroke-linecap="round"/>
<path d="M42.4141 94.6235L53.7778 109.569" stroke="#3B92B9" stroke-width="1.46801" stroke-linecap="round"/>
<path d="M44.168 224.898L53.5826 208.643" stroke="#3B92B9" stroke-width="1.46801" stroke-linecap="round"/>
<path d="M17.8438 204.653L30.4141 190.717" stroke="#3B92B9" stroke-width="1.46801" stroke-linecap="round"/>
<path d="M106.832 208.641L113.856 226.074" stroke="#3B92B9" stroke-width="1.46801" stroke-linecap="round"/>
<path d="M11.6484 120.867L28.6692 128.697" stroke="#3B92B9" stroke-width="1.46801" stroke-linecap="round"/>
<path d="M140.402 159.714H159.123" stroke="#3B92B9" stroke-width="1.46801" stroke-linecap="round"/>
<path d="M133.09 131.111L147.895 119.602" stroke="#3B92B9" stroke-width="1.46801" stroke-linecap="round"/>
<path d="M109.104 111.777L117.968 95.2117" stroke="#3B92B9" stroke-width="1.46801" stroke-linecap="round"/>
<path d="M1.17188 161.625H19.8922" stroke="#3B92B9" stroke-width="1.46801" stroke-linecap="round"/>
<path d="M80.1445 83.457V102.264" stroke="#3B92B9" stroke-width="1.46801" stroke-linecap="round"/>
<path d="M59.6932 110.941C59.9404 110.148 74.0119 97.1858 81.0167 90.8036L91.5239 100.047L98.6317 106.319C101.846 108.96 99.765 113.141 98.3228 114.902C99.0645 116.486 95.7475 119.524 93.9963 120.844C91.524 126.918 86.1674 127.777 83.7981 127.446C81.3258 129.031 78.8535 128.327 77.9264 127.777C76.443 126.984 74.836 126.566 74.2179 126.456C71.4984 126.192 67.7281 122.385 66.1829 120.514C63.9579 118.401 62.5775 115.232 62.1655 113.912C61.2383 113.251 59.4459 111.733 59.6932 110.941Z" fill="#F3C5AE"/>
<path d="M91.2148 94.4346V99.3863V103.018H70.2003V94.4346H91.2148Z" fill="#F3C5AE"/>
<path d="M96.6211 107.951L81.1692 91.1148" stroke="#DE9D83" stroke-width="0.146801" stroke-linecap="round"/>
<path d="M96.002 113.232L81.1682 91.1147" stroke="#DE9D83" stroke-width="0.293601" stroke-linecap="round"/>
<path d="M64.789 112.572L81.168 91.1147" stroke="#DE9D83" stroke-width="0.146801" stroke-linecap="round"/>
<path d="M92.9102 116.204L80.8577 91.445L89.8198 123.796" stroke="#DE9D83" stroke-width="0.293601" stroke-linecap="round"/>
<path d="M84.875 125.777L82.2482 103.329L80.8575 91.4448" stroke="#DE9D83" stroke-width="0.146801" stroke-linecap="round"/>
<path d="M67.2613 115.213L81.168 91.445" stroke="#DE9D83" stroke-width="0.293601" stroke-linecap="round"/>
<path d="M80.2409 125.777L81.168 91.4448" stroke="#DE9D83" stroke-width="0.293601" stroke-linecap="round"/>
<path d="M73.442 123.136L81.168 91.4451" stroke="#DE9D83" stroke-width="0.146801" stroke-linecap="round"/>
<path d="M69.7336 119.835L81.168 91.445" stroke="#DE9D83" stroke-width="0.146801" stroke-linecap="round"/>
<path d="M158.532 158.037C158.532 199.109 123.445 232.532 80 232.532C36.5554 232.532 1.46801 199.109 1.46801 158.037C1.46801 116.965 36.5554 83.5412 80 83.5412C123.445 83.5412 158.532 116.965 158.532 158.037Z" stroke="url(#paint0_linear_358_55217)" stroke-width="2.93601"/>
<path d="M35.2862 149.351H53.0714V152.452H35.2862V149.351ZM38.8094 161.217V154.115H42.1917V161.133L45.2358 160.964C45.6492 160.062 45.931 159.113 46.0814 158.117C46.2317 157.102 46.3068 155.768 46.3068 154.115H49.6891C49.6891 155.524 49.6328 156.736 49.52 157.751C49.4261 158.746 49.2382 159.695 48.9563 160.597C50.5159 160.409 52.1413 160.137 53.8324 159.78V162.937C51.6527 163.388 49.0409 163.745 45.9968 164.008V168.461H55.7209V171.561H32.8341V168.461H42.6145V164.205C40.6039 164.299 37.9451 164.346 34.638 164.346V161.246L38.8094 161.217ZM77.8847 148.703V173.281H74.5024V161.978H70.1619C69.2787 164.139 67.86 165.906 65.9058 167.277C63.9704 168.63 61.3961 169.617 58.1829 170.237L57.5628 167.193C60.4566 166.629 62.6832 165.727 64.2429 164.487C65.8213 163.247 66.9111 161.565 67.5124 159.442C66.1971 159.855 64.8254 160.156 63.3973 160.344C61.988 160.531 60.372 160.682 58.5493 160.795L58.3802 157.694C60.5036 157.581 62.3074 157.403 63.7919 157.159C65.2763 156.914 66.7044 156.482 68.0761 155.862C68.1137 155.336 68.1325 154.5 68.1325 153.354C68.1137 153.015 68.0479 152.799 67.9352 152.705C67.8412 152.593 67.6627 152.536 67.3997 152.536H58.6339V149.436H67.3997C68.5271 149.436 69.476 149.765 70.2464 150.422C71.0168 151.08 71.4396 152.019 71.5148 153.241C71.5523 155.233 71.4302 157.018 71.1483 158.596H74.5024V148.703H77.8847ZM96.0883 164.036C96.2762 163.923 96.5205 163.613 96.8211 163.106C97.1406 162.58 97.413 161.969 97.6385 161.274C97.8828 160.578 98.0049 159.893 98.0049 159.216C98.0049 158.408 97.7888 157.694 97.3566 157.074C96.9433 156.454 96.2574 156.003 95.2991 155.721C94.9421 157.788 94.2186 159.517 93.1288 160.907C92.0389 162.279 90.4511 163.106 88.3654 163.388C88.0272 163.444 87.7077 163.472 87.4071 163.472C86.4676 163.472 85.6596 163.266 84.9831 162.852C84.3067 162.439 83.7899 161.894 83.4329 161.217C83.0759 160.541 82.8974 159.799 82.8974 158.991C82.8974 158.032 83.1511 157.093 83.6584 156.172C84.1845 155.233 84.9643 154.434 85.9978 153.776C87.0501 153.1 88.3372 152.658 89.8592 152.452C90.6109 152.358 91.3907 152.292 92.1987 152.254L92.3678 149.238H95.7501L95.5809 152.508C97.5727 152.903 99.0102 153.701 99.8934 154.904C100.795 156.106 101.246 157.525 101.246 159.16C101.246 160.005 101.143 160.851 100.936 161.696C100.73 162.542 100.448 163.322 100.091 164.036H96.0883ZM103.642 171.561H80.7553V168.461H103.642V171.561ZM87.9144 160.344C90.0753 160.043 91.4189 158.399 91.945 155.411C91.231 155.449 90.686 155.496 90.3102 155.552C89.4271 155.665 88.6754 155.909 88.0554 156.285C87.4541 156.642 86.9937 157.065 86.6743 157.553C86.3736 158.042 86.2233 158.512 86.2233 158.962C86.2233 159.432 86.3736 159.799 86.6743 160.062C86.9749 160.325 87.3883 160.419 87.9144 160.344ZM111.037 169.786C111.037 170.331 111.525 170.744 112.502 171.026C113.498 171.308 114.729 171.449 116.195 171.449C116.533 171.449 117.059 171.43 117.773 171.392C119.126 171.317 120.122 171.129 120.761 170.829C121.4 170.547 121.757 170.133 121.832 169.588C120.573 169.307 119.257 169.072 117.886 168.884C116.514 168.696 115.302 168.602 114.25 168.602C112.108 168.602 111.037 168.997 111.037 169.786ZM125.242 148.703V163.416H121.86V157.694H118.506C118.28 159.141 117.585 160.306 116.42 161.189C115.255 162.072 113.855 162.514 112.22 162.514H111.939C110.736 162.514 109.646 162.27 108.669 161.781C107.711 161.293 106.95 160.607 106.386 159.724C105.841 158.84 105.569 157.835 105.569 156.708V155.242C105.569 154.096 105.841 153.09 106.386 152.226C106.95 151.343 107.711 150.657 108.669 150.169C109.646 149.68 110.736 149.436 111.939 149.436H112.22C113.874 149.436 115.283 149.887 116.448 150.789C117.613 151.672 118.309 152.846 118.534 154.312H121.86V148.703H125.242ZM108.951 156.708C108.951 157.534 109.214 158.192 109.74 158.681C110.285 159.169 111.018 159.413 111.939 159.413H112.22C113.141 159.413 113.865 159.169 114.391 158.681C114.936 158.192 115.208 157.534 115.208 156.708V155.242C115.208 154.396 114.936 153.739 114.391 153.269C113.865 152.78 113.141 152.536 112.22 152.536H111.939C111.018 152.536 110.285 152.78 109.74 153.269C109.214 153.739 108.951 154.396 108.951 155.242V156.708ZM107.654 163.951H111.037V165.924C112.014 165.661 113.179 165.53 114.532 165.53C116.711 165.53 119.154 165.83 121.86 166.432V164.233H125.242V169.335C125.242 170.951 124.594 172.172 123.297 172.999C122.02 173.845 120.253 174.342 117.998 174.493C117.209 174.53 116.627 174.549 116.251 174.549C113.808 174.549 111.76 174.173 110.106 173.422C108.472 172.67 107.654 171.458 107.654 169.786V163.951Z" fill="#3B92B9"/>
<path d="M42.1029 97.3604C39.8513 88.7109 46.8828 80.8351 50.68 77.9784C52.2093 78.5011 55.1983 79.7109 54.9196 80.3688C54.5712 81.1912 55.6176 88.0966 63.0487 90.3553C70.4798 92.614 71.4545 94.816 74.2429 97.6096C76.4736 99.8446 74.5983 103.843 73.3818 105.563C73.0742 109.842 70.7749 110.977 69.6637 111.009C69.084 114.043 66.7454 114.382 63.6617 114.691C61.1947 114.938 57.6704 112.076 56.2166 110.615C52.4502 109.8 44.3546 106.01 42.1029 97.3604Z" fill="#9B7963"/>
<path d="M68.2832 98.9434C69.5527 99.5037 72.3404 101.592 73.335 105.461" stroke="#5A4335" stroke-width="0.205521" stroke-linecap="round"/>
<path d="M68.1074 105.552C68.8244 106.532 70.1415 108.979 69.6741 110.921" stroke="#5A4335" stroke-width="0.205521" stroke-linecap="round"/>
<path d="M62.207 107.565C63.2213 108.769 64.8438 111.864 63.219 114.613" stroke="#5A4335" stroke-width="0.205521" stroke-linecap="round"/>
<path d="M117.839 98.6181C120.021 90.0106 113.269 81.982 109.62 79.0436C108.147 79.5345 105.269 80.6822 105.536 81.3463C105.87 82.1765 104.85 89.0643 97.6953 91.1681C90.5403 93.2718 89.5984 95.4546 86.9102 98.1914C84.7596 100.381 86.5569 104.422 87.7244 106.168C88.0127 110.456 90.2233 111.64 91.2926 111.696C91.8449 114.743 94.0947 115.132 97.0616 115.506C99.4351 115.805 102.832 113.016 104.233 111.584C107.859 110.848 115.656 107.226 117.839 98.6181Z" fill="#9B7963"/>
<path d="M87.7698 106.093C87.9068 104.504 89.2291 101.053 93.4222 99.9656" stroke="#5A4335" stroke-width="0.205521" stroke-linecap="round"/>
<path d="M91.2464 111.593C91.2697 110.381 91.8341 107.598 93.9054 106.155" stroke="#5A4335" stroke-width="0.205521" stroke-linecap="round"/>
<path d="M96.0121 115.258C95.5532 113.906 95.2435 110.581 97.6755 108.09" stroke="#5A4335" stroke-width="0.205521" stroke-linecap="round"/>
<path d="M103.974 111.733L108.991 105.45" stroke="#5A4335" stroke-width="0.205521" stroke-linecap="round"/>
<defs>
<linearGradient id="paint0_linear_358_55217" x1="80" y1="82.0732" x2="80" y2="234" gradientUnits="userSpaceOnUse">
<stop stop-color="#90CEEA"/>
<stop offset="0.16" stop-color="#3B92B9"/>
<stop offset="0.5" stop-color="#123241"/>
<stop offset="0.785" stop-color="#3B92B9"/>
<stop offset="1" stop-color="#90CEEA"/>
</linearGradient>
</defs>
</svg>
