<svg width="112" height="86" viewBox="0 0 112 86" fill="none" xmlns="http://www.w3.org/2000/svg">
<path d="M83.3635 44.0501C88.5771 39.547 100.568 30.8468 106.825 32.0703C108.687 32.4101 112.063 34.7721 110.673 41.5012C110.176 44.4324 108.587 50.8301 106.204 52.9712L102.853 56.7945L108.935 50.5497C109.804 50.2524 111.194 50.7027 109.804 54.8828C109.337 56.9982 106.921 62.0236 100.947 66.0904L105.087 63.4216C105.873 63.634 106.378 65.2313 102.108 69.9213C100.618 71.1533 96.7451 73.7701 93.1701 74.3818C90.9357 75.0616 85.6228 76.217 82.2463 75.4014C78.8699 74.5858 81.5843 54.1607 83.3635 44.0501Z" fill="#E4F2F1" stroke="black" stroke-width="0.982659" stroke-linejoin="round"/>
<path d="M28.6366 44.0501C23.423 39.547 11.4317 30.8468 5.17533 32.0703C3.31333 32.4101 -0.0631084 34.7721 1.32719 41.5012C1.82372 44.4324 3.41263 50.8301 5.796 52.9712L9.14761 56.7945L3.06506 50.5497C2.19613 50.2524 0.805828 50.7027 2.19613 54.8828C2.66264 56.9982 5.07961 62.0236 11.0531 66.0904L6.9132 63.4216C6.12702 63.634 5.62221 65.2313 9.89241 69.9213C11.382 71.1533 15.255 73.7701 18.83 74.3818C21.0644 75.0616 26.3774 76.217 29.7538 75.4014C33.1302 74.5858 30.4158 54.1607 28.6366 44.0501Z" fill="#E4F2F1" stroke="black" stroke-width="0.982659" stroke-linejoin="round"/>
<ellipse cx="26.3318" cy="44.3563" rx="8.52998" ry="7.61215" fill="#9B7963"/>
<ellipse cx="26.3318" cy="44.3562" rx="6.09285" ry="5.43725" fill="#3B2F1E"/>
<ellipse cx="87.2605" cy="44.3563" rx="8.52998" ry="7.61215" fill="#9B7963"/>
<ellipse cx="87.2602" cy="44.3562" rx="6.09285" ry="5.43725" fill="#3B2F1E"/>
<path d="M35.6154 32.3854C28.5808 37.5658 25.0354 47.1518 23.9554 52.0245C23.8349 52.5679 23.6484 53.0929 23.375 53.5776L22.2865 55.5073C21.8611 56.2616 21.6375 57.113 21.6375 57.9789V61.7412C22.211 66.5194 24.9827 70.6792 26.2968 72.1618C31.1712 78.8717 43.6995 81.9894 49.3544 82.7095C65.3632 84.1074 71.2172 81.82 77.4296 79.6596C83.642 77.4992 89.1376 72.416 91.527 67.714C93.2607 64.3022 92.8323 59.0297 92.2919 56.182C92.1916 55.6532 91.9807 55.1534 91.6988 54.6948L90.7719 53.1869C90.3268 52.4628 90.092 51.6354 89.951 50.7973C88.9594 44.9048 83.3571 36.6817 80.2386 32.7592C80.0399 32.5092 79.8136 32.2789 79.5658 32.0774C65.3607 20.5284 44.8529 25.5828 35.6154 32.3854Z" fill="#9B7963"/>
<path fill-rule="evenodd" clip-rule="evenodd" d="M21.7394 64.9454C25.3674 59.3452 32.3215 55.5571 40.3044 55.5571C45.177 55.5571 49.6665 56.9685 53.2501 59.3419C55.9889 61.1558 60.0156 61.1558 62.7544 59.3419C66.3381 56.9685 70.8275 55.5571 75.7002 55.5571C83.0737 55.5571 89.5695 58.789 93.3772 63.6956C88.8072 76.5862 74.3933 86.0002 57.3192 86.0002C40.8019 86.0002 26.7741 77.1902 21.7394 64.9454Z" fill="#F5E8CF"/>
<path d="M55.0385 20.9189C55.0088 19.713 56.1029 18.7145 57.4823 18.6885C58.8617 18.6625 60.0039 19.619 60.0336 20.8249L60.0757 22.5362L60.7392 20.9427C61.2111 19.8093 62.6446 19.2249 63.941 19.6374C65.2375 20.0499 65.906 21.3032 65.4341 22.4366L63.1557 27.9091C62.6838 29.0425 61.2503 29.6269 59.9538 29.2144C59.5387 29.0823 59.188 28.864 58.9185 28.5911C58.5684 28.7662 58.1648 28.8696 57.7332 28.8777C57.3795 28.8844 57.0414 28.8264 56.7337 28.7163C56.5035 29.3322 55.9634 29.8527 55.2129 30.0915C53.9165 30.5041 52.4829 29.9197 52.0111 28.7863L49.7326 23.3137C49.2608 22.1803 49.9292 20.9271 51.2257 20.5146C52.5222 20.1021 53.9557 20.6865 54.4276 21.8199L55.1005 23.4362L55.0385 20.9189Z" fill="#9B7963"/>
<path d="M58.4803 59.8691V66.9118C58.4803 68.5967 59.8462 69.9625 61.531 69.9625H62.5982C64.283 69.9625 65.6489 68.5967 65.6489 66.9118V66.7359" stroke="#3B2F1E" stroke-width="0.628839" stroke-linecap="round" stroke-linejoin="round"/>
<path d="M58.4807 59.8691V66.9118C58.4807 68.5967 57.1148 69.9625 55.43 69.9625H54.3628C52.678 69.9625 51.3121 68.5967 51.3121 66.9118V66.7359" stroke="#3B2F1E" stroke-width="0.628839" stroke-linecap="round" stroke-linejoin="round"/>
<path d="M65.4976 60.3007C65.4976 62.0991 62.3221 63.5571 58.4049 63.5571C54.4876 63.5571 51.3121 62.0991 51.3121 60.3007C51.3121 58.5022 54.4876 56.9126 58.4049 56.9126C62.3221 56.9126 65.4976 58.5022 65.4976 60.3007Z" fill="#3B2F1E"/>
<ellipse cx="81.6089" cy="66.4281" rx="7.76707" ry="6.25284" fill="#FFCEB9"/>
<ellipse cx="33.8183" cy="66.4281" rx="7.76707" ry="6.25284" fill="#FFCEB9"/>
<ellipse cx="37.3162" cy="55.5535" rx="5.12037" ry="4.07794" fill="#3B2F1E"/>
<ellipse cx="77.5963" cy="55.5535" rx="5.12037" ry="4.07794" fill="#3B2F1E"/>
<path d="M34.0632 63.9523L19.0434 62.8649M34.5841 66.3846L19.0434 67.2147M35.297 68.7153L19.7261 71.5645" stroke="#3B2F1E" stroke-width="0.503071" stroke-linecap="round"/>
<path d="M81.3801 63.9523L96.3999 62.8648M80.8592 66.3846L96.3999 67.2146M80.1463 68.7153L95.7172 71.5645" stroke="#3B2F1E" stroke-width="0.503071" stroke-linecap="round"/>
<ellipse cx="1.2014" cy="1.07371" rx="1.2014" ry="1.07371" transform="matrix(-0.908556 -0.417763 0.586934 -0.809635 40.5233 55.8491)" fill="white"/>
<ellipse cx="0.639998" cy="0.65073" rx="0.639998" ry="0.65073" transform="matrix(-0.835195 -0.549954 0.451648 -0.892196 45.4656 62.04)" fill="black"/>
<ellipse cx="0.639998" cy="0.65073" rx="0.639998" ry="0.65073" transform="matrix(-0.835195 -0.549954 0.451648 -0.892196 42.9532 63.2827)" fill="black"/>
<ellipse cx="0.639998" cy="0.65073" rx="0.639998" ry="0.65073" transform="matrix(-0.835195 -0.549954 0.451648 -0.892196 40.7743 64.5249)" fill="black"/>
<ellipse cx="0.639998" cy="0.65073" rx="0.639998" ry="0.65073" transform="matrix(-0.835195 -0.549954 0.451648 -0.892196 47.3101 63.2827)" fill="black"/>
<ellipse cx="0.639998" cy="0.65073" rx="0.639998" ry="0.65073" transform="matrix(-0.835195 -0.549954 0.451648 -0.892196 45.1317 64.5249)" fill="black"/>
<ellipse cx="0.640052" cy="0.650875" rx="0.640052" ry="0.650875" transform="matrix(0.835124 -0.550062 -0.451547 -0.892247 69.5424 62.1831)" fill="black"/>
<ellipse cx="0.640052" cy="0.650875" rx="0.640052" ry="0.650875" transform="matrix(0.835124 -0.550062 -0.451547 -0.892247 72.0547 63.4258)" fill="black"/>
<ellipse cx="0.640052" cy="0.650875" rx="0.640052" ry="0.650875" transform="matrix(0.835124 -0.550062 -0.451547 -0.892247 74.2337 64.6685)" fill="black"/>
<ellipse cx="0.640052" cy="0.650875" rx="0.640052" ry="0.650875" transform="matrix(0.835124 -0.550062 -0.451547 -0.892247 67.6974 63.4258)" fill="black"/>
<ellipse cx="0.640052" cy="0.650875" rx="0.640052" ry="0.650875" transform="matrix(0.835124 -0.550062 -0.451547 -0.892247 69.8763 64.6685)" fill="black"/>
<path d="M37.6777 49.7794C37.6889 49.4786 38.8046 48.7743 39.9196 48.7919C41.0346 48.8096 41.7268 49.5426 41.7156 49.8434C41.7044 50.1443 40.7914 50.3739 39.6764 50.3562C38.5613 50.3385 37.6665 50.0803 37.6777 49.7794Z" fill="white"/>
<path d="M73.084 49.7794C73.0952 49.4786 74.2109 48.7743 75.3259 48.7919C76.4409 48.8096 77.1331 49.5426 77.1219 49.8434C77.1107 50.1443 76.1977 50.3739 75.0827 50.3562C73.9676 50.3385 73.0728 50.0803 73.084 49.7794Z" fill="white"/>
<ellipse cx="1.2014" cy="1.07371" rx="1.2014" ry="1.07371" transform="matrix(-0.908556 -0.417763 0.586934 -0.809635 80.1209 55.8491)" fill="white"/>
<path fill-rule="evenodd" clip-rule="evenodd" d="M50.309 15.8476C41.6588 14.2401 27.4527 9.50921 39.4756 3.39971C39.585 3.34409 39.7022 3.29506 39.8192 3.25813C44.6056 1.74848 56.5827 -0.46608 67.6487 2.36471C75.9974 4.26074 89.0985 9.38004 74.713 14.6889C71.1166 15.9178 61.2009 17.87 50.309 15.8476ZM53.8718 11.6306C49.1337 10.8809 41.3298 8.63431 48.0189 5.64535C50.5537 4.90693 57.1506 3.76566 63.2594 5.10794C67.8122 5.99346 74.9648 8.41212 67.1536 11.0027C65.2004 11.6031 59.8096 12.5693 53.8718 11.6306Z" fill="#FFECC0"/>
<path d="M39.4756 3.39971L39.253 2.96169L39.253 2.96169L39.4756 3.39971ZM50.309 15.8476L50.2192 16.3307L50.2193 16.3307L50.309 15.8476ZM39.8192 3.25813L39.6715 2.78956L39.6715 2.78956L39.8192 3.25813ZM67.6487 2.36471L67.5269 2.84089L67.5399 2.84384L67.6487 2.36471ZM74.713 14.6889L74.8719 15.154L74.8831 15.1499L74.713 14.6889ZM48.0189 5.64535L47.8814 5.17363C47.8599 5.17989 47.8389 5.18762 47.8184 5.19676L48.0189 5.64535ZM53.8718 11.6306L53.795 12.1159L53.7951 12.1159L53.8718 11.6306ZM63.2594 5.10794L63.154 5.58796L63.1656 5.59023L63.2594 5.10794ZM67.1536 11.0027L67.298 11.4724L67.3083 11.469L67.1536 11.0027ZM39.253 2.96169C37.7254 3.73792 36.5864 4.5059 35.7937 5.26871C35.0008 6.0317 34.5301 6.81368 34.3952 7.61444C34.1198 9.24912 35.2708 10.6255 36.8619 11.717C38.4845 12.8303 40.7478 13.7806 43.1248 14.551C45.509 15.3237 48.0399 15.9256 50.2192 16.3307L50.3988 15.3645C48.253 14.9658 45.7643 14.3735 43.4277 13.6162C41.0839 12.8565 38.9252 11.9409 37.4178 10.9067C35.879 9.85099 35.1922 8.79861 35.3642 7.77772C35.453 7.25069 35.7774 6.64817 36.4751 5.97677C37.173 5.30519 38.22 4.58887 39.6981 3.83773L39.253 2.96169ZM39.6715 2.78956C39.526 2.83544 39.3839 2.89517 39.253 2.96169L39.6981 3.83773C39.7862 3.793 39.8783 3.75469 39.967 3.7267L39.6715 2.78956ZM67.7704 1.88871C56.5854 -0.972545 44.5096 1.26356 39.6715 2.78956L39.967 3.7267C44.7016 2.23339 56.58 0.0403853 67.5269 2.84071L67.7704 1.88871ZM74.8831 15.1499C76.7016 14.4788 78.1067 13.8032 79.1499 13.1248C80.1892 12.4489 80.9002 11.7502 81.2864 11.0199C81.6827 10.2705 81.7221 9.51387 81.4635 8.79088C81.2121 8.08827 80.6919 7.45004 80.0276 6.8754C78.701 5.72785 76.665 4.71981 74.4725 3.88455C72.2689 3.0451 69.8618 2.36349 67.7575 1.88558L67.5399 2.84384C69.6099 3.31395 71.9712 3.98326 74.1226 4.80284C76.285 5.62661 78.1907 6.5857 79.3847 7.61859C79.9807 8.13417 80.3657 8.63949 80.5382 9.1219C80.7035 9.58393 80.6857 10.0538 80.4178 10.5605C80.1397 11.0863 79.5793 11.6734 78.6142 12.301C77.653 12.9261 76.3207 13.5719 74.5429 14.228L74.8831 15.1499ZM50.2193 16.3307C61.2055 18.3706 71.2072 16.4061 74.8718 15.1539L74.5541 14.224C71.026 15.4295 61.1962 17.3694 50.3987 15.3645L50.2193 16.3307ZM47.8184 5.19676C46.9602 5.58024 46.3058 5.96398 45.8404 6.35294C45.378 6.73945 45.0632 7.16414 44.9643 7.63508C44.8614 8.12468 45.0105 8.57143 45.2862 8.94613C45.554 9.3102 45.9524 9.62477 46.4065 9.8985C47.3167 10.4472 48.5776 10.9058 49.8851 11.2725C51.2002 11.6414 52.5955 11.9261 53.795 12.1159L53.9486 11.1453C52.7791 10.9603 51.422 10.683 50.1504 10.3264C48.8711 9.96758 47.7106 9.53722 46.9138 9.0569C46.5143 8.81613 46.2377 8.58122 46.0777 8.36377C45.9255 8.15695 45.8938 7.99014 45.926 7.83709C45.962 7.66538 46.098 7.41831 46.4706 7.10694C46.8402 6.798 47.4052 6.4577 48.2193 6.09393L47.8184 5.19676ZM63.3649 4.62806C57.1496 3.2624 50.4649 4.42104 47.8814 5.17363L48.1563 6.11707C50.6425 5.39282 57.1515 4.26893 63.154 5.58782L63.3649 4.62806ZM67.3083 11.469C68.3029 11.1391 69.0799 10.8055 69.6626 10.4667C70.2388 10.1317 70.6643 9.76914 70.9039 9.36285C71.1592 8.92997 71.1864 8.47352 71.0084 8.04433C70.8426 7.6447 70.5158 7.3073 70.1384 7.02334C69.3816 6.45378 68.2418 5.96743 67.0408 5.57163C65.8282 5.17199 64.5068 4.85001 63.3533 4.62565L63.1656 5.59023C64.2885 5.80863 65.5684 6.12105 66.7333 6.50491C67.9097 6.89262 68.9235 7.33888 69.5475 7.8085C69.8606 8.04412 70.031 8.25294 70.1007 8.42086C70.1581 8.55923 70.1589 8.69165 70.0575 8.86364C69.9404 9.06224 69.6787 9.3206 69.1687 9.61717C68.6652 9.90991 67.9571 10.2185 66.9989 10.5363L67.3083 11.469ZM53.7951 12.1159C59.8161 13.0677 65.2828 12.0918 67.298 11.4723L67.0092 10.533C65.118 11.1144 59.8031 12.0708 53.9485 11.1453L53.7951 12.1159Z" fill="black"/>
</svg>
