<svg width="115" height="75" viewBox="0 0 115 75" fill="none" xmlns="http://www.w3.org/2000/svg">
<path d="M9.82334 71.1491L112.669 74.5206C112.913 74.5286 113.155 74.5706 113.387 74.6454C114.089 74.8713 114.946 74.7487 114.995 74.0126C115.189 71.0408 110.175 62.8726 106.339 57.2703C105.524 56.0805 104.395 55.4136 103.299 54.4765C101.679 53.0913 96.5335 43.7019 95.4139 41.8883C91.659 35.8059 85.2277 26.4283 80.6732 19.9457C79.9784 18.9567 79.5563 17.7537 78.6774 16.9239C74.661 13.1318 60.4143 14.3004 60.7396 14.719C61.0012 15.0556 58.1413 12.1335 56.2435 10.1838C55.8669 9.79684 55.3505 9.57874 54.8105 9.57874C53.554 9.57874 52.6429 8.24373 51.7745 7.33553C50.3758 5.87256 47.0161 5.47859 43.86 5.52838C41.2034 5.5703 38.6038 4.70033 36.4002 3.21588C33.2178 1.07201 30.3084 0.241412 28.1376 0.0472052C26.1815 -0.127786 24.4485 1.0491 23.1764 2.54538C10.2269 17.778 21.1122 6.14362 12.4374 22.663C3.35809 39.9529 7.353 38.0837 4.81078 39.9529C3.39246 40.9957 1.65622 50.8867 0.365738 60.0531C-0.447884 65.8323 3.99026 70.9579 9.82334 71.1491Z" fill="#E1E1E1"/>
</svg>
