<svg width="80" height="78" viewBox="0 0 80 78" fill="none" xmlns="http://www.w3.org/2000/svg">
<g filter="url(#filter0_d_828_15152)">
<ellipse cx="40.0002" cy="34" rx="35" ry="34" fill="white"/>
<path d="M74.1049 34C74.1049 52.2589 58.8603 67.1047 40.0002 67.1047C21.14 67.1047 5.8955 52.2589 5.8955 34C5.8955 15.7411 21.14 0.895313 40.0002 0.895313C58.8603 0.895313 74.1049 15.7411 74.1049 34Z" stroke="#DB8181" stroke-width="1.79063"/>
</g>
<rect x="31.2511" y="47.9309" width="17.4975" height="5.84221" rx="2.92111" fill="#FF9999" stroke="black" stroke-width="1.25344"/>
<path d="M20.6719 43.2712L31.261 50.3685H48.4681L59.0572 43.2712C63.8223 40.1169 61.4839 34.0711 59.719 31.4425C61.3074 16.9325 51.9978 16.9851 47.1445 18.8251C41.3205 9.3621 34.57 14.8822 31.9227 18.8251C19.7453 14.409 18.907 26.4481 20.0101 33.0196C16.3039 36.8048 18.9071 41.4312 20.6719 43.2712Z" fill="#FF9999" stroke="black" stroke-width="1.25344" stroke-linecap="round"/>
<path d="M20.3705 33.3101L28.9745 39.6173" stroke="black" stroke-width="1.25344" stroke-linecap="round"/>
<path d="M32.1688 19.2769L35.3326 34.0992" stroke="black" stroke-width="1.25344" stroke-linecap="round"/>
<path d="M47.2035 18.9609L43.277 32.5215" stroke="black" stroke-width="1.25344" stroke-linecap="round"/>
<path d="M59.4325 31.7622L49.8954 38.8291" stroke="black" stroke-width="1.25344" stroke-linecap="round"/>
<defs>
<filter id="filter0_d_828_15152" x="0.225183" y="0" width="79.55" height="77.55" filterUnits="userSpaceOnUse" color-interpolation-filters="sRGB">
<feFlood flood-opacity="0" result="BackgroundImageFix"/>
<feColorMatrix in="SourceAlpha" type="matrix" values="0 0 0 0 0 0 0 0 0 0 0 0 0 0 0 0 0 0 127 0" result="hardAlpha"/>
<feOffset dy="4.775"/>
<feGaussianBlur stdDeviation="2.3875"/>
<feComposite in2="hardAlpha" operator="out"/>
<feColorMatrix type="matrix" values="0 0 0 0 0.721569 0 0 0 0 0.427451 0 0 0 0 0.427451 0 0 0 0.2 0"/>
<feBlend mode="normal" in2="BackgroundImageFix" result="effect1_dropShadow_828_15152"/>
<feBlend mode="normal" in="SourceGraphic" in2="effect1_dropShadow_828_15152" result="shape"/>
</filter>
</defs>
</svg>
