<svg width="34" height="34" viewBox="0 0 34 34" fill="none" xmlns="http://www.w3.org/2000/svg">
<circle cx="17" cy="17" r="16.5" fill="#EF4C4C" stroke="#F7F2F2"/>
<path d="M14.75 11.375H13.625C13.3266 11.375 13.0405 11.4935 12.8295 11.7045C12.6185 11.9155 12.5 12.2016 12.5 12.5V21.5C12.5 21.7984 12.6185 22.0845 12.8295 22.2955C13.0405 22.5065 13.3266 22.625 13.625 22.625H14.75C15.0484 22.625 15.3345 22.5065 15.5455 22.2955C15.7565 22.0845 15.875 21.7984 15.875 21.5V12.5C15.875 12.2016 15.7565 11.9155 15.5455 11.7045C15.3345 11.4935 15.0484 11.375 14.75 11.375ZM20.375 11.375H19.25C18.9516 11.375 18.6655 11.4935 18.4545 11.7045C18.2435 11.9155 18.125 12.2016 18.125 12.5V21.5C18.125 21.7984 18.2435 22.0845 18.4545 22.2955C18.6655 22.5065 18.9516 22.625 19.25 22.625H20.375C20.6734 22.625 20.9595 22.5065 21.1705 22.2955C21.3815 22.0845 21.5 21.7984 21.5 21.5V12.5C21.5 12.2016 21.3815 11.9155 21.1705 11.7045C20.9595 11.4935 20.6734 11.375 20.375 11.375Z" fill="white"/>
</svg>
