<svg width="26" height="23" viewBox="0 0 26 23" fill="none" xmlns="http://www.w3.org/2000/svg">
<g filter="url(#filter0_d_552_17048)">
<ellipse cx="13" cy="10" rx="11" ry="10" fill="white"/>
<path d="M23.7656 10C23.7656 15.3729 18.9672 19.7656 13 19.7656C7.03279 19.7656 2.23438 15.3729 2.23438 10C2.23438 4.62712 7.03279 0.234375 13 0.234375C18.9672 0.234375 23.7656 4.62712 23.7656 10Z" stroke="#776BA8" stroke-width="0.46875"/>
</g>
<path d="M8.83733 9.00381C9.02196 8.50889 9.31813 7.84095 9.70109 7.19091C10.1639 6.40536 10.741 5.66739 11.3843 5.27992L11.3916 5.27551L11.3985 5.27036C11.6226 5.10163 11.9755 4.84858 12.3048 4.63845C12.4698 4.53322 12.6259 4.44059 12.7555 4.37488C12.8204 4.34197 12.8759 4.31722 12.9207 4.30105C12.943 4.293 12.961 4.28768 12.975 4.28448C12.9818 4.2829 12.9872 4.28197 12.9911 4.28146C12.995 4.28093 12.9969 4.28092 12.9968 4.28092H13.0201L13.0425 4.2745C13.4171 4.16707 14.0135 4.10313 14.5744 4.25791C15.1265 4.41025 15.6443 4.77303 15.8961 5.53116C15.9519 5.69925 16.0358 5.96882 16.1055 6.22924C16.1775 6.49796 16.2272 6.73204 16.2272 6.84269V7.39115L8.83733 9.00381Z" fill="#AC98FF" stroke="black" stroke-width="0.33125"/>
<path d="M12.2952 15.4031L12.2857 15.4099L12.2773 15.418C12.0886 15.5985 11.4562 15.9437 10.4738 15.8005C10.4341 15.7947 10.3894 15.7902 10.3489 15.7862C10.3337 15.7847 10.3191 15.7832 10.3057 15.7818C10.253 15.7762 10.211 15.7703 10.1786 15.7619C10.1894 15.7458 10.2035 15.7274 10.2197 15.7083C10.2609 15.6599 10.2994 15.6262 10.3122 15.6181C10.6241 15.421 11.1289 14.9467 11.409 14.1469C11.4964 13.9389 11.6335 13.6657 11.7992 13.4145C11.9686 13.1577 12.1566 12.9416 12.3389 12.8317C12.4232 12.7808 12.5109 12.7881 12.6063 12.8518C12.7072 12.9192 12.8004 13.0429 12.8524 13.183C12.9762 13.5165 13.0529 13.9191 12.9912 14.3127C12.9303 14.7009 12.734 15.0884 12.2952 15.4031Z" fill="#AC98FF" stroke="black" stroke-width="0.33125"/>
<path d="M8.50429 13.3554L8.49775 13.3641L8.49241 13.3736C8.02142 14.2094 7.42763 14.5626 6.95693 14.6877C6.72575 14.7491 6.49341 14.6526 6.39998 14.4596C6.31354 14.2809 6.27934 14.1021 6.29386 13.9832C6.29892 13.9417 6.32886 13.8964 6.39964 13.817C7.90255 12.1315 7.60598 10.5258 7.1917 9.81482C7.15661 9.7546 7.12656 9.70272 7.10191 9.64904L6.65295 8.67111C6.6209 8.60131 6.57945 8.53555 6.54491 8.48074C6.53952 8.47219 6.5343 8.46391 6.52931 8.45592C6.48938 8.392 6.46001 8.34081 6.44215 8.28901C6.40053 8.16826 6.43658 8.01762 6.51099 7.87969C6.56892 7.77233 6.68282 7.70304 6.80926 7.69922C7.15975 7.68863 7.48207 7.89617 7.77767 8.20688C8.02907 8.47112 8.23902 8.78582 8.41361 9.0475C8.44325 9.09193 8.47187 9.13483 8.4995 9.1757L8.49933 9.17581L8.50429 9.18241C9.75533 10.8476 9.02921 12.6567 8.50429 13.3554Z" fill="#AC98FF" stroke="black" stroke-width="0.33125"/>
<path d="M11.3866 6.79264L11.3867 6.7927L11.3907 6.78998C12.3692 6.13514 15.0097 5.26932 17.6558 7.12877L17.6558 7.1288L17.6589 7.1309C17.9612 7.33324 18.4089 7.70361 18.8013 8.174C19.1949 8.64594 19.5207 9.20405 19.6029 9.78263C19.6186 9.89293 19.6367 10.008 19.6546 10.1215C19.6685 10.2097 19.6822 10.297 19.6946 10.3803C19.7031 10.4382 19.7083 10.4965 19.7088 10.5524C19.7104 10.7221 19.6079 10.8617 19.4154 11.02C19.3422 11.0802 19.2635 11.1373 19.1801 11.1978C19.1548 11.2161 19.1291 11.2348 19.1029 11.2539C18.994 11.3338 18.8798 11.421 18.7821 11.5191L18.6525 11.6492C18.5882 11.7137 18.5202 11.7963 18.4688 11.8866C18.4192 11.9737 18.3745 12.0865 18.384 12.2054C18.3946 12.3387 18.4708 12.4501 18.6035 12.5199C18.7138 12.5779 18.8615 12.6074 19.0466 12.6127C19.0324 12.6296 19.0146 12.6494 18.9921 12.6719L18.9848 12.6792L18.9785 12.6874C18.2126 13.6759 15.8752 15.4704 12.699 14.6741C12.0971 14.509 11.1516 14.0932 10.2917 13.3854C9.43889 12.6835 8.67864 11.7017 8.41075 10.4003C8.5327 9.74986 9.28054 8.11404 11.3866 6.79264Z" fill="#AC98FF" stroke="black" stroke-width="0.33125"/>
<path d="M17.7289 9.41562C17.5934 9.41562 17.4442 9.55083 17.4442 9.7708V10.4103C17.4442 10.6299 17.5935 10.7655 17.7289 10.7655C17.8648 10.7655 18.0141 10.6298 18.0141 10.4103V9.7708C18.0141 9.55094 17.8649 9.41562 17.7289 9.41562Z" fill="black" stroke="black" stroke-width="0.33125"/>
<defs>
<filter id="filter0_d_552_17048" x="0.75" y="0" width="24.5" height="22.5" filterUnits="userSpaceOnUse" color-interpolation-filters="sRGB">
<feFlood flood-opacity="0" result="BackgroundImageFix"/>
<feColorMatrix in="SourceAlpha" type="matrix" values="0 0 0 0 0 0 0 0 0 0 0 0 0 0 0 0 0 0 127 0" result="hardAlpha"/>
<feOffset dy="1.25"/>
<feGaussianBlur stdDeviation="0.625"/>
<feComposite in2="hardAlpha" operator="out"/>
<feColorMatrix type="matrix" values="0 0 0 0 0.458457 0 0 0 0 0.400946 0 0 0 0 0.693294 0 0 0 0.2 0"/>
<feBlend mode="normal" in2="BackgroundImageFix" result="effect1_dropShadow_552_17048"/>
<feBlend mode="normal" in="SourceGraphic" in2="effect1_dropShadow_552_17048" result="shape"/>
</filter>
</defs>
</svg>
