<svg width="360" height="300" viewBox="0 0 360 300" fill="none" xmlns="http://www.w3.org/2000/svg">
<path d="M92.2608 222.235C92.0293 225.86 93.0478 234.297 98.9736 239.043C95.8873 240.691 90.1312 245.618 91.7979 252.143C91.7207 254.45 92.8626 259.904 98.0477 263.266C106.304 266.479 126.797 271.521 142.722 265.985H221.887C238.09 267.468 269.895 267.221 267.488 254.368C268.105 253.461 268.969 250.413 267.488 245.469C277.518 240.031 296.885 227.376 294.107 220.258L287.214 216.774" stroke="white" stroke-width="0.70851" stroke-linecap="round"/>
<g filter="url(#filter0_d_358_54884)">
<path d="M274.738 201.058C275.662 181.647 257.87 173.236 248.859 171.456C254.959 163.886 266.035 168.949 270.81 172.427C281.532 179.997 285.752 192.404 286.523 197.661C290.22 213.384 283.596 227.506 279.822 232.602C272.797 242.113 261.953 245.138 257.408 245.462L241.234 243.278L242.851 218.043L257.408 219.499C270.533 221.828 274.43 208.176 274.738 201.058Z" fill="#9B7963"/>
<path d="M133.096 125.299C140.721 109.527 140.952 105.645 140.721 100.064C168.141 100.226 222.795 100.55 222.056 100.55C221.132 100.55 222.518 114.38 229.45 124.814C236.382 135.247 234.996 135.49 237.306 141.313C239.617 147.137 235.92 162.666 234.996 162.666C234.072 162.666 235.92 179.165 235.227 182.32C234.672 184.843 236.69 189.356 237.769 191.297C232.778 191.491 228.141 196.393 226.446 198.819C198.795 205.209 142.708 215.755 139.565 206.826C136.423 197.897 124.392 192.106 118.77 190.327C122.852 184.18 130.138 169.46 126.626 159.754C123.114 150.048 124.854 141.313 126.164 138.159C127.473 135.652 130.693 129.57 133.096 125.299Z" fill="#9B7963" stroke="#9B7963" stroke-width="0.354255"/>
<path d="M103.145 241.404C91.7589 228.961 94.3566 211.756 97.0787 204.708C103.834 193.368 111.224 189.966 118.078 190.718C119.385 189.441 121.267 186.066 122.045 184.538C126.711 177.733 127.411 166.798 127.178 162.18H235.441C235.596 168.742 235.907 182.205 235.907 183.566C235.907 184.927 237.774 188.993 238.707 190.856C244.618 189.56 257.607 190.759 262.273 205.923C266.94 221.088 260.329 233.789 256.44 238.245C245.24 232.412 234.507 236.787 230.541 239.703C226.574 243.429 218.455 251.368 217.708 253.312C216.961 255.256 209.308 257.362 205.575 258.172C188.853 257.929 156.064 258.071 155.508 258.266C154.815 258.508 150.744 256.471 148.177 255.256C148.41 255.823 145.984 253.992 134.411 242.133C122.838 230.274 108.745 236.706 103.145 241.404Z" fill="#9B7963"/>
<rect x="143.723" y="257.829" width="61.9257" height="0.485291" fill="#9B7963"/>
<path d="M96.6654 249.276C98.2909 240.086 106.825 236.16 110.888 235.345C115.359 234.758 120.54 235.1 122.572 235.345C127.042 235.54 134.086 240.966 137.049 243.654C140.909 248.542 145.6 252.534 147.462 253.919C151.119 256.656 154.743 257.504 156.098 257.585L170.067 258.318H162.701H158.129H143.652C141.621 258.709 140.266 258.807 139.843 258.807L133.747 260.274C131.207 261.496 125.366 261.74 123.588 261.496C122.165 261.3 121.302 260.599 121.048 260.274C119.829 261.251 119.016 261.496 118.762 261.496C115.917 261.887 113.682 261.658 112.92 261.496C111.701 261.3 110.55 260.762 110.127 260.518C109.72 261.104 109.111 261.414 108.857 261.496C106.012 262.082 103.1 260.925 101.999 260.274C96.9194 256.95 96.3268 251.557 96.6654 249.276Z" fill="#9B7963"/>
<path d="M120.946 260.158C117.789 256.68 113.415 247.881 121.177 240.504" stroke="#5A4335" stroke-width="0.247978" stroke-linecap="round"/>
<path d="M264.261 249.276C262.605 240.086 253.91 236.16 249.77 235.345C245.215 234.758 239.936 235.1 237.866 235.345C233.312 235.54 226.135 240.966 223.116 243.654C219.183 248.542 214.404 252.534 212.506 253.919C208.78 256.656 205.088 257.504 203.708 257.585L189.475 258.318H196.98H201.638H216.388C218.458 258.709 219.838 258.807 220.269 258.807L226.48 260.274C229.068 261.495 235.02 261.74 236.831 261.495C238.28 261.3 239.16 260.599 239.419 260.274C240.661 261.251 241.489 261.495 241.748 261.495C244.646 261.887 246.923 261.658 247.7 261.495C248.942 261.3 250.115 260.762 250.546 260.518C250.96 261.104 251.581 261.414 251.84 261.495C254.738 262.082 257.706 260.925 258.827 260.274C264.003 256.95 264.606 251.557 264.261 249.276Z" fill="#9B7963"/>
<path d="M250.667 260.401C253.884 256.924 258.341 248.124 250.432 240.748" stroke="#5A4335" stroke-width="0.247978" stroke-linecap="round"/>
<path d="M239.529 260.159C242.746 256.681 247.203 247.881 239.294 240.505" stroke="#5A4335" stroke-width="0.247978" stroke-linecap="round"/>
<path d="M167.953 258.363C128.3 218.83 141.703 142.57 153.361 109.382H210.571C235.215 174.552 210.03 235.857 194.358 258.363H167.953Z" fill="#F5E8CF"/>
<path d="M127.104 159.269C120.449 146.263 128.336 130.88 133.111 124.814C135.653 125.057 140.69 125.833 140.506 126.998C140.275 128.454 144.434 139.13 156.68 139.858C168.927 140.586 171.237 143.74 176.552 147.137C180.804 149.854 179.402 157.004 178.169 160.239C179.278 167.227 176.167 169.945 174.472 170.43C174.703 175.526 171.237 176.982 166.616 178.68C162.919 180.039 156.449 176.82 153.676 175.041C147.592 175.202 133.758 172.274 127.104 159.269Z" fill="#9B7963"/>
<path d="M235.543 159.855C241.932 146.811 234.36 131.383 229.775 125.299C227.335 125.542 222.499 126.321 222.676 127.489C222.898 128.949 218.905 139.657 207.147 140.387C195.389 141.117 193.17 144.28 188.068 147.687C183.986 150.413 185.332 157.584 186.515 160.829C185.45 167.837 188.438 170.563 190.064 171.049C189.843 176.16 193.17 177.62 197.607 179.324C201.157 180.686 207.369 177.458 210.031 175.673C215.873 175.835 229.154 172.899 235.543 159.855Z" fill="#9B7963"/>
<path d="M109.992 260.401C106.834 256.923 102.46 248.123 110.223 240.747" stroke="#5A4335" stroke-width="0.247978" stroke-linecap="round"/>
<path d="M167.893 151.601C170.049 152.005 175.102 154.27 178.06 160.093" stroke="#5A4335" stroke-width="0.247978" stroke-linecap="round"/>
<path d="M170.065 162.277C171.528 163.571 174.455 166.985 174.455 170.284" stroke="#5A4335" stroke-width="0.247978" stroke-linecap="round"/>
<path d="M161.747 167.81C163.75 169.346 167.385 173.681 165.906 178.728" stroke="#5A4335" stroke-width="0.247978" stroke-linecap="round"/>
<path d="M186.61 160.724C187.38 158.217 190.63 153.154 197.47 152.96" stroke="#5A4335" stroke-width="0.247978" stroke-linecap="round"/>
<path d="M190.029 170.867C190.491 168.926 192.339 164.655 196.036 163.103" stroke="#5A4335" stroke-width="0.247978" stroke-linecap="round"/>
<path d="M196.076 178.535C195.845 176.189 196.538 170.722 201.158 167.616" stroke="#5A4335" stroke-width="0.247978" stroke-linecap="round"/>
<path d="M209.577 175.817L219.512 167.567" stroke="#5A4335" stroke-width="0.247978" stroke-linecap="round"/>
</g>
<ellipse cx="123.87" cy="49.6706" rx="15.5175" ry="14.7302" fill="#9B7963"/>
<ellipse cx="123.87" cy="49.6705" rx="11.084" ry="10.5216" fill="#3B2F1E"/>
<ellipse cx="234.71" cy="49.6706" rx="15.5175" ry="14.7302" fill="#9B7963"/>
<ellipse cx="234.71" cy="49.6705" rx="11.084" ry="10.5216" fill="#3B2F1E"/>
<path d="M140.76 26.5062C127.739 36.7059 121.289 55.7315 119.449 64.9956C119.304 65.7287 119.065 66.4346 118.715 67.095L116.157 71.9187C115.615 72.9411 115.332 74.0809 115.332 75.2382V83.3121C116.375 92.5585 121.417 100.608 123.808 103.477C132.675 116.461 155.466 122.494 165.753 123.888C194.876 126.593 205.526 122.166 216.827 117.986C228.129 113.805 238.126 103.969 242.473 94.8701C245.718 88.0764 244.799 77.4697 243.778 72.0868C243.643 71.3742 243.375 70.6969 243.012 70.0688L240.732 66.1234C240.162 65.1375 239.858 64.0312 239.715 62.9016C238.253 51.3617 227.563 34.718 221.794 27.0381C221.524 26.6795 221.219 26.3507 220.881 26.0559C195.034 3.51941 157.601 13.3139 140.76 26.5062Z" fill="#9B7963"/>
<path fill-rule="evenodd" clip-rule="evenodd" d="M116.903 89.5138C123.502 78.6764 136.153 71.3457 150.676 71.3457C160.446 71.3457 169.369 74.6636 176.173 80.135C179.914 83.1439 185.829 83.1439 189.571 80.135C196.374 74.6636 205.297 71.3457 215.067 71.3457C228.48 71.3457 240.297 77.599 247.224 87.0928C238.911 112.038 212.689 130.255 181.628 130.255C151.581 130.255 126.062 113.208 116.903 89.5138Z" fill="#F5E8CF"/>
<path d="M176.093 4.31702C176.039 1.98358 178.03 0.0512279 180.539 0.000998611C183.048 -0.0492307 185.126 1.80168 185.18 4.13513L185.257 7.44659L186.464 4.36304C187.322 2.16981 189.93 1.03897 192.289 1.83724C194.647 2.63551 195.863 5.0606 195.005 7.25383L190.86 17.8437C190.002 20.0369 187.394 21.1678 185.035 20.3695C184.28 20.1139 183.642 19.6916 183.152 19.1635C182.515 19.5023 181.781 19.7023 180.995 19.718C180.352 19.7309 179.737 19.6188 179.177 19.4056C178.758 20.5975 177.776 21.6048 176.411 22.0669C174.052 22.8652 171.444 21.7343 170.586 19.5411L166.441 8.95125C165.583 6.75802 166.799 4.33293 169.157 3.53466C171.516 2.73639 174.124 3.86722 174.982 6.06045L176.206 9.18819L176.093 4.31702Z" fill="#9B7963"/>
<path d="M182.355 79.689V94.9241C182.355 97.297 184.279 99.2206 186.651 99.2206H191.099C193.472 99.2206 195.396 97.297 195.396 94.9241V92.9768" stroke="#3B2F1E" stroke-width="0.885637" stroke-linecap="round" stroke-linejoin="round"/>
<path d="M182.355 79.689V94.9241C182.355 97.297 180.431 99.2206 178.058 99.2206H173.61C171.238 99.2206 169.314 97.297 169.314 94.9241V92.9768" stroke="#3B2F1E" stroke-width="0.885637" stroke-linecap="round" stroke-linejoin="round"/>
<path d="M195.12 80.525C195.12 84.0052 189.343 86.8264 182.216 86.8264C175.09 86.8264 169.313 84.0052 169.313 80.525C169.313 77.0448 175.09 73.9688 182.216 73.9688C189.343 73.9688 195.12 77.0448 195.12 80.525Z" fill="#3B2F1E"/>
<ellipse cx="224.43" cy="92.3815" rx="14.1297" ry="12.0998" fill="#FFCEB9"/>
<ellipse cx="137.49" cy="92.3815" rx="14.1297" ry="12.0998" fill="#FFCEB9"/>
<ellipse cx="143.851" cy="71.3384" rx="9.31485" ry="7.89118" fill="#3B2F1E"/>
<ellipse cx="217.131" cy="71.3384" rx="9.31485" ry="7.89118" fill="#3B2F1E"/>
<path d="M137.935 87.5898L110.612 85.486M138.882 92.2966L110.611 93.9035M140.179 96.8067L111.853 102.321" stroke="#3B2F1E" stroke-width="0.70851" stroke-linecap="round"/>
<path d="M224.012 87.5904L251.336 85.4861M223.065 92.2972L251.336 93.9034M221.768 96.8072L250.094 102.321" stroke="#3B2F1E" stroke-width="0.70851" stroke-linecap="round"/>
<ellipse cx="2.21026" cy="2.03563" rx="2.21026" ry="2.03563" transform="matrix(-0.898307 -0.439369 0.563165 -0.826345 149.688 71.9106)" fill="white"/>
<ellipse cx="1.18709" cy="1.24417" rx="1.18709" ry="1.24417" transform="matrix(-0.819067 -0.573698 0.429719 -0.902963 158.676 83.8911)" fill="black"/>
<ellipse cx="1.18709" cy="1.24417" rx="1.18709" ry="1.24417" transform="matrix(-0.819065 -0.5737 0.429717 -0.902964 154.107 86.2954)" fill="black"/>
<ellipse cx="1.18709" cy="1.24417" rx="1.18709" ry="1.24417" transform="matrix(-0.819065 -0.5737 0.429717 -0.902964 150.143 88.6992)" fill="black"/>
<ellipse cx="1.18709" cy="1.24417" rx="1.18709" ry="1.24417" transform="matrix(-0.819067 -0.573698 0.429719 -0.902963 162.033 86.2954)" fill="black"/>
<ellipse cx="1.18709" cy="1.24417" rx="1.18709" ry="1.24417" transform="matrix(-0.819065 -0.5737 0.429717 -0.902964 158.07 88.6992)" fill="black"/>
<ellipse cx="1.1872" cy="1.24446" rx="1.1872" ry="1.24446" transform="matrix(0.81899 -0.573808 -0.429618 -0.903011 202.478 84.1665)" fill="black"/>
<ellipse cx="1.1872" cy="1.24446" rx="1.1872" ry="1.24446" transform="matrix(0.818991 -0.573807 -0.42962 -0.90301 207.049 86.5713)" fill="black"/>
<ellipse cx="1.1872" cy="1.24446" rx="1.1872" ry="1.24446" transform="matrix(0.818955 -0.573858 -0.429573 -0.903032 211.012 88.9761)" fill="black"/>
<ellipse cx="1.1872" cy="1.24446" rx="1.1872" ry="1.24446" transform="matrix(0.81899 -0.573808 -0.429618 -0.903011 199.121 86.5713)" fill="black"/>
<ellipse cx="1.1872" cy="1.24446" rx="1.1872" ry="1.24446" transform="matrix(0.81899 -0.573808 -0.429618 -0.903011 203.084 88.9761)" fill="black"/>
<path d="M144.512 60.1648C144.532 59.5826 146.561 58.2197 148.589 58.2539C150.618 58.2881 151.877 59.7065 151.856 60.2886C151.836 60.8708 150.175 61.315 148.147 61.2808C146.119 61.2466 144.491 60.747 144.512 60.1648Z" fill="white"/>
<path d="M208.923 60.1648C208.943 59.5826 210.973 58.2197 213.001 58.2539C215.029 58.2881 216.288 59.7065 216.268 60.2886C216.247 60.8708 214.587 61.315 212.558 61.2808C210.53 61.2466 208.902 60.747 208.923 60.1648Z" fill="white"/>
<ellipse cx="2.21026" cy="2.03563" rx="2.21026" ry="2.03563" transform="matrix(-0.898307 -0.439369 0.563165 -0.826345 221.722 71.9106)" fill="white"/>
<path d="M261.475 244.193C270.57 242.332 288.469 232.06 287.299 205.855C287.381 200.517 285.654 187.512 276.494 178.194" stroke="#5A4335" stroke-width="0.70851" stroke-linecap="round"/>
<path d="M88.4238 224.128C88.4238 225.093 88.4238 226.059 88.4238 227.025C88.4238 227.591 88.3416 228.268 88.5669 228.801C89.0125 229.854 89.3411 230.897 89.8809 231.95C90.4104 232.983 90.893 234.051 91.351 235.134C91.5935 235.707 92.0307 236.136 92.3137 236.671C92.5177 237.056 92.8672 237.713 93.2244 237.9" stroke="#3B92B9" stroke-width="1.06276" stroke-linecap="round"/>
<path d="M94.1507 239.497C94.0169 239.497 93.7564 239.716 93.8997 239.866C93.9491 239.918 94.2015 239.893 94.2181 239.815C94.2316 239.752 94.2181 239.668 94.2181 239.603" stroke="#3B92B9" stroke-width="1.06276" stroke-linecap="round"/>
<path d="M122.347 270.208C123.166 270.294 123.951 270.421 124.78 270.421C125.943 270.421 127.117 270.422 128.278 270.473C129.18 270.512 130.082 270.506 130.984 270.506C131.555 270.506 132.1 270.506 132.662 270.388C132.917 270.334 133.177 270.326 133.431 270.269C133.72 270.205 134.003 270.061 134.299 270.04C134.552 270.021 134.832 269.992 135.053 269.876C135.173 269.813 135.32 269.851 135.436 269.782C135.5 269.743 135.584 269.696 135.662 269.696" stroke="#3B92B9" stroke-width="1.06276" stroke-linecap="round"/>
<path d="M142.853 267.616C146.026 267.616 149.229 267.573 152.388 267.573" stroke="#3B92B9" stroke-width="1.06276" stroke-linecap="round"/>
<path d="M269.437 254.836C269.483 255.413 269.721 255.955 269.78 256.533C269.827 256.996 269.883 257.654 269.711 258.092C269.526 258.563 269.33 259 269.079 259.431C268.925 259.695 268.724 260.038 268.492 260.238C268.218 260.473 268.071 260.81 267.757 260.999C267.653 261.061 267.522 261.122 267.434 261.204C267.383 261.252 267.141 261.41 267.09 261.41" stroke="#3B92B9" stroke-width="1.06276" stroke-linecap="round"/>
<path d="M265.361 262.574C265.361 262.835 265.652 262.54 265.46 262.54" stroke="#3B92B9" stroke-width="1.06276" stroke-linecap="round"/>
<path d="M269.502 247.871C269.502 247.642 269.505 247.412 269.502 247.182C269.501 247.084 269.47 246.998 269.455 246.902C269.443 246.831 269.464 246.748 269.435 246.681C269.408 246.617 269.319 246.386 269.395 246.335C269.658 246.156 269.982 245.974 270.282 245.877C270.451 245.822 270.598 245.723 270.758 245.656C270.947 245.577 271.151 245.518 271.344 245.459" stroke="#3B92B9" stroke-width="1.06276" stroke-linecap="round"/>
<path d="M294.7 218.838C294.7 219.081 295.378 219.381 295.547 219.557C295.707 219.726 295.893 219.855 295.999 220.065C296.231 220.529 296.306 221.159 296.312 221.683C296.317 222.115 296.352 222.558 296.232 222.969C296.172 223.173 296.085 223.353 296.021 223.545C295.96 223.73 295.788 223.943 295.788 224.128" stroke="#3B92B9" stroke-width="1.06276" stroke-linecap="round"/>
<path d="M295.14 225.848C295.037 225.884 294.888 226.312 294.863 226.409C294.816 226.595 294.685 226.837 294.585 227.003C294.476 227.186 294.3 227.503 294.123 227.596" stroke="#3B92B9" stroke-width="1.06276" stroke-linecap="round"/>
<path d="M215.415 267.982C215.56 267.871 215.83 267.928 215.996 267.928C216.488 267.928 216.981 267.928 217.473 267.928C218.129 267.928 218.784 267.928 219.439 267.928C220.076 267.928 220.712 267.928 221.348 267.928C221.76 267.928 222.152 268.067 222.555 268.091C222.739 268.101 222.93 268.227 223.113 268.266C223.362 268.318 223.631 268.308 223.875 268.365C224.661 268.549 225.548 268.471 226.361 268.471C227.042 268.471 227.722 268.471 228.402 268.471" stroke="#3B92B9" stroke-width="1.06276" stroke-linecap="round"/>
<path d="M90.5583 256.498C90.6317 256.594 90.638 256.848 90.6724 256.968C90.7422 257.212 90.8106 257.437 90.9152 257.669C91.0512 257.97 91.1405 258.281 91.3586 258.538C91.5385 258.751 91.7165 258.987 91.8633 259.226C92.0505 259.531 92.2757 259.82 92.4799 260.113C92.7766 260.538 93.0604 261.008 93.428 261.368C93.6755 261.611 93.8196 261.959 94.0551 262.206C94.1624 262.319 94.2608 262.574 94.3803 262.645C94.8056 262.901 94.9233 263.58 95.3474 263.803" stroke="#3B92B9" stroke-width="1.06276" stroke-linecap="round"/>
<defs>
<filter id="filter0_d_358_54884" x="90.7378" y="99.8862" width="200.871" height="169.825" filterUnits="userSpaceOnUse" color-interpolation-filters="sRGB">
<feFlood flood-opacity="0" result="BackgroundImageFix"/>
<feColorMatrix in="SourceAlpha" type="matrix" values="0 0 0 0 0 0 0 0 0 0 0 0 0 0 0 0 0 0 127 0" result="hardAlpha"/>
<feOffset dy="4"/>
<feGaussianBlur stdDeviation="2"/>
<feComposite in2="hardAlpha" operator="out"/>
<feColorMatrix type="matrix" values="0 0 0 0 0.160482 0 0 0 0 0.116444 0 0 0 0 0.0879489 0 0 0 0.5 0"/>
<feBlend mode="normal" in2="BackgroundImageFix" result="effect1_dropShadow_358_54884"/>
<feBlend mode="normal" in="SourceGraphic" in2="effect1_dropShadow_358_54884" result="shape"/>
</filter>
</defs>
</svg>
