<svg width="38" height="32" viewBox="0 0 38 32" fill="none" xmlns="http://www.w3.org/2000/svg">
<ellipse cx="4.28825" cy="12.2028" rx="3.99724" ry="3.61879" fill="#9B7963"/>
<ellipse cx="4.28876" cy="12.2025" rx="2.85517" ry="2.58485" fill="#3B2F1E"/>
<ellipse cx="32.841" cy="12.2028" rx="3.99724" ry="3.61879" fill="#9B7963"/>
<ellipse cx="32.8415" cy="12.203" rx="2.85517" ry="2.58485" fill="#3B2F1E"/>
<path d="M8.64003 6.51174C5.34208 8.97558 3.68066 13.5357 3.17534 15.8512C3.11939 16.1076 3.03251 16.3554 2.90499 16.5847L2.39203 17.5073C2.19385 17.8638 2.08984 18.2649 2.08984 18.6727V20.4674C2.35857 22.7389 3.65741 24.7165 4.27324 25.4213C6.55741 28.6112 12.4283 30.0933 15.0782 30.4357C22.5802 31.1002 25.3234 30.0128 28.2346 28.9857C31.1458 27.9587 33.7211 25.5421 34.8408 23.3068C35.6537 21.6838 35.4522 19.175 35.1987 17.8219C35.1519 17.5722 35.0536 17.336 34.922 17.1187L34.4852 16.3979C34.2777 16.0554 34.1683 15.6652 34.1031 15.2701C33.6411 12.4692 31.0146 8.5574 29.5521 6.69089C29.4582 6.5711 29.3511 6.46051 29.2337 6.36369C22.5771 0.87543 12.9684 3.2781 8.64003 6.51174Z" fill="#9B7963"/>
<path fill-rule="evenodd" clip-rule="evenodd" d="M2.14258 21.9906C3.84274 19.3285 7.10136 17.5278 10.842 17.5278C13.0963 17.5278 15.1756 18.1818 16.8442 19.2843C18.162 20.1549 20.1072 20.1549 21.4249 19.2843C23.0935 18.1818 25.1728 17.5278 27.4272 17.5278C30.8834 17.5278 33.9281 19.0651 35.7122 21.3987C33.5699 27.5258 26.816 32.0002 18.8157 32.0002C11.0754 32.0002 4.50178 27.8118 2.14258 21.9906Z" fill="#F5E8CF"/>
<path d="M17.7429 1.06057C17.7289 0.487309 18.2417 0.0125853 18.888 0.000245331C19.5344 -0.0120946 20.0697 0.442622 20.0836 1.01588L20.1033 1.82942L20.4142 1.07188C20.6354 0.533061 21.3071 0.255246 21.9147 0.451358C22.5222 0.647471 22.8355 1.24325 22.6143 1.78206L21.5466 4.38369C21.3255 4.9225 20.6537 5.20032 20.0462 5.00421C19.8517 4.94142 19.6874 4.83766 19.561 4.70792C19.397 4.79117 19.2079 4.8403 19.0056 4.84416C18.8399 4.84733 18.6814 4.81979 18.5372 4.76742C18.4294 5.06023 18.1763 5.30769 17.8246 5.42121C17.217 5.61733 16.5453 5.33951 16.3242 4.8007L15.2565 2.19907C15.0353 1.66025 15.3486 1.06448 15.9561 0.868365C16.5637 0.672253 17.2354 0.950068 17.4566 1.48888L17.7719 2.25728L17.7429 1.06057Z" fill="#9B7963"/>
<path d="M19.3517 19.5771V22.9213C19.3517 23.7244 20.0028 24.3755 20.8059 24.3755H21.2567C22.0599 24.3755 22.7109 23.7244 22.7109 22.9213V22.8416" stroke="#3B2F1E" stroke-width="0.299759" stroke-linecap="round" stroke-linejoin="round"/>
<path d="M19.3514 19.5771V22.9213C19.3514 23.7244 18.7004 24.3755 17.8972 24.3755H17.4464C16.6433 24.3755 15.9922 23.7244 15.9922 22.9213V22.8416" stroke="#3B2F1E" stroke-width="0.299759" stroke-linecap="round" stroke-linejoin="round"/>
<path d="M22.6397 19.7826C22.6397 20.6375 21.1516 21.3306 19.3159 21.3306C17.4803 21.3306 15.9922 20.6375 15.9922 19.7826C15.9922 18.9276 17.4803 18.1719 19.3159 18.1719C21.1516 18.1719 22.6397 18.9276 22.6397 19.7826Z" fill="#3B2F1E"/>
<ellipse cx="30.1944" cy="22.6957" rx="3.63973" ry="2.97258" fill="#FFCEB9"/>
<ellipse cx="7.79988" cy="22.6957" rx="3.63973" ry="2.97258" fill="#FFCEB9"/>
<ellipse cx="9.43657" cy="17.526" rx="2.39946" ry="1.93864" fill="#3B2F1E"/>
<ellipse cx="28.3135" cy="17.526" rx="2.39946" ry="1.93864" fill="#3B2F1E"/>
<path d="M7.9134 21.5186L0.874998 21.0016M8.15753 22.6749L0.874991 23.0695M8.49156 23.7829L1.19492 25.1374" stroke="#3B2F1E" stroke-width="0.239807" stroke-linecap="round"/>
<path d="M30.0866 21.5186L37.125 21.0016M29.8425 22.6749L37.125 23.0695M29.5084 23.7829L36.8051 25.1374" stroke="#3B2F1E" stroke-width="0.239807" stroke-linecap="round"/>
<ellipse cx="0.564419" cy="0.507942" rx="0.564419" ry="0.507942" transform="matrix(-0.906252 -0.422739 0.581401 -0.813617 10.9395 17.6665)" fill="white"/>
<ellipse cx="0.30123" cy="0.308459" rx="0.30123" ry="0.308459" transform="matrix(-0.831534 -0.555474 0.446493 -0.894787 13.2559 20.6099)" fill="black"/>
<ellipse cx="0.30123" cy="0.308459" rx="0.30123" ry="0.308459" transform="matrix(-0.831534 -0.555474 0.446493 -0.894787 12.0801 21.2002)" fill="black"/>
<ellipse cx="0.30123" cy="0.308459" rx="0.30123" ry="0.308459" transform="matrix(-0.831534 -0.555474 0.446493 -0.894787 11.0547 21.791)" fill="black"/>
<ellipse cx="0.30123" cy="0.308459" rx="0.30123" ry="0.308459" transform="matrix(-0.831534 -0.555474 0.446493 -0.894787 14.123 21.2002)" fill="black"/>
<ellipse cx="0.30123" cy="0.308459" rx="0.30123" ry="0.308459" transform="matrix(-0.831534 -0.555474 0.446493 -0.894787 13.1016 21.791)" fill="black"/>
<ellipse cx="0.301256" cy="0.308529" rx="0.301256" ry="0.308529" transform="matrix(0.831462 -0.555582 -0.446392 -0.894837 24.541 20.6772)" fill="black"/>
<ellipse cx="0.301256" cy="0.308529" rx="0.301256" ry="0.308529" transform="matrix(0.831462 -0.555582 -0.446392 -0.894837 25.7168 21.2681)" fill="black"/>
<ellipse cx="0.301256" cy="0.308529" rx="0.301256" ry="0.308529" transform="matrix(0.831462 -0.555582 -0.446392 -0.894837 26.7422 21.8589)" fill="black"/>
<ellipse cx="0.301256" cy="0.308529" rx="0.301256" ry="0.308529" transform="matrix(0.831462 -0.555582 -0.446392 -0.894837 23.6738 21.2681)" fill="black"/>
<ellipse cx="0.301256" cy="0.308529" rx="0.301256" ry="0.308529" transform="matrix(0.831462 -0.555582 -0.446392 -0.894837 24.6953 21.8589)" fill="black"/>
<path d="M9.60949 14.7809C9.61474 14.6379 10.1375 14.3031 10.6601 14.3115C11.1826 14.3199 11.5069 14.6683 11.5017 14.8113C11.4964 14.9544 11.0686 15.0635 10.5461 15.0551C10.0236 15.0467 9.60423 14.9239 9.60949 14.7809Z" fill="white"/>
<path d="M26.1993 14.7809C26.2046 14.6379 26.7274 14.3031 27.2499 14.3115C27.7724 14.3199 28.0968 14.6683 28.0915 14.8113C28.0863 14.9544 27.6584 15.0635 27.1359 15.0551C26.6134 15.0467 26.1941 14.9239 26.1993 14.7809Z" fill="white"/>
<ellipse cx="0.564419" cy="0.507942" rx="0.564419" ry="0.507942" transform="matrix(-0.906252 -0.422739 0.581401 -0.813617 29.498 17.6665)" fill="white"/>
</svg>
