<svg width="100" height="94" viewBox="0 0 100 94" fill="none" xmlns="http://www.w3.org/2000/svg">
<path d="M52.6716 0.0746096C37.4523 2.29187 38.0672 20.7074 40.2771 29.638C40.7382 31.1162 38.7398 34.7705 37.683 36.4129C36.216 39.5475 31.9398 40.5455 29.4412 40.7015C28.9799 40.7302 28.5145 40.6936 28.0726 40.558C24.6465 39.5067 23.2536 35.7837 22.9825 33.9493L22.1177 21.3233C21.9708 18.6554 21.2703 16.679 20.5824 15.4099C20.0109 14.3556 19.3805 13.298 18.7324 12.2889C16.3325 8.55204 11.5095 9.02222 8.67901 9.98047C8.21708 10.1369 7.77793 10.3605 7.40771 10.6779C7.31413 10.7582 7.22838 10.8376 7.14991 10.9161C6.06869 11.9973 6.5876 14.2718 8.10919 14.4227C8.76968 14.4881 9.50277 14.3762 10.0114 14.2404C14.3846 13.128 17.0495 17.1222 18.0911 19.8726C18.2985 20.42 18.3837 21.0028 18.4098 21.5875L18.9225 33.09C18.9388 33.4571 18.9207 33.8252 18.9118 34.1925C18.8175 38.0467 21.8942 41.4863 23.8987 43.0972C24.2416 43.3727 24.5743 43.6598 24.9008 43.9545C30.123 48.6678 36.514 44.6452 39.1242 41.9561C39.816 41.0586 40.3702 40.4939 40.8111 40.1808C42.9503 38.6616 42.5883 44.4752 41.6373 46.9205C41.1184 48.2546 40.4725 49.6316 39.9889 50.5787C38.7069 53.0897 34.3563 55.9709 31.89 57.3603C31.5261 57.5653 31.1446 57.7402 30.7355 57.8241C27.8033 58.4255 24.5598 56.5286 22.5975 54.92C21.8695 54.3232 21.3699 53.51 20.9261 52.6799C18.7789 48.664 15.5645 46.9045 13.7277 46.3916C13.3683 46.2912 13.0057 46.2019 12.6431 46.1136C10.4234 45.5733 8.14118 46.1235 6.68966 46.7122C6.00626 46.9894 5.29221 47.2304 4.67177 47.629C2.0848 49.2912 0.638554 54.6141 0.211206 57.3537C-0.188796 59.4904 0.034392 60.7692 0.423847 61.4876C0.825444 62.2285 1.76827 62.6997 2.58949 62.5107C3.95541 62.1963 4.45831 59.7488 4.53479 58.2775C4.30419 55.3212 5.78385 53.145 6.55251 52.4265C11.7104 47.6047 16.6013 53.1081 18.7983 57.1198C19.1035 57.677 19.4377 58.2205 19.8716 58.6845C25.9895 65.2281 32.7376 63.1382 35.9357 60.886C36.3422 60.5997 36.7548 60.3218 37.1772 60.0596C41.5634 57.3366 44.4926 51.5996 45.6417 48.4484C45.7964 48.024 45.891 47.576 45.9585 47.1293C46.708 42.1744 47.4727 45.4441 47.7715 47.8072V55.506C47.5618 58.8673 43.8384 60.9547 41.5038 61.7682C41.0751 61.9175 40.622 61.9767 40.1834 62.0937C37.8381 62.7193 35.4478 65.389 34.2439 67.0693C34.0328 67.3639 33.8537 67.68 33.7176 68.0159C32.1937 71.7767 33.5226 75.0039 34.6805 76.5688C34.9347 76.9123 35.1957 77.2524 35.477 77.5742C37.2081 79.5544 40.295 79.7163 41.7183 79.5262C43.9773 79.5262 45.7496 80.3472 46.6903 80.9837C47.0424 81.222 47.3846 81.4795 47.7115 81.7513C50.2955 83.8992 49.6898 87.8118 48.8726 90.0289C48.7273 90.423 48.5754 90.8171 48.5002 91.2303C48.1002 93.4276 48.971 94 49.5009 94C53.0912 93.7744 53.0871 88.0212 52.5443 84.4522C52.4506 83.8363 52.4334 83.2089 52.3406 82.5929C51.8687 79.4587 48.1598 77.6879 45.5845 76.9845C44.9367 76.8076 44.2603 76.7962 43.5888 76.8006C39.4471 76.8278 37.539 74.7589 36.8429 73.037C36.5318 72.2675 36.2421 71.4313 36.3272 70.6057C36.5037 68.8952 38.4146 67.157 40.0356 66.0495C40.7481 65.5626 41.5829 65.3081 42.416 65.0829C43.8077 64.7066 45.0345 64.1386 45.9652 63.6074C47.0097 63.0113 48.2058 62.5663 49.0779 61.7383C51.9343 59.0266 51.4019 51.0573 50.6538 46.8833C50.1926 41.9561 51.0382 44.2144 51.5186 45.9595L52.4816 50.5892C52.6077 51.1958 52.6523 51.8158 52.6457 52.4353C52.6075 56.0628 53.315 58.6917 53.9274 60.1277L53.9365 60.1489C54.2039 60.776 54.4752 61.4122 54.8455 61.9842C56.3694 64.3384 60.4224 65.6114 62.4719 65.9763C64.6176 66.282 66.8003 67.4725 68.4695 68.651C70.0722 69.7825 72.0143 71.0257 72.5171 72.922C72.9104 74.4048 73.0794 76.3176 73.1242 77.7935C73.1405 78.3311 73.086 78.8705 72.9423 79.3888C72.2034 82.0531 71.0901 82.8753 70.2901 82.9804C69.8793 83.0344 69.5054 82.7931 69.1301 82.6177C68.8691 82.4957 68.6286 82.4115 68.4087 82.3571C67.3217 82.0877 66.3678 83.2319 66.7733 84.2759C67.3548 85.773 69.7113 86.0724 71.1192 85.9932C75.4241 85.3362 76.555 80.5744 76.6181 77.5059C76.6326 76.8021 76.7021 76.0985 76.7319 75.3952C76.8774 71.9605 74.2156 68.5883 72.3284 66.8366C71.919 66.4565 71.53 66.0476 71.0838 65.7115C69.6086 64.6001 66.5147 63.4106 64.301 62.6771C63.4755 62.4035 62.5961 62.3547 61.736 62.226C59.0025 61.8168 57.419 59.6138 56.725 57.9441C56.4827 57.3611 56.4049 56.7265 56.3203 56.1008C56.1933 55.1623 55.9732 53.8117 55.8422 53.0424C54.3608 46.4852 56.0033 49.1109 57.2491 51.7296C57.4685 52.1908 57.7162 52.6432 58.0499 53.0298C60.6945 56.094 64.3973 56.1879 66.8157 55.6417C67.7762 55.4248 68.7714 55.2386 69.6792 54.8572C72.4322 53.7003 76.0504 49.8809 77.7489 47.8072C79.8798 44.9097 82.4311 45.4316 83.9332 46.342C84.4519 46.6564 84.9581 47.0035 85.4248 47.3909C87.05 48.7397 87.2833 50.9369 87.1263 52.4507C87.0637 53.0545 86.9741 53.6646 86.7847 54.2413C86.6457 54.6645 86.4476 55.1349 86.2533 55.5549C85.9812 56.1434 85.5746 56.6542 85.1956 57.1803C84.7859 57.749 84.6667 58.13 84.6667 58.2775C84.4751 61.1443 85.9959 61.2312 87.1769 60.7662C87.6353 60.5858 88.0274 60.2703 88.3511 59.8989C91.6703 56.0906 90.7715 49.5123 89.8551 46.5754C88.4716 42.3872 84.2824 41.5455 82.3608 41.6481C78.6712 41.6481 75.8272 44.317 74.8664 45.6515C73.2522 48.3615 69.5819 50.2708 67.9485 50.8867C64.259 52.3649 61.2228 50.2708 60.1659 49.039C57.8599 46.329 57.2835 41.7508 57.2835 39.8004C57.2835 37.5832 58.4364 38.0554 59.0129 38.5686C60.7424 39.9031 65.412 42.264 70.2545 41.0322C75.097 39.8004 78.4214 32.9228 79.4783 29.638C81.3231 25.6962 81.9764 22.0418 82.0725 20.7074C82.3031 17.9974 83.1294 16.2934 83.5138 15.7801C86.8168 12.0437 88.9875 14.458 89.9914 16.9072C90.3443 17.7683 90.6828 18.6597 91.3284 19.3299C94.087 22.194 97.0017 21.1094 98.2142 20.0915C100.189 18.7489 100.195 17.4437 99.7841 16.6407C99.573 16.2288 99.2592 15.8191 98.8181 15.6788C98.249 15.4979 97.554 15.8411 96.9503 16.3095C96.1916 16.8982 95.3983 17.7727 94.5059 17.4182C93.7188 17.1055 93.0724 16.218 92.6313 15.3538C92.2669 14.6401 92.2182 13.8147 91.989 13.0468C91.5727 11.6517 90.4731 10.6836 89.4943 10.1163C88.8117 9.72069 88.0088 9.59764 87.2252 9.68878C81.6138 10.3414 79.1534 15.5525 78.6136 18.2438C77.23 27.6055 73.4252 32.8202 71.6957 34.2573C63.6859 41.4271 60.977 33.0541 60.5164 27.0763C60.4586 26.3257 60.5633 25.5593 60.7545 24.8312C66.3857 3.38541 57.7731 -0.631908 52.6716 0.0746096Z" fill="#F1915D"/>
<ellipse cx="45.5125" cy="27.5284" rx="1.92308" ry="2.01429" fill="#5C202B"/>
<ellipse cx="53.2035" cy="27.5284" rx="1.92308" ry="2.01429" fill="#5C202B"/>
<ellipse cx="56.7299" cy="11.2771" rx="1.60256" ry="1.59106" fill="#FDA777"/>
<ellipse cx="56.7299" cy="6.8225" rx="1.60256" ry="1.59106" fill="#DE7C47"/>
<ellipse cx="54.9996" cy="15.1597" rx="0.961538" ry="0.954633" fill="#FEA577"/>
<ellipse cx="52.564" cy="8.41347" rx="1.28205" ry="1.27284" fill="#EB7D4A"/>
<ellipse cx="57.051" cy="3.32197" rx="0.641026" ry="0.636422" fill="#F79B68"/>
<ellipse cx="53.2033" cy="4.59492" rx="0.641026" ry="0.636422" fill="#EE7C42"/>
<ellipse cx="60.8965" cy="9.68623" rx="0.641026" ry="0.636422" fill="#E97C43"/>
<path d="M43.4232 48.1068C43.4232 48.5193 43.1058 48.8405 42.7303 48.8405C42.3548 48.8405 42.0374 48.5193 42.0374 48.1068C42.0374 47.6942 42.3548 47.3731 42.7303 47.3731C43.1058 47.3731 43.4232 47.6942 43.4232 48.1068Z" stroke="#DA692E" stroke-width="0.33215"/>
<path d="M40.7908 53.0252C40.7908 53.4378 40.4734 53.7589 40.0979 53.7589C39.7224 53.7589 39.405 53.4378 39.405 53.0252C39.405 52.6127 39.7224 52.2916 40.0979 52.2916C40.4734 52.2916 40.7908 52.6127 40.7908 53.0252Z" stroke="#DA692E" stroke-width="0.33215"/>
<path d="M36.8954 56.9251C36.8954 57.3377 36.578 57.6588 36.2025 57.6588C35.827 57.6588 35.5096 57.3377 35.5096 56.9251C35.5096 56.5126 35.827 56.1915 36.2025 56.1915C36.578 56.1915 36.8954 56.5126 36.8954 56.9251Z" stroke="#DA692E" stroke-width="0.33215"/>
<path d="M32.6594 59.8036C32.6594 60.2161 32.342 60.5372 31.9664 60.5372C31.5909 60.5372 31.2735 60.2161 31.2735 59.8036C31.2735 59.391 31.5909 59.0699 31.9664 59.0699C32.342 59.0699 32.6594 59.391 32.6594 59.8036Z" stroke="#DA692E" stroke-width="0.33215"/>
<path d="M17.9393 52.9056C17.9393 53.3181 17.6219 53.6393 17.2463 53.6393C16.8708 53.6393 16.5534 53.3181 16.5534 52.9056C16.5534 52.4931 16.8708 52.1719 17.2463 52.1719C17.6219 52.1719 17.9393 52.4931 17.9393 52.9056Z" stroke="#DA692E" stroke-width="0.33215"/>
<path d="M14.1611 49.2474C14.1611 49.6599 13.8437 49.9811 13.4681 49.9811C13.0926 49.9811 12.7752 49.6599 12.7752 49.2474C12.7752 48.8349 13.0926 48.5137 13.4681 48.5137C13.8437 48.5137 14.1611 48.8349 14.1611 49.2474Z" stroke="#DA692E" stroke-width="0.33215"/>
<path d="M8.26263 48.7074C8.26263 49.1199 7.94523 49.441 7.5697 49.441C7.19417 49.441 6.87677 49.1199 6.87677 48.7074C6.87677 48.2948 7.19417 47.9737 7.5697 47.9737C7.94523 47.9737 8.26263 48.2948 8.26263 48.7074Z" stroke="#DA692E" stroke-width="0.33215"/>
<path d="M3.90936 53.0863C3.90936 53.4988 3.59196 53.8199 3.21643 53.8199C2.8409 53.8199 2.5235 53.4988 2.5235 53.0863C2.5235 52.6737 2.8409 52.3526 3.21643 52.3526C3.59196 52.3526 3.90936 52.6737 3.90936 53.0863Z" stroke="#DA692E" stroke-width="0.33215"/>
<path d="M2.53564 58.7245C2.53564 59.137 2.21824 59.4581 1.84271 59.4581C1.46718 59.4581 1.14978 59.137 1.14978 58.7245C1.14978 58.3119 1.46718 57.9908 1.84271 57.9908C2.21824 57.9908 2.53564 58.3119 2.53564 58.7245Z" stroke="#DA692E" stroke-width="0.33215"/>
<path d="M21.8347 57.5843C21.8347 57.9969 21.5173 58.318 21.1418 58.318C20.7663 58.318 20.4489 57.9969 20.4489 57.5843C20.4489 57.1718 20.7663 56.8506 21.1418 56.8506C21.5173 56.8506 21.8347 57.1718 21.8347 57.5843Z" stroke="#DA692E" stroke-width="0.33215"/>
<path d="M26.8738 60.1034C26.8738 60.5159 26.5564 60.837 26.1808 60.837C25.8053 60.837 25.4879 60.5159 25.4879 60.1034C25.4879 59.6908 25.8053 59.3697 26.1808 59.3697C26.5564 59.3697 26.8738 59.6908 26.8738 60.1034Z" stroke="#DA692E" stroke-width="0.33215"/>
<path d="M57.9116 47.4693C57.9116 48.0518 57.4627 48.5106 56.9251 48.5106C56.3875 48.5106 55.9385 48.0518 55.9385 47.4693C55.9385 46.8869 56.3875 46.4281 56.9251 46.4281C57.4627 46.4281 57.9116 46.8869 57.9116 47.4693Z" stroke="#FEB78C" stroke-width="0.334619"/>
<path d="M61.3709 51.6988C61.3709 52.2813 60.922 52.7401 60.3843 52.7401C59.8467 52.7401 59.3978 52.2813 59.3978 51.6988C59.3978 51.1163 59.8467 50.6575 60.3843 50.6575C60.922 50.6575 61.3709 51.1163 61.3709 51.6988Z" stroke="#FEB78C" stroke-width="0.334619"/>
<path d="M67.1434 53.5123C67.1434 54.0948 66.6945 54.5536 66.1568 54.5536C65.6192 54.5536 65.1703 54.0948 65.1703 53.5123C65.1703 52.9298 65.6192 52.471 66.1568 52.471C66.6945 52.471 67.1434 52.9298 67.1434 53.5123Z" stroke="#FEB78C" stroke-width="0.334619"/>
<path d="M72.3344 51.0958C72.3344 51.6783 71.8855 52.1371 71.3478 52.1371C70.8102 52.1371 70.3613 51.6783 70.3613 51.0958C70.3613 50.5133 70.8102 50.0545 71.3478 50.0545C71.8855 50.0545 72.3344 50.5133 72.3344 51.0958Z" stroke="#FEB78C" stroke-width="0.334619"/>
<path d="M76.9503 47.4693C76.9503 48.0518 76.5014 48.5106 75.9637 48.5106C75.4261 48.5106 74.9772 48.0518 74.9772 47.4693C74.9772 46.8869 75.4261 46.4281 75.9637 46.4281C76.5014 46.4281 76.9503 46.8869 76.9503 47.4693Z" stroke="#FEB78C" stroke-width="0.334619"/>
<path d="M82.1413 43.8433C82.1413 44.4258 81.6923 44.8846 81.1547 44.8846C80.6171 44.8846 80.1682 44.4258 80.1682 43.8433C80.1682 43.2609 80.6171 42.8021 81.1547 42.8021C81.6923 42.8021 82.1413 43.2609 82.1413 43.8433Z" stroke="#FEB78C" stroke-width="0.334619"/>
<path d="M87.9116 45.6558C87.9116 46.2383 87.4627 46.6971 86.9251 46.6971C86.3875 46.6971 85.9385 46.2383 85.9385 45.6558C85.9385 45.0734 86.3875 44.6146 86.9251 44.6146C87.4627 44.6146 87.9116 45.0734 87.9116 45.6558Z" stroke="#FEB78C" stroke-width="0.334619"/>
<path d="M90.2185 51.0958C90.2185 51.6783 89.7696 52.1371 89.232 52.1371C88.6943 52.1371 88.2454 51.6783 88.2454 51.0958C88.2454 50.5133 88.6943 50.0545 89.232 50.0545C89.7696 50.0545 90.2185 50.5133 90.2185 51.0958Z" stroke="#FEB78C" stroke-width="0.334619"/>
<path d="M87.9116 57.7413C87.9116 58.3238 87.4627 58.7826 86.9251 58.7826C86.3875 58.7826 85.9385 58.3238 85.9385 57.7413C85.9385 57.1588 86.3875 56.7 86.9251 56.7C87.4627 56.7 87.9116 57.1588 87.9116 57.7413Z" stroke="#FEB78C" stroke-width="0.334619"/>
</svg>
