<svg width="94" height="139" viewBox="0 0 94 139" fill="none" xmlns="http://www.w3.org/2000/svg">
<path d="M29.2601 43.7794C29.4612 43.3631 29.7198 42.8541 29.9853 42.3427C30.5617 41.2322 31.7078 40.5403 32.9587 40.5195L61.1562 40.0521C61.8642 40.0404 62.5276 40.397 62.9082 40.9942C63.0148 41.1614 63.0956 41.3432 63.1709 41.5267C63.3221 41.8955 63.5938 42.4552 63.8639 42.9894C64.2307 43.7146 64.771 44.4104 65.1979 45.102C65.6015 45.7557 66.0741 46.6089 66.4327 47.2807C66.5967 47.588 66.7861 47.8875 66.9161 48.2107C67.0678 48.5874 67.2427 49.1177 67.3821 49.5684C67.487 49.9075 67.6479 50.162 67.7839 50.4898C68.3827 51.9335 66.4286 52.8729 65.001 52.2366C51.4374 46.1912 35.9777 49.7542 27.9798 53.1065C26.7441 53.6245 25.401 53.213 25.5915 51.8866C25.8188 50.3046 27.0155 47.708 27.8497 46.3447C28.0113 46.0806 28.174 45.818 28.3298 45.5688C28.6808 45.0076 28.9721 44.3755 29.2601 43.7794Z" fill="#9B7963"/>
<ellipse cx="25.4422" cy="17.7385" rx="5.77028" ry="5.26045" fill="#9B7963"/>
<ellipse cx="25.4419" cy="17.7384" rx="4.12163" ry="3.75747" fill="#3B2F1E"/>
<ellipse cx="66.657" cy="17.7385" rx="5.77028" ry="5.26045" fill="#9B7963"/>
<ellipse cx="66.6568" cy="17.7384" rx="4.12163" ry="3.75747" fill="#3B2F1E"/>
<path d="M31.7213 9.4659C26.9573 13.0498 24.5589 19.685 23.8312 23.0489C23.7515 23.4173 23.6274 23.7733 23.4452 24.1033L22.697 25.4583C22.4141 25.9708 22.2656 26.5469 22.2656 27.1323V29.7525C22.6535 33.0545 24.5285 35.9292 25.4175 36.9538C28.7149 41.5907 37.1899 43.7452 41.0153 44.2429C51.8448 45.2089 55.8048 43.6281 60.0073 42.1352C64.2098 40.6422 67.9274 37.1294 69.5438 33.88C70.7186 31.5182 70.4258 27.866 70.0593 25.9005C69.9924 25.5417 69.852 25.2021 69.6638 24.8894L69.0258 23.829C68.7293 23.3362 68.573 22.7757 68.4807 22.208C67.8184 18.1352 64.0212 12.4403 61.9083 9.72518C61.7734 9.55179 61.6193 9.3916 61.4503 9.25125C51.841 1.27252 37.9697 4.76521 31.7213 9.4659Z" fill="#9B7963"/>
<path fill-rule="evenodd" clip-rule="evenodd" d="M22.3359 31.9664C24.7902 28.0966 29.4943 25.479 34.8943 25.479C38.1419 25.479 41.1378 26.4258 43.544 28.0223C45.4529 29.2889 48.2804 29.2889 50.1893 28.0223C52.5955 26.4258 55.5914 25.479 58.839 25.479C63.8268 25.479 68.221 27.7123 70.7968 31.103C67.7053 40.0111 57.9548 46.5167 46.4047 46.5167C35.2311 46.5167 25.7417 40.4284 22.3359 31.9664Z" fill="#F5E8CF"/>
<path d="M44.8596 1.5417C44.8395 0.708376 45.5797 0.0182945 46.5128 0.000356624C47.4459 -0.0175813 48.2186 0.643417 48.2386 1.47674L48.2671 2.65933L48.7159 1.55813C49.0351 0.774883 50.0049 0.371038 50.8819 0.656116C51.7589 0.941195 52.2111 1.80724 51.8919 2.59049L50.3506 6.37234C50.0314 7.15559 49.0617 7.55943 48.1847 7.27435C47.9039 7.18308 47.6666 7.03226 47.4843 6.84366C47.2475 6.96468 46.9744 7.03609 46.6825 7.04171C46.4432 7.04631 46.2145 7.00627 46.0064 6.93015C45.8506 7.35579 45.4853 7.71551 44.9776 7.88054C44.1006 8.16562 43.1308 7.76177 42.8116 6.97852L41.2703 3.19667C40.9511 2.41343 41.4033 1.54738 42.2804 1.2623C43.1574 0.977219 44.1271 1.38106 44.4463 2.16431L44.9015 3.28129L44.8596 1.5417Z" fill="#9B7963"/>
<path d="M47.1898 28.459V33.3341C47.1898 34.4939 48.13 35.4341 49.2897 35.4341H49.9391C51.0989 35.4341 52.0391 34.4939 52.0391 33.3341V33.2044" stroke="#3B2F1E" stroke-width="0.432873" stroke-linecap="round" stroke-linejoin="round"/>
<path d="M47.1891 28.459V33.3341C47.1891 34.4939 46.249 35.4341 45.0892 35.4341H44.4398C43.28 35.4341 42.3398 34.4939 42.3398 33.3341V33.2044" stroke="#3B2F1E" stroke-width="0.432873" stroke-linecap="round" stroke-linejoin="round"/>
<path d="M51.936 28.7574C51.936 30.0002 49.7878 31.0077 47.1379 31.0077C44.488 31.0077 42.3398 30.0002 42.3398 28.7574C42.3398 27.5145 44.488 26.416 47.1379 26.416C49.7878 26.416 51.936 27.5145 51.936 28.7574Z" fill="#3B2F1E"/>
<ellipse cx="62.8343" cy="32.9915" rx="5.25419" ry="4.32109" fill="#FFCEB9"/>
<ellipse cx="30.5042" cy="32.9915" rx="5.25419" ry="4.32109" fill="#FFCEB9"/>
<ellipse cx="32.87" cy="25.4763" rx="3.46378" ry="2.8181" fill="#3B2F1E"/>
<ellipse cx="60.1181" cy="25.4763" rx="3.46378" ry="2.8181" fill="#3B2F1E"/>
<path d="M30.6699 31.2804L20.5092 30.5286M31.0224 32.9613L20.5094 33.5344M31.5047 34.5719L20.9714 36.5403" stroke="#3B2F1E" stroke-width="0.346299" stroke-linecap="round"/>
<path d="M62.678 31.28L72.8384 30.5285M62.3256 32.9609L72.8385 33.5345M61.8434 34.5715L72.3766 36.5405" stroke="#3B2F1E" stroke-width="0.346299" stroke-linecap="round"/>
<ellipse cx="0.815953" cy="0.7367" rx="0.815953" ry="0.7367" transform="matrix(-0.905119 -0.425159 0.578722 -0.815525 35.041 25.6807)" fill="white"/>
<ellipse cx="0.435855" cy="0.447794" rx="0.435855" ry="0.447794" transform="matrix(-0.829742 -0.558148 0.444009 -0.896022 38.3848 29.9595)" fill="black"/>
<ellipse cx="0.435855" cy="0.447794" rx="0.435855" ry="0.447794" transform="matrix(-0.829742 -0.558148 0.444009 -0.896022 36.6855 30.8179)" fill="black"/>
<ellipse cx="0.435855" cy="0.447794" rx="0.435855" ry="0.447794" transform="matrix(-0.829802 -0.558058 0.444092 -0.895981 35.2109 31.6763)" fill="black"/>
<ellipse cx="0.435855" cy="0.447794" rx="0.435855" ry="0.447794" transform="matrix(-0.829742 -0.558148 0.444009 -0.896022 39.6348 30.8179)" fill="black"/>
<ellipse cx="0.435855" cy="0.447794" rx="0.435855" ry="0.447794" transform="matrix(-0.829742 -0.558148 0.444009 -0.896022 38.1602 31.6763)" fill="black"/>
<ellipse cx="0.435893" cy="0.447895" rx="0.435893" ry="0.447895" transform="matrix(0.829669 -0.558255 -0.443908 -0.896072 54.6719 30.0576)" fill="black"/>
<ellipse cx="0.435893" cy="0.447895" rx="0.435893" ry="0.447895" transform="matrix(0.829669 -0.558255 -0.443908 -0.896072 56.3711 30.9165)" fill="black"/>
<ellipse cx="0.435893" cy="0.447895" rx="0.435893" ry="0.447895" transform="matrix(0.82973 -0.558166 -0.443992 -0.896031 57.8457 31.7754)" fill="black"/>
<ellipse cx="0.435893" cy="0.447895" rx="0.435893" ry="0.447895" transform="matrix(0.829669 -0.558255 -0.443908 -0.896072 53.4238 30.9165)" fill="black"/>
<ellipse cx="0.435893" cy="0.447895" rx="0.435893" ry="0.447895" transform="matrix(0.829669 -0.558255 -0.443908 -0.896072 54.8965 31.7754)" fill="black"/>
<path d="M33.1155 21.486C33.1231 21.2781 33.878 20.7914 34.6325 20.8036C35.3869 20.8159 35.8553 21.3224 35.8477 21.5303C35.8401 21.7382 35.2224 21.8968 34.4679 21.8846C33.7134 21.8724 33.108 21.6939 33.1155 21.486Z" fill="white"/>
<path d="M57.0667 21.486C57.0743 21.2781 57.8292 20.7914 58.5836 20.8036C59.3381 20.8159 59.8065 21.3224 59.7989 21.5303C59.7913 21.7382 59.1735 21.8968 58.4191 21.8846C57.6646 21.8724 57.0591 21.6939 57.0667 21.486Z" fill="white"/>
<ellipse cx="0.815953" cy="0.7367" rx="0.815953" ry="0.7367" transform="matrix(-0.905119 -0.425159 0.578722 -0.815525 61.8281 25.6807)" fill="white"/>
<path d="M33.4483 51.1247C32.8984 48.7677 34.5366 44.7702 35.4245 43.066L58.8815 42.4595C60.1188 44.6778 60.7146 49.1605 60.8578 51.1247H60.5141C48.8285 47.2427 37.6012 49.5072 33.4483 51.1247Z" fill="#F5E8CF"/>
<path d="M47.084 126.512V137.603" stroke="#3B92B9" stroke-width="0.865746" stroke-linecap="round"/>
<path d="M75.0957 113.86L82.2696 122.267" stroke="#3B92B9" stroke-width="0.865746" stroke-linecap="round"/>
<path d="M24.918 55.8037L31.5947 64.6186" stroke="#3B92B9" stroke-width="0.865746" stroke-linecap="round"/>
<path d="M25.9492 132.632L31.4806 123.045" stroke="#3B92B9" stroke-width="0.865746" stroke-linecap="round"/>
<path d="M10.4844 120.693L17.8695 112.474" stroke="#3B92B9" stroke-width="0.865746" stroke-linecap="round"/>
<path d="M62.7637 123.044L66.8906 133.326" stroke="#3B92B9" stroke-width="0.865746" stroke-linecap="round"/>
<path d="M6.84375 71.2803L16.8435 75.8979" stroke="#3B92B9" stroke-width="0.865746" stroke-linecap="round"/>
<path d="M82.4863 94.1904H93.4845" stroke="#3B92B9" stroke-width="0.865746" stroke-linecap="round"/>
<path d="M78.1895 77.3223L86.8877 70.5346" stroke="#3B92B9" stroke-width="0.865746" stroke-linecap="round"/>
<path d="M64.0977 65.9194L69.3057 56.1497" stroke="#3B92B9" stroke-width="0.865746" stroke-linecap="round"/>
<path d="M0.6875 95.3169H11.6857" stroke="#3B92B9" stroke-width="0.865746" stroke-linecap="round"/>
<path d="M47.084 49.2183V60.3097" stroke="#3B92B9" stroke-width="0.865746" stroke-linecap="round"/>
<path d="M35.0703 65.4267C35.2156 64.9595 43.4826 57.3149 47.5979 53.551L53.7709 59.0021L57.9467 62.7011C59.835 64.2586 58.6125 66.7246 57.7652 67.7629C58.201 68.6974 56.2523 70.4885 55.2234 71.2672C53.7709 74.8494 50.6239 75.3556 49.232 75.1609C47.7795 76.0954 46.327 75.6801 45.7823 75.3556C44.9108 74.8884 43.9667 74.6418 43.6036 74.5769C42.0059 74.4211 39.7909 72.1758 38.8831 71.0726C37.5758 69.8266 36.7649 67.9576 36.5228 67.1789C35.9781 66.7895 34.9251 65.894 35.0703 65.4267Z" fill="#F3C5AE"/>
<path d="M53.5898 55.6926V58.6129V60.7544H41.2438V55.6926H53.5898Z" fill="#F3C5AE"/>
<path d="M56.7656 63.6636L47.6877 53.7347" stroke="#DE9D83" stroke-width="0.0865747" stroke-linecap="round"/>
<path d="M56.4023 66.7783L47.6875 53.7345" stroke="#DE9D83" stroke-width="0.173149" stroke-linecap="round"/>
<path d="M38.0629 66.3892L47.6855 53.7347" stroke="#DE9D83" stroke-width="0.0865747" stroke-linecap="round"/>
<path d="M54.5859 68.5306L47.5051 53.9293L52.7703 73.0083" stroke="#DE9D83" stroke-width="0.173149" stroke-linecap="round"/>
<path d="M49.8652 74.1763L48.3216 60.9378L47.5044 53.9292" stroke="#DE9D83" stroke-width="0.0865747" stroke-linecap="round"/>
<path d="M39.5154 67.9463L47.6855 53.9291" stroke="#DE9D83" stroke-width="0.173149" stroke-linecap="round"/>
<path d="M47.1407 74.1763L47.6855 53.9292" stroke="#DE9D83" stroke-width="0.173149" stroke-linecap="round"/>
<path d="M43.1466 72.6191L47.6855 53.9295" stroke="#DE9D83" stroke-width="0.0865747" stroke-linecap="round"/>
<path d="M40.9678 70.6724L47.6855 53.9296" stroke="#DE9D83" stroke-width="0.0865747" stroke-linecap="round"/>
<path d="M93.1343 93.799C93.1343 118.024 72.5188 137.732 47 137.732C21.4812 137.732 0.865746 118.024 0.865746 93.799C0.865746 69.574 21.4812 49.8657 47 49.8657C72.5188 49.8657 93.1343 69.574 93.1343 93.799Z" stroke="url(#paint0_linear_358_55226)" stroke-width="1.73149"/>
<path d="M20.0804 87.471H30.8074V89.341H20.0804V87.471ZM22.2054 94.628V90.344H24.2454V94.577L26.0814 94.475C26.3307 93.931 26.5007 93.3587 26.5914 92.758C26.682 92.146 26.7274 91.3413 26.7274 90.344H28.7674C28.7674 91.194 28.7334 91.925 28.6654 92.537C28.6087 93.1377 28.4954 93.71 28.3254 94.254C29.266 94.1407 30.2464 93.9763 31.2664 93.761V95.665C29.9517 95.937 28.3764 96.1523 26.5404 96.311V98.997H32.4054V100.867H18.6014V98.997H24.5004V96.43C23.2877 96.4867 21.684 96.515 19.6894 96.515V94.645L22.2054 94.628ZM45.7733 87.08V101.904H43.7333V95.087H41.1153C40.5827 96.3903 39.727 97.4557 38.5483 98.283C37.381 99.099 35.8283 99.694 33.8903 100.068L33.5163 98.232C35.2617 97.892 36.6047 97.348 37.5453 96.6C38.4973 95.852 39.1547 94.8377 39.5173 93.557C38.724 93.8063 37.8967 93.9877 37.0353 94.101C36.1853 94.2143 35.2107 94.305 34.1113 94.373L34.0093 92.503C35.29 92.435 36.378 92.3273 37.2733 92.18C38.1687 92.0327 39.03 91.772 39.8573 91.398C39.88 91.0807 39.8913 90.5763 39.8913 89.885C39.88 89.681 39.8403 89.5507 39.7723 89.494C39.7157 89.426 39.608 89.392 39.4493 89.392H34.1623V87.522H39.4493C40.1293 87.522 40.7017 87.7203 41.1663 88.117C41.631 88.5137 41.886 89.0803 41.9313 89.817C41.954 91.0183 41.8803 92.095 41.7103 93.047H43.7333V87.08H45.7733ZM56.7527 96.328C56.866 96.26 57.0133 96.073 57.1947 95.767C57.3873 95.4497 57.5517 95.0813 57.6877 94.662C57.835 94.2427 57.9087 93.829 57.9087 93.421C57.9087 92.9337 57.7783 92.503 57.5177 92.129C57.2683 91.755 56.8547 91.483 56.2767 91.313C56.0613 92.5597 55.625 93.6023 54.9677 94.441C54.3103 95.2683 53.3527 95.767 52.0947 95.937C51.8907 95.971 51.698 95.988 51.5167 95.988C50.95 95.988 50.4627 95.8633 50.0547 95.614C49.6467 95.3647 49.335 95.036 49.1197 94.628C48.9043 94.22 48.7967 93.7723 48.7967 93.285C48.7967 92.707 48.9497 92.1403 49.2557 91.585C49.573 91.0183 50.0433 90.5367 50.6667 90.14C51.3013 89.732 52.0777 89.4657 52.9957 89.341C53.449 89.2843 53.9193 89.2447 54.4067 89.222L54.5087 87.403H56.5487L56.4467 89.375C57.648 89.613 58.515 90.0947 59.0477 90.82C59.5917 91.5453 59.8637 92.401 59.8637 93.387C59.8637 93.897 59.8013 94.407 59.6767 94.917C59.552 95.427 59.382 95.8973 59.1667 96.328H56.7527ZM61.3087 100.867H47.5047V98.997H61.3087V100.867ZM51.8227 94.101C53.126 93.9197 53.9363 92.928 54.2537 91.126C53.823 91.1487 53.4943 91.177 53.2677 91.211C52.735 91.279 52.2817 91.4263 51.9077 91.653C51.545 91.8683 51.2673 92.1233 51.0747 92.418C50.8933 92.7127 50.8027 92.996 50.8027 93.268C50.8027 93.5513 50.8933 93.7723 51.0747 93.931C51.256 94.0897 51.5053 94.1463 51.8227 94.101ZM65.7687 99.796C65.7687 100.125 66.0633 100.374 66.6527 100.544C67.2533 100.714 67.9957 100.799 68.8797 100.799C69.0837 100.799 69.401 100.788 69.8317 100.765C70.6477 100.72 71.2483 100.606 71.6337 100.425C72.019 100.255 72.2343 100.006 72.2797 99.677C71.5203 99.507 70.727 99.3653 69.8997 99.252C69.0723 99.1387 68.3413 99.082 67.7067 99.082C66.4147 99.082 65.7687 99.32 65.7687 99.796ZM74.3367 87.08V95.954H72.2967V92.503H70.2737C70.1377 93.3757 69.7183 94.0783 69.0157 94.611C68.313 95.1437 67.4687 95.41 66.4827 95.41H66.3127C65.5873 95.41 64.93 95.2627 64.3407 94.968C63.7627 94.6733 63.3037 94.2597 62.9637 93.727C62.635 93.1943 62.4707 92.588 62.4707 91.908V91.024C62.4707 90.3327 62.635 89.7263 62.9637 89.205C63.3037 88.6723 63.7627 88.2587 64.3407 87.964C64.93 87.6693 65.5873 87.522 66.3127 87.522H66.4827C67.48 87.522 68.33 87.794 69.0327 88.338C69.7353 88.8707 70.1547 89.579 70.2907 90.463H72.2967V87.08H74.3367ZM64.5107 91.908C64.5107 92.4067 64.6693 92.8033 64.9867 93.098C65.3153 93.3927 65.7573 93.54 66.3127 93.54H66.4827C67.038 93.54 67.4743 93.3927 67.7917 93.098C68.1203 92.8033 68.2847 92.4067 68.2847 91.908V91.024C68.2847 90.514 68.1203 90.1173 67.7917 89.834C67.4743 89.5393 67.038 89.392 66.4827 89.392H66.3127C65.7573 89.392 65.3153 89.5393 64.9867 89.834C64.6693 90.1173 64.5107 90.514 64.5107 91.024V91.908ZM63.7287 96.277H65.7687V97.467C66.358 97.3083 67.0607 97.229 67.8767 97.229C69.1913 97.229 70.6647 97.4103 72.2967 97.773V96.447H74.3367V99.524C74.3367 100.499 73.9457 101.235 73.1637 101.734C72.393 102.244 71.3277 102.544 69.9677 102.635C69.4917 102.658 69.1403 102.669 68.9137 102.669C67.4403 102.669 66.205 102.442 65.2077 101.989C64.2217 101.536 63.7287 100.805 63.7287 99.796V96.277Z" fill="#3B92B9"/>
<path d="M24.7335 57.4101C23.4061 52.3107 27.5354 47.6716 29.7659 45.9894C30.6651 46.2982 32.4224 47.0127 32.2589 47.4004C32.0545 47.885 32.6726 51.9558 37.0414 53.2906C41.4101 54.6254 41.984 55.9238 43.6241 57.5718C44.9362 58.8902 43.8358 61.2464 43.1216 62.2597C42.9428 64.7817 41.5918 65.4494 40.9387 65.4679C40.5994 67.2558 39.225 67.4545 37.4126 67.6353C35.9628 67.7799 33.89 66.0915 33.0349 65.2292C30.8208 64.7476 26.0608 62.5095 24.7335 57.4101Z" fill="#9B7963"/>
<path d="M40.1172 58.3516C40.8637 58.6824 42.5033 59.9145 43.0897 62.1959" stroke="#5A4335" stroke-width="0.121205" stroke-linecap="round"/>
<path d="M40.0137 62.2485C40.4358 62.827 41.2115 64.27 40.9375 65.4151" stroke="#5A4335" stroke-width="0.121205" stroke-linecap="round"/>
<path d="M36.5469 63.436C37.144 64.1464 38.0998 65.9722 37.1454 67.5928" stroke="#5A4335" stroke-width="0.121205" stroke-linecap="round"/>
<path d="M69.2342 58.152C70.5206 53.0773 66.5554 48.3477 64.412 46.6173C63.5462 46.9072 61.8539 47.585 62.0105 47.9764C62.2063 48.4657 61.6042 52.5262 57.3978 53.7694C53.1914 55.0127 52.6368 56.2998 51.0555 57.9142C49.7905 59.2057 50.8452 61.5868 51.5306 62.6159C51.6982 65.1434 52.997 65.84 53.6255 65.8725C53.9488 67.6687 55.271 67.8966 57.0147 68.1158C58.4096 68.2912 60.4073 66.6456 61.2317 65.8008C63.3632 65.3657 67.9477 63.2268 69.2342 58.152Z" fill="#9B7963"/>
<path d="M51.5627 62.5676C51.6439 61.6308 52.4227 59.5965 54.8878 58.9536" stroke="#5A4335" stroke-width="0.121205" stroke-linecap="round"/>
<path d="M53.6058 65.8111C53.62 65.0969 53.9531 63.4556 55.1716 62.6042" stroke="#5A4335" stroke-width="0.121205" stroke-linecap="round"/>
<path d="M56.4045 67.9723C56.1353 67.1756 55.9546 65.2148 57.3861 63.7451" stroke="#5A4335" stroke-width="0.121205" stroke-linecap="round"/>
<path d="M61.0834 65.8939L64.0352 62.1884" stroke="#5A4335" stroke-width="0.121205" stroke-linecap="round"/>
<defs>
<linearGradient id="paint0_linear_358_55226" x1="47" y1="49" x2="47" y2="138.598" gradientUnits="userSpaceOnUse">
<stop stop-color="#90CEEA"/>
<stop offset="0.16" stop-color="#3B92B9"/>
<stop offset="0.5" stop-color="#123241"/>
<stop offset="0.785" stop-color="#3B92B9"/>
<stop offset="1" stop-color="#90CEEA"/>
</linearGradient>
</defs>
</svg>
