<svg width="70" height="83" viewBox="0 0 70 83" fill="none" xmlns="http://www.w3.org/2000/svg">
<g filter="url(#filter0_dddd_828_17886)">
<rect x="9" y="4" width="52" height="52" rx="26" fill="#3B92B9"/>
<rect x="8" y="3" width="54" height="54" rx="27" stroke="#3B92B9" stroke-width="2"/>
</g>
<ellipse cx="20.288" cy="26.2028" rx="3.99724" ry="3.61879" fill="#9B7963"/>
<ellipse cx="20.2879" cy="26.2025" rx="2.85517" ry="2.58485" fill="#3B2F1E"/>
<ellipse cx="48.8416" cy="26.2028" rx="3.99724" ry="3.61879" fill="#9B7963"/>
<ellipse cx="48.8417" cy="26.203" rx="2.85517" ry="2.58485" fill="#3B2F1E"/>
<path d="M24.6404 20.5117C21.3424 22.9756 19.681 27.5357 19.1757 29.8512C19.1198 30.1076 19.0329 30.3554 18.9054 30.5847L18.3924 31.5073C18.1942 31.8638 18.0902 32.2649 18.0902 32.6727V34.4674C18.3589 36.7389 19.6578 38.7165 20.2736 39.4213C22.5578 42.6112 28.4287 44.0933 31.0786 44.4357C38.5805 45.1002 41.3238 44.0128 44.235 42.9857C47.1462 41.9587 49.7214 39.5421 50.8411 37.3068C51.6541 35.6838 51.4525 33.175 51.1991 31.8219C51.1523 31.5722 51.054 31.336 50.9224 31.1187L50.4856 30.3979C50.2781 30.0554 50.1687 29.6652 50.1035 29.2701C49.6414 26.4692 47.0149 22.5574 45.5524 20.6909C45.4586 20.5711 45.3515 20.4605 45.234 20.3637C38.5775 14.8754 28.9688 17.2781 24.6404 20.5117Z" fill="#9B7963"/>
<path fill-rule="evenodd" clip-rule="evenodd" d="M18.1422 35.9906C19.8423 33.3285 23.1009 31.5278 26.8416 31.5278C29.0959 31.5278 31.1752 32.1818 32.8438 33.2843C34.1615 34.1549 36.1068 34.1549 37.4245 33.2843C39.0931 32.1818 41.1724 31.5278 43.4267 31.5278C46.8829 31.5278 49.9276 33.0651 51.7118 35.3987C49.5694 41.5258 42.8155 46.0002 34.8153 46.0002C27.075 46.0002 20.5014 41.8118 18.1422 35.9906Z" fill="#F5E8CF"/>
<path d="M33.7423 15.0606C33.7284 14.4873 34.2411 14.0126 34.8875 14.0002C35.5339 13.9879 36.0691 14.4426 36.0831 15.0159L36.1028 15.8294L36.4137 15.0719C36.6348 14.5331 37.3066 14.2552 37.9141 14.4514C38.5217 14.6475 38.8349 15.2432 38.6138 15.7821L37.5461 18.3837C37.325 18.9225 36.6532 19.2003 36.0457 19.0042C35.8511 18.9414 35.6868 18.8377 35.5605 18.7079C35.3965 18.7912 35.2073 18.8403 35.0051 18.8442C34.8393 18.8473 34.6809 18.8198 34.5367 18.7674C34.4288 19.0602 34.1757 19.3077 33.824 19.4212C33.2165 19.6173 32.5447 19.3395 32.3236 18.8007L31.2559 16.1991C31.0348 15.6603 31.348 15.0645 31.9556 14.8684C32.5631 14.6723 33.2349 14.9501 33.456 15.4889L33.7714 16.2573L33.7423 15.0606Z" fill="#9B7963"/>
<path d="M35.3525 33.5771V36.9213C35.3525 37.7244 36.0036 38.3755 36.8068 38.3755H37.2576C38.0607 38.3755 38.7118 37.7244 38.7118 36.9213V36.8416" stroke="#3B2F1E" stroke-width="0.299759" stroke-linecap="round" stroke-linejoin="round"/>
<path d="M35.352 33.5771V36.9213C35.352 37.7244 34.701 38.3755 33.8978 38.3755H33.447C32.6439 38.3755 31.9928 37.7244 31.9928 36.9213V36.8416" stroke="#3B2F1E" stroke-width="0.299759" stroke-linecap="round" stroke-linejoin="round"/>
<path d="M38.6407 33.7826C38.6407 34.6375 37.1526 35.3306 35.317 35.3306C33.4813 35.3306 31.9932 34.6375 31.9932 33.7826C31.9932 32.9276 33.4813 32.1719 35.317 32.1719C37.1526 32.1719 38.6407 32.9276 38.6407 33.7826Z" fill="#3B2F1E"/>
<ellipse cx="46.1937" cy="36.6957" rx="3.63973" ry="2.97258" fill="#FFCEB9"/>
<ellipse cx="23.799" cy="36.6957" rx="3.63973" ry="2.97258" fill="#FFCEB9"/>
<ellipse cx="25.4363" cy="31.526" rx="2.39946" ry="1.93864" fill="#3B2F1E"/>
<ellipse cx="44.3134" cy="31.526" rx="2.39946" ry="1.93864" fill="#3B2F1E"/>
<path d="M23.9133 35.5186L16.8749 35.0016M24.1574 36.6749L16.8749 37.0695M24.4914 37.7829L17.1948 39.1374" stroke="#3B2F1E" stroke-width="0.239807" stroke-linecap="round"/>
<path d="M46.0871 35.5186L53.1255 35.0016M45.843 36.6749L53.1255 37.0695M45.5089 37.7829L52.8056 39.1374" stroke="#3B2F1E" stroke-width="0.239807" stroke-linecap="round"/>
<ellipse cx="0.564419" cy="0.507942" rx="0.564419" ry="0.507942" transform="matrix(-0.906252 -0.422739 0.581401 -0.813617 26.9403 31.6665)" fill="white"/>
<ellipse cx="0.30123" cy="0.308459" rx="0.30123" ry="0.308459" transform="matrix(-0.831534 -0.555474 0.446493 -0.894787 29.2554 34.6099)" fill="black"/>
<ellipse cx="0.30123" cy="0.308459" rx="0.30123" ry="0.308459" transform="matrix(-0.831534 -0.555474 0.446493 -0.894787 28.0784 35.2002)" fill="black"/>
<ellipse cx="0.30123" cy="0.308459" rx="0.30123" ry="0.308459" transform="matrix(-0.831534 -0.555474 0.446493 -0.894787 27.0546 35.791)" fill="black"/>
<ellipse cx="0.30123" cy="0.308459" rx="0.30123" ry="0.308459" transform="matrix(-0.831534 -0.555474 0.446493 -0.894787 30.1222 35.2002)" fill="black"/>
<ellipse cx="0.30123" cy="0.308459" rx="0.30123" ry="0.308459" transform="matrix(-0.831534 -0.555474 0.446493 -0.894787 29.1003 35.791)" fill="black"/>
<ellipse cx="0.301256" cy="0.308529" rx="0.301256" ry="0.308529" transform="matrix(0.831462 -0.555582 -0.446392 -0.894837 40.5396 34.6772)" fill="black"/>
<ellipse cx="0.301256" cy="0.308529" rx="0.301256" ry="0.308529" transform="matrix(0.831462 -0.555582 -0.446392 -0.894837 41.7166 35.2681)" fill="black"/>
<ellipse cx="0.301256" cy="0.308529" rx="0.301256" ry="0.308529" transform="matrix(0.831462 -0.555582 -0.446392 -0.894837 42.7404 35.8589)" fill="black"/>
<ellipse cx="0.301256" cy="0.308529" rx="0.301256" ry="0.308529" transform="matrix(0.831462 -0.555582 -0.446392 -0.894837 39.6728 35.2681)" fill="black"/>
<ellipse cx="0.301256" cy="0.308529" rx="0.301256" ry="0.308529" transform="matrix(0.831462 -0.555582 -0.446392 -0.894837 40.6947 35.8589)" fill="black"/>
<path d="M25.6092 28.7809C25.6145 28.6379 26.1373 28.3031 26.6598 28.3115C27.1823 28.3199 27.5067 28.6683 27.5015 28.8113C27.4962 28.9544 27.0684 29.0635 26.5458 29.0551C26.0233 29.0467 25.604 28.9239 25.6092 28.7809Z" fill="white"/>
<path d="M42.1994 28.7809C42.2046 28.6379 42.7275 28.3031 43.25 28.3115C43.7725 28.3199 44.0969 28.6683 44.0916 28.8113C44.0863 28.9544 43.6585 29.0635 43.136 29.0551C42.6135 29.0467 42.1941 28.9239 42.1994 28.7809Z" fill="white"/>
<ellipse cx="0.564419" cy="0.507942" rx="0.564419" ry="0.507942" transform="matrix(-0.906252 -0.422739 0.581401 -0.813617 45.4976 31.6665)" fill="white"/>
<defs>
<filter id="filter0_dddd_828_17886" x="0" y="0" width="70" height="83" filterUnits="userSpaceOnUse" color-interpolation-filters="sRGB">
<feFlood flood-opacity="0" result="BackgroundImageFix"/>
<feColorMatrix in="SourceAlpha" type="matrix" values="0 0 0 0 0 0 0 0 0 0 0 0 0 0 0 0 0 0 127 0" result="hardAlpha"/>
<feOffset dy="1"/>
<feGaussianBlur stdDeviation="1.5"/>
<feColorMatrix type="matrix" values="0 0 0 0 0.231373 0 0 0 0 0.572549 0 0 0 0 0.72549 0 0 0 0.08 0"/>
<feBlend mode="normal" in2="BackgroundImageFix" result="effect1_dropShadow_828_17886"/>
<feColorMatrix in="SourceAlpha" type="matrix" values="0 0 0 0 0 0 0 0 0 0 0 0 0 0 0 0 0 0 127 0" result="hardAlpha"/>
<feOffset dy="5"/>
<feGaussianBlur stdDeviation="2.5"/>
<feColorMatrix type="matrix" values="0 0 0 0 0.231373 0 0 0 0 0.572549 0 0 0 0 0.72549 0 0 0 0.07 0"/>
<feBlend mode="normal" in2="effect1_dropShadow_828_17886" result="effect2_dropShadow_828_17886"/>
<feColorMatrix in="SourceAlpha" type="matrix" values="0 0 0 0 0 0 0 0 0 0 0 0 0 0 0 0 0 0 127 0" result="hardAlpha"/>
<feOffset dy="10"/>
<feGaussianBlur stdDeviation="3"/>
<feColorMatrix type="matrix" values="0 0 0 0 0.231373 0 0 0 0 0.572549 0 0 0 0 0.72549 0 0 0 0.04 0"/>
<feBlend mode="normal" in2="effect2_dropShadow_828_17886" result="effect3_dropShadow_828_17886"/>
<feColorMatrix in="SourceAlpha" type="matrix" values="0 0 0 0 0 0 0 0 0 0 0 0 0 0 0 0 0 0 127 0" result="hardAlpha"/>
<feOffset dy="18"/>
<feGaussianBlur stdDeviation="3.5"/>
<feColorMatrix type="matrix" values="0 0 0 0 0.231373 0 0 0 0 0.572549 0 0 0 0 0.72549 0 0 0 0.01 0"/>
<feBlend mode="normal" in2="effect3_dropShadow_828_17886" result="effect4_dropShadow_828_17886"/>
<feBlend mode="normal" in="SourceGraphic" in2="effect4_dropShadow_828_17886" result="shape"/>
</filter>
</defs>
</svg>
