<svg width="77" height="75" viewBox="0 0 77 75" fill="none" xmlns="http://www.w3.org/2000/svg">
<path d="M42.8635 28.9147L47.1957 10.6371C48.4856 5.1951 44.2385 0 38.4998 0C32.7612 0 28.5144 5.1951 29.8043 10.6371L34.1362 28.9147L36.2511 38.2509L41.4136 37.9245L42.8635 28.9147Z" fill="white"/>
<path d="M47.2901 41.7162L66.0703 45.932C71.662 47.1875 77 43.054 77 37.469C77 31.884 71.662 27.7508 66.0703 29.0059L47.2901 33.2218L38.1414 35.0512V39.2573L47.2901 41.7162Z" fill="white"/>
<path d="M29.7099 41.7162L10.9297 45.9323C5.33799 47.1878 0 43.0543 0 37.4693C0 31.8843 5.33799 27.7511 10.9297 29.0062L29.7099 33.2221L35.8614 34.6684L37.0348 40.0856L29.7099 41.7162Z" fill="white"/>
<path d="M33.2277 25.0819L25.1535 12.5117C22.1117 7.77596 15.3341 7.02507 11.2763 10.9742C7.21859 14.9233 7.99013 21.5195 12.8561 24.4799L25.7721 32.3383L34.9092 38.2509L38.5002 34.6013L33.2277 25.0819Z" fill="white"/>
<path d="M51.2279 32.3383L64.1438 24.4802C69.0099 21.5198 69.7814 14.9236 65.7237 10.9745C61.6659 7.02536 54.8883 7.77625 51.8465 12.512L43.7723 25.0822L37.0351 35.6092L40.4424 40.238L51.2279 32.3383Z" fill="white"/>
<path d="M51.2279 42.6003L64.1438 50.4584C69.0099 53.4188 69.7814 60.015 65.7237 63.9641C61.6659 67.9132 54.8883 67.1623 51.8465 62.4265L43.7723 49.8563L37.4324 41.4982L42.5943 36.8643L51.2279 42.6003Z" fill="white"/>
<path d="M33.2277 49.8566L25.1535 62.4268C22.1117 67.1626 15.3341 67.9135 11.2763 63.9644C7.21859 60.0152 7.99013 53.4191 12.8561 50.4587L25.7721 42.6006L37.0348 35.9061L39.9237 38.2654L33.2277 49.8566Z" fill="white"/>
<path d="M43.4442 46.5464L47.7071 64.5324C48.9764 69.8876 44.797 75 39.15 75C33.503 75 29.3239 69.8876 30.5929 64.5324L34.8558 46.5464L36.4951 36.8002L40.6518 36.3583L43.4442 46.5464Z" fill="white"/>
<path d="M38.5063 46.2929C43.5127 46.2929 47.5712 42.3431 47.5712 37.4707C47.5712 32.5983 43.5127 28.6484 38.5063 28.6484C33.4999 28.6484 29.4414 32.5983 29.4414 37.4707C29.4414 42.3431 33.4999 46.2929 38.5063 46.2929Z" fill="#FED402"/>
<g style="mix-blend-mode:multiply">
<path fill-rule="evenodd" clip-rule="evenodd" d="M36.2023 46.0069C36.9362 46.1936 37.7064 46.2929 38.5004 46.2929C43.5068 46.2929 47.5653 42.3431 47.5653 37.4707C47.5653 32.5983 43.5068 28.6484 38.5004 28.6484C37.9783 28.6484 37.4665 28.6914 36.9685 28.7739C40.862 29.764 43.7352 33.2105 43.7352 37.3101C43.7352 41.6744 40.4791 45.2985 36.2023 46.0069Z" fill="#FED402" fill-opacity="0.5"/>
</g>
</svg>
