<svg width="77" height="72" viewBox="0 0 77 72" fill="none" xmlns="http://www.w3.org/2000/svg">
<path d="M26.7065 17.9933C-12.2268 1.56639 1.89054 22.3504 13.8159 34.7958C-15.8515 70.4409 9.0819 60.7051 25.2571 51.3815C52.3947 92.1926 51.2575 63.1249 47.2966 43.4898C100.674 31.4277 70.1148 24.9992 48.163 23.2928C53.8426 -16.1854 36.2253 3.31065 26.7065 17.9933Z" fill="#CD7474"/>
<path d="M5.56754 15.7185C6.26011 14.996 6.23747 13.8929 5.51698 13.2547C4.79649 12.6165 3.65098 12.6847 2.95841 13.4072C2.26584 14.1297 2.28848 15.2327 3.00897 15.871C3.72946 16.5092 4.87498 16.4409 5.56754 15.7185Z" fill="#F0BFBF"/>
<path d="M9.21952 18.9543C9.91209 18.2318 9.88945 17.1288 9.16896 16.4905C8.44847 15.8523 7.30296 15.9206 6.61039 16.643C5.91782 17.3655 5.94046 18.4686 6.66095 19.1068C7.38144 19.745 8.52695 19.6768 9.21952 18.9543Z" fill="#F0BFBF"/>
<path d="M12.5256 21.8816C13.2182 21.1591 13.1955 20.056 12.475 19.4178C11.7546 18.7796 10.609 18.8478 9.91648 19.5703C9.22391 20.2927 9.24655 21.3958 9.96704 22.0341C10.6875 22.6723 11.833 22.604 12.5256 21.8816Z" fill="#F0BFBF"/>
<path d="M16.4308 24.8557C17.1233 24.1332 17.1007 23.0301 16.3802 22.3919C15.6597 21.7537 14.5142 21.8219 13.8216 22.5444C13.1291 23.2669 13.1517 24.3699 13.8722 25.0082C14.5927 25.6464 15.7382 25.5781 16.4308 24.8557Z" fill="#F0BFBF"/>
<path d="M20.4236 28.0705C21.1162 27.3481 21.0936 26.245 20.3731 25.6068C19.6526 24.9685 18.5071 25.0368 17.8145 25.7593C17.1219 26.4817 17.1446 27.5848 17.8651 28.223C18.5855 28.8613 19.7311 28.793 20.4236 28.0705Z" fill="#F0BFBF"/>
<path d="M24.5017 31.1989C25.1943 30.4765 25.1717 29.3734 24.4512 28.7352C23.7307 28.0969 22.5852 28.1652 21.8926 28.8877C21.2 29.6101 21.2227 30.7132 21.9432 31.3514C22.6637 31.9897 23.8092 31.9214 24.5017 31.1989Z" fill="#F0BFBF"/>
<path d="M28.2314 34.0188C28.924 33.2963 28.9013 32.1932 28.1809 31.555C27.4604 30.9168 26.3149 30.985 25.6223 31.7075C24.9297 32.43 24.9524 33.533 25.6729 34.1713C26.3933 34.8095 27.5389 34.7412 28.2314 34.0188Z" fill="#F0BFBF"/>
<path d="M32.2995 36.6545C32.992 35.932 32.9694 34.829 32.2489 34.1907C31.5284 33.5525 30.3829 33.6208 29.6903 34.3432C28.9978 35.0657 29.0204 36.1688 29.7409 36.807C30.4614 37.4452 31.6069 37.377 32.2995 36.6545Z" fill="#F0BFBF"/>
<path d="M28.2465 39.0344C28.9391 38.3119 28.9164 37.2089 28.1959 36.5706C27.4754 35.9324 26.3299 36.0007 25.6374 36.7231C24.9448 37.4456 24.9674 38.5486 25.6879 39.1869C26.4084 39.8251 27.5539 39.7568 28.2465 39.0344Z" fill="#F0BFBF"/>
<path d="M24.6421 42.2932C25.3347 41.5707 25.3121 40.4676 24.5916 39.8294C23.8711 39.1912 22.7256 39.2594 22.033 39.9819C21.3404 40.7044 21.3631 41.8074 22.0836 42.4457C22.8041 43.0839 23.9496 43.0156 24.6421 42.2932Z" fill="#F0BFBF"/>
<path d="M19.9424 46.3527C20.635 45.6303 20.6124 44.5272 19.8919 43.889C19.1714 43.2507 18.0259 43.319 17.3333 44.0415C16.6407 44.7639 16.6634 45.867 17.3839 46.5052C18.1043 47.1435 19.2499 47.0752 19.9424 46.3527Z" fill="#F0BFBF"/>
<path d="M15.1474 49.6823C15.84 48.9599 15.8174 47.8568 15.0969 47.2186C14.3764 46.5803 13.2309 46.6486 12.5383 47.3711C11.8457 48.0935 11.8684 49.1966 12.5889 49.8348C13.3094 50.4731 14.4549 50.4048 15.1474 49.6823Z" fill="#F0BFBF"/>
<path d="M10.6909 53.154C11.3835 52.4316 11.3608 51.3285 10.6403 50.6903C9.91984 50.052 8.77433 50.1203 8.08176 50.8427C7.3892 51.5652 7.41183 52.6683 8.13233 53.3065C8.85282 53.9447 9.99833 53.8765 10.6909 53.154Z" fill="#F0BFBF"/>
<path d="M6.57517 56.6066C7.26774 55.8842 7.2451 54.7811 6.52461 54.1429C5.80412 53.5046 4.6586 53.5729 3.96604 54.2954C3.27347 55.0178 3.29611 56.1209 4.0166 56.7591C4.7371 57.3974 5.8826 57.3291 6.57517 56.6066Z" fill="#F0BFBF"/>
<path d="M34.3398 32.175C35.0324 31.4525 35.0097 30.3495 34.2893 29.7112C33.5688 29.073 32.4233 29.1413 31.7307 29.8637C31.0381 30.5862 31.0608 31.6893 31.7813 32.3275C32.5017 32.9657 33.6473 32.8975 34.3398 32.175Z" fill="#F0BFBF"/>
<path d="M38.6159 36.6071C39.3084 35.8847 39.2858 34.7816 38.5653 34.1434C37.8448 33.5051 36.6993 33.5734 36.0067 34.2959C35.3142 35.0183 35.3368 36.1214 36.0573 36.7596C36.7778 37.3979 37.9233 37.3296 38.6159 36.6071Z" fill="#F0BFBF"/>
<path d="M43.8871 35.4714C44.5797 34.7489 44.5571 33.6459 43.8366 33.0076C43.1161 32.3694 41.9706 32.4377 41.278 33.1601C40.5854 33.8826 40.6081 34.9857 41.3286 35.6239C42.049 36.2621 43.1946 36.1939 43.8871 35.4714Z" fill="#F0BFBF"/>
<path d="M48.5617 34.4524C49.2543 33.7299 49.2317 32.6268 48.5112 31.9886C47.7907 31.3504 46.6452 31.4186 45.9526 32.1411C45.26 32.8635 45.2827 33.9666 46.0032 34.6049C46.7237 35.2431 47.8692 35.1748 48.5617 34.4524Z" fill="#F0BFBF"/>
<path d="M53.6725 33.8186C54.3651 33.0961 54.3425 31.993 53.622 31.3548C52.9015 30.7166 51.756 30.7848 51.0634 31.5073C50.3708 32.2298 50.3935 33.3328 51.114 33.9711C51.8344 34.6093 52.98 34.541 53.6725 33.8186Z" fill="#F0BFBF"/>
<path d="M58.7031 33.4362C59.3957 32.7138 59.373 31.6107 58.6525 30.9725C57.932 30.3342 56.7865 30.4025 56.094 31.125C55.4014 31.8474 55.424 32.9505 56.1445 33.5887C56.865 34.227 58.0105 34.1587 58.7031 33.4362Z" fill="#F0BFBF"/>
<path d="M64.1673 33.4397C64.8598 32.7172 64.8372 31.6141 64.1167 30.9759C63.3962 30.3377 62.2507 30.4059 61.5581 31.1284C60.8656 31.8509 60.8882 32.9539 61.6087 33.5922C62.3292 34.2304 63.4747 34.1621 64.1673 33.4397Z" fill="#F0BFBF"/>
<path d="M69.2831 33.135C69.9756 32.4125 69.953 31.3094 69.2325 30.6712C68.512 30.033 67.3665 30.1012 66.6739 30.8237C65.9814 31.5462 66.004 32.6492 66.7245 33.2875C67.445 33.9257 68.5905 33.8574 69.2831 33.135Z" fill="#F0BFBF"/>
<path d="M74.3988 32.8298C75.0914 32.1073 75.0688 31.0043 74.3483 30.366C73.6278 29.7278 72.4823 29.7961 71.7897 30.5185C71.0971 31.241 71.1198 32.3441 71.8403 32.9823C72.5608 33.6205 73.7063 33.5523 74.3988 32.8298Z" fill="#F0BFBF"/>
<path d="M36.3801 27.5319C37.0727 26.8095 37.05 25.7064 36.3295 25.0682C35.609 24.4299 34.4635 24.4982 33.771 25.2207C33.0784 25.9431 33.101 27.0462 33.8215 27.6844C34.542 28.3227 35.6875 28.2544 36.3801 27.5319Z" fill="#F0BFBF"/>
<path d="M40.6186 17.7409C41.3112 17.0185 41.2886 15.9154 40.5681 15.2772C39.8476 14.6389 38.7021 14.7072 38.0095 15.4297C37.3169 16.1521 37.3396 17.2552 38.0601 17.8934C38.7806 18.5317 39.9261 18.4634 40.6186 17.7409Z" fill="#F0BFBF"/>
<path d="M38.3277 22.6457C39.0202 21.9233 38.9976 20.8202 38.2771 20.182C37.5566 19.5437 36.4111 19.612 35.7185 20.3344C35.026 21.0569 35.0486 22.16 35.7691 22.7982C36.4896 23.4364 37.6351 23.3682 38.3277 22.6457Z" fill="#F0BFBF"/>
<path d="M42.5561 12.363C43.2487 11.6405 43.2261 10.5375 42.5056 9.89923C41.7851 9.26099 40.6396 9.32927 39.947 10.0517C39.2544 10.7742 39.2771 11.8773 39.9976 12.5155C40.7181 13.1537 41.8636 13.0855 42.5561 12.363Z" fill="#F0BFBF"/>
<path d="M44.6691 7.14034C45.3617 6.41788 45.339 5.31482 44.6185 4.67658C43.898 4.03834 42.7525 4.10662 42.06 4.82908C41.3674 5.55154 41.39 6.6546 42.1105 7.29284C42.831 7.93108 43.9765 7.8628 44.6691 7.14034Z" fill="#F0BFBF"/>
<path d="M34.034 42.2248C34.7265 41.5023 34.7039 40.3993 33.9834 39.761C33.2629 39.1228 32.1174 39.1911 31.4248 39.9135C30.7323 40.636 30.7549 41.7391 31.4754 42.3773C32.1959 43.0155 33.3414 42.9473 34.034 42.2248Z" fill="#F0BFBF"/>
<path d="M36.0041 46.8776C36.6967 46.1552 36.6741 45.0521 35.9536 44.4139C35.2331 43.7756 34.0876 43.8439 33.395 44.5664C32.7024 45.2888 32.7251 46.3919 33.4456 47.0301C34.1661 47.6684 35.3116 47.6001 36.0041 46.8776Z" fill="#F0BFBF"/>
<path d="M38.5031 51.8259C39.1957 51.1034 39.173 50.0004 38.4525 49.3621C37.732 48.7239 36.5865 48.7922 35.894 49.5146C35.2014 50.2371 35.224 51.3401 35.9445 51.9784C36.665 52.6166 37.8105 52.5483 38.5031 51.8259Z" fill="#F0BFBF"/>
<path d="M40.1274 56.1692C40.8199 55.4467 40.7973 54.3436 40.0768 53.7054C39.3563 53.0671 38.2108 53.1354 37.5182 53.8579C36.8257 54.5803 36.8483 55.6834 37.5688 56.3216C38.2893 56.9599 39.4348 56.8916 40.1274 56.1692Z" fill="#F0BFBF"/>
<path d="M41.8318 60.0954C42.5243 59.373 42.5017 58.2699 41.7812 57.6317C41.0607 56.9934 39.9152 57.0617 39.2226 57.7842C38.5301 58.5066 38.5527 59.6097 39.2732 60.2479C39.9937 60.8862 41.1392 60.8179 41.8318 60.0954Z" fill="#F0BFBF"/>
<path d="M43.5412 64.5178C44.2337 63.7953 44.2111 62.6923 43.4906 62.054C42.7701 61.4158 41.6246 61.4841 40.932 62.2065C40.2395 62.929 40.2621 64.032 40.9826 64.6703C41.7031 65.3085 42.8486 65.2402 43.5412 64.5178Z" fill="#F0BFBF"/>
<path d="M45.2607 69.1018C45.9532 68.3793 45.9306 67.2762 45.2101 66.638C44.4896 65.9998 43.3441 66.068 42.6515 66.7905C41.959 67.513 41.9816 68.616 42.7021 69.2543C43.4226 69.8925 44.5681 69.8242 45.2607 69.1018Z" fill="#F0BFBF"/>
</svg>
