<svg width="94" height="82" viewBox="0 0 94 82" fill="none" xmlns="http://www.w3.org/2000/svg">
<path d="M93.9464 38.1009C93.3748 39.8281 60.8421 68.0866 44.6472 82L20.3551 61.8498L3.92196 48.1763C-3.50866 42.4191 1.302 33.3034 4.63616 29.4652C2.9214 26.0109 10.5902 19.39 14.6389 16.5114C20.3548 3.26966 32.7391 1.3984 38.2168 2.11798C43.9327 -1.33637 49.6485 0.198895 51.792 1.39832C55.2215 3.1255 58.9368 4.03707 60.3658 4.27696C66.6532 4.85268 75.3699 13.1527 78.9423 17.2308C84.0866 21.8366 87.2779 28.7453 88.2306 31.624C90.374 33.0633 94.518 36.3737 93.9464 38.1009Z" fill="#F3C5AE"/>
<path d="M21.0684 74.0837V63.2888V55.3726H69.6532V74.0837H21.0684Z" fill="#F3C5AE"/>
<path d="M8.57422 44.6187L44.2983 81.3212" stroke="#DE9D83" stroke-width="0.5" stroke-linecap="round"/>
<path d="M10.002 33.104L44.2971 81.3211" stroke="#DE9D83" stroke-linecap="round"/>
<path d="M82.1664 34.5435L44.2988 81.3212" stroke="#DE9D83" stroke-width="0.5" stroke-linecap="round"/>
<path d="M17.1484 26.6273L45.0132 80.6017L24.2933 10.0752" stroke="#DE9D83" stroke-linecap="round"/>
<path d="M35.7246 5.75732L41.7977 54.6941L45.0129 80.6017" stroke="#DE9D83" stroke-width="0.5" stroke-linecap="round"/>
<path d="M76.4505 28.7861L44.2988 80.6015" stroke="#DE9D83" stroke-linecap="round"/>
<path d="M46.4423 5.75732L44.2988 80.6017" stroke="#DE9D83" stroke-linecap="round"/>
<path d="M62.1609 11.5146L44.2988 80.6018" stroke="#DE9D83" stroke-width="0.5" stroke-linecap="round"/>
<path d="M70.7347 18.7109L44.2988 80.6015" stroke="#DE9D83" stroke-width="0.5" stroke-linecap="round"/>
</svg>
